<?xml version="1.0" encoding="UTF-8"?> <svg xmlns="http://www.w3.org/2000/svg" xmlns:xlink="http://www.w3.org/1999/xlink" id="Слой_1" data-name="Слой 1" viewBox="0 0 2344.8 846.76"> <defs> <style>.cls-1{fill:url(#linear-gradient);}.cls-2{fill:url(#linear-gradient-2);}.cls-3{fill:#ec645d;}.cls-4{fill:url(#linear-gradient-3);}.cls-5{fill:#cd4f80;}.cls-6{fill:#742243;}.cls-7{fill:#b03567;}.cls-8{fill:#629535;}.cls-9{fill:#c7d306;}.cls-10{fill:#96c223;}.cls-11{fill:#b65617;}.cls-12{fill:#f39306;}.cls-13{fill:#e67c06;}.cls-14{fill:#e8413b;}.cls-15{fill:#9c2c40;}.cls-16{fill:#bb3b42;}.cls-17{fill:url(#linear-gradient-4);}.cls-18{fill:#683371;}.cls-19{fill:url(#linear-gradient-5);}.cls-20{fill:url(#linear-gradient-6);}.cls-21{fill:#a2d3c3;}.cls-22{fill:url(#linear-gradient-7);}.cls-23{fill:#86bca7;}.cls-24{fill:url(#linear-gradient-8);}.cls-25{fill:#d34915;}.cls-26{fill:#c12164;}.cls-27{fill:#ec609e;}.cls-28{fill:#e71a83;}</style> <linearGradient id="linear-gradient" x1="1747.28" y1="481.22" x2="1764.1" y2="481.22" gradientUnits="userSpaceOnUse"> <stop offset="0" stop-color="#eb5858"></stop> <stop offset="1" stop-color="#a91929"></stop> </linearGradient> <linearGradient id="linear-gradient-2" x1="1739.76" y1="471.7" x2="1771.61" y2="471.7" xlink:href="#linear-gradient"></linearGradient> <linearGradient id="linear-gradient-3" x1="1747.28" y1="458.58" x2="1764.1" y2="458.58" xlink:href="#linear-gradient"></linearGradient> <linearGradient id="linear-gradient-4" x1="289.29" y1="806.67" x2="289.29" y2="767.18" gradientUnits="userSpaceOnUse"> <stop offset="0" stop-color="#632e5d"></stop> <stop offset="0.55" stop-color="#6f61a8"></stop> <stop offset="1" stop-color="#98b0dc"></stop> </linearGradient> <linearGradient id="linear-gradient-5" x1="303.67" y1="774.04" x2="303.67" y2="799.81" xlink:href="#linear-gradient-4"></linearGradient> <linearGradient id="linear-gradient-6" x1="294.87" y1="794.35" x2="294.87" y2="779.5" xlink:href="#linear-gradient-4"></linearGradient> <linearGradient id="linear-gradient-7" x1="1755.69" y1="85.83" x2="1789.32" y2="85.83" gradientUnits="userSpaceOnUse"> <stop offset="0.31" stop-color="#9cc3b6"></stop> <stop offset="1" stop-color="#328f75"></stop> </linearGradient> <linearGradient id="linear-gradient-8" x1="3337.05" y1="623.95" x2="3337.05" y2="668.53" gradientTransform="translate(-1022.78)" gradientUnits="userSpaceOnUse"> <stop offset="0" stop-color="#fec708"></stop> <stop offset="0.71" stop-color="#eb5c2a"></stop> <stop offset="1" stop-color="#9b4015"></stop> </linearGradient> </defs> <path class="cls-1" d="M1747.28,474c0,1.45,3.77,2.62,8.41,2.62s8.41-1.17,8.41-2.62v11.75c0,1.45-3.77,2.62-8.41,2.62s-8.41-1.17-8.41-2.62Z"></path> <path class="cls-2" d="M1739.76,464.3c0,2.75,7.13,5,15.93,5s15.92-2.22,15.92-5v9.84c0,2.74-7.13,5-15.92,5s-15.93-2.22-15.93-5Z"></path> <path class="cls-3" d="M1771.61,464.3c0,2.75-7.13,5-15.92,5s-15.93-2.22-15.93-5,7.13-5,15.93-5S1771.61,461.56,1771.61,464.3Z"></path> <path class="cls-4" d="M1747.28,451.39c0,1.45,3.77,2.62,8.41,2.62s8.41-1.17,8.41-2.62v11.75c0,1.45-3.77,2.62-8.41,2.62s-8.41-1.17-8.41-2.62Z"></path> <path class="cls-3" d="M1764.1,451.39c0,1.45-3.77,2.62-8.41,2.62s-8.41-1.17-8.41-2.62,3.77-2.62,8.41-2.62S1764.1,449.94,1764.1,451.39Z"></path> <path class="cls-5" d="M1309.7,783.41l-17.25,4.35a10.16,10.16,0,0,0,3.57,6.57l16.86,9.46c3.74,2.12,9.27-.61,12.37-6.08a15.07,15.07,0,0,0,2-6.78Z"></path> <path class="cls-6" d="M1309.72,797c-.09,3,1,5.61,3.16,6.84,3.74,2.12,9.27-.61,12.37-6.08a15.07,15.07,0,0,0,2-6.78Z"></path> <path class="cls-7" d="M1292.45,787.76a10.16,10.16,0,0,0,3.57,6.57l16.86,9.46c-2.16-1.22-3.23-3.82-3.16-6.84Z"></path> <polygon class="cls-5" points="1327.26 790.93 1309.72 796.95 1292.45 787.76 1309.7 783.41 1327.26 790.93"></polygon> <polygon class="cls-7" points="1320.75 790.46 1310.28 793.76 1299.34 788.65 1309.78 785.92 1320.75 790.46"></polygon> <path class="cls-6" d="M1309.78,785.92l-10.44,2.73,6.9,3.23a7.18,7.18,0,0,0,2.36-2.39,7.94,7.94,0,0,0,1.18-3.56Z"></path> <polygon class="cls-8" points="814.73 556.39 814.73 579.76 832.39 571.28 832.39 549.84 814.73 556.39"></polygon> <polygon class="cls-9" points="832.39 549.84 814.73 556.39 797.08 549.84 814.73 543.97 832.39 549.84"></polygon> <polygon class="cls-10" points="797.08 571.28 814.73 579.76 814.73 556.39 797.08 549.84 797.08 571.28"></polygon> <polygon class="cls-11" points="2132.14 11.44 2141.08 28.17 2150.48 15.35 2142.29 0 2132.14 11.44"></polygon> <polygon class="cls-12" points="2142.29 0 2132.14 11.44 2117 13.5 2127.4 2.54 2142.29 0"></polygon> <polygon class="cls-13" points="2125.2 28.85 2141.08 28.17 2132.14 11.44 2117 13.5 2125.2 28.85"></polygon> <polygon class="cls-11" points="15.15 109.06 24.08 125.79 33.48 112.97 25.29 97.62 15.15 109.06"></polygon> <polygon class="cls-12" points="25.29 97.62 15.15 109.06 0 111.12 10.4 100.16 25.29 97.62"></polygon> <polygon class="cls-13" points="8.2 126.47 24.08 125.79 15.15 109.06 0 111.12 8.2 126.47"></polygon> <polygon class="cls-14" points="423.02 207.28 423.02 194.39 414.65 190.86 415.17 202.94 423.02 207.28"></polygon> <polygon class="cls-15" points="418.02 206.8 415.17 202.94 423.02 207.28 428.9 212.77 418.02 206.8"></polygon> <polygon class="cls-14" points="428.9 200.35 434.62 189.35 426.99 186.75 421.35 197.38 428.9 200.35"></polygon> <polygon class="cls-16" points="428.9 200.35 423.02 194.39 423.02 207.28 428.9 212.77 434.62 201.49 434.62 189.35 428.9 200.35"></polygon> <polygon class="cls-14" points="2045.08 379.1 2045.08 366.21 2036.72 362.69 2037.23 374.77 2045.08 379.1"></polygon> <polygon class="cls-15" points="2040.08 378.62 2037.23 374.77 2045.08 379.1 2050.96 384.6 2040.08 378.62"></polygon> <polygon class="cls-14" points="2050.96 372.18 2056.68 361.17 2049.05 358.57 2043.42 369.21 2050.96 372.18"></polygon> <polygon class="cls-16" points="2050.96 372.18 2045.08 366.21 2045.08 379.1 2050.96 384.6 2056.68 373.31 2056.68 361.17 2050.96 372.18"></polygon> <polygon class="cls-14" points="33.48 841.27 33.48 828.38 25.12 824.85 25.63 836.93 33.48 841.27"></polygon> <polygon class="cls-15" points="28.48 840.79 25.63 836.93 33.48 841.27 39.36 846.76 28.48 840.79"></polygon> <polygon class="cls-14" points="39.36 834.35 45.08 823.34 37.45 820.74 31.82 831.37 39.36 834.35"></polygon> <polygon class="cls-16" points="39.36 834.35 33.48 828.38 33.48 841.27 39.36 846.76 45.08 835.48 45.08 823.34 39.36 834.35"></polygon> <path class="cls-17" d="M300.18,767.18c-9,0-16.22,8.84-16.22,19.74s7.26,19.75,16.22,19.75h-5.55c-9,0-16.22-8.84-16.22-19.75s7.26-19.74,16.22-19.74Z"></path> <path class="cls-18" d="M300.18,806.67c-9,0-16.22-8.84-16.22-19.75s7.26-19.74,16.22-19.74S316.4,776,316.4,786.92,309.14,806.67,300.18,806.67Zm10.58-19.75c0-7.11-4.74-12.88-10.58-12.88s-10.58,5.77-10.58,12.88,4.74,12.89,10.58,12.89S310.76,794,310.76,786.92Z"></path> <path class="cls-19" d="M300.18,774a8.88,8.88,0,0,0-3.61.79c4.06,1.8,7,6.53,7,12.09s-2.91,10.3-7,12.1a8.88,8.88,0,0,0,3.61.79c5.84,0,10.58-5.77,10.58-12.89S306,774,300.18,774Z"></path> <path class="cls-18" d="M300.14,794.35c-3.37,0-6.11-3.32-6.11-7.43s2.74-7.42,6.11-7.42,6.1,3.32,6.1,7.42S303.51,794.35,300.14,794.35Z"></path> <path class="cls-20" d="M300.14,779.5h-5.65a5.36,5.36,0,0,0-3.71,1.54,15.27,15.27,0,0,0,0,11.77,5.4,5.4,0,0,0,3.71,1.54h5.65c-3.37,0-6.11-3.32-6.11-7.43S296.77,779.5,300.14,779.5Z"></path> <path class="cls-21" d="M1755.69,75.35c0-2.89,7.53-5.24,16.81-5.24s16.82,2.35,16.82,5.24-7.53,5.24-16.82,5.24V75.35Z"></path> <path class="cls-22" d="M1772.5,80.59c9.29,0,16.82-2.34,16.82-5.24V91.07c0,2.9-7.53,5.25-16.82,5.25V91.07h-16.81V75.35"></path> <rect class="cls-23" x="1755.69" y="75.35" width="16.81" height="15.72"></rect> <path class="cls-24" d="M2326.2,668.53c-13.18,0-23.87-10-23.87-22.29S2313,624,2326.2,624"></path> <path class="cls-25" d="M2326.49,668.53c-10.11,0-18.31-10-18.31-22.29s8.2-22.29,18.31-22.29,18.31,10,18.31,22.29S2336.6,668.53,2326.49,668.53Z"></path> <polygon class="cls-26" points="1703.74 267.9 1716.59 284.62 1729.48 258.37 1703.74 267.9"></polygon> <polygon class="cls-27" points="1676.15 257.27 1701.89 248.66 1729.48 258.37 1703.74 267.9 1676.15 257.27"></polygon> <polygon class="cls-28" points="1716.68 284.67 1702.89 274.47 1689.1 274.03 1676.15 257.27 1703.74 267.9 1716.68 284.67"></polygon> </svg> 