<?xml version="1.0" encoding="UTF-8"?> <!-- Generator: Adobe Illustrator 24.3.0, SVG Export Plug-In . SVG Version: 6.00 Build 0) --> <svg xmlns="http://www.w3.org/2000/svg" xmlns:xlink="http://www.w3.org/1999/xlink" id="Слой_1" x="0px" y="0px" viewBox="0 0 631.9 213" style="enable-background:new 0 0 631.9 213;" xml:space="preserve"> <style type="text/css"> .st0{fill:#FFFFFF;} </style> <path class="st0" d="M540.3,128c-1,0-2,0-2.9,0c-124.6,0-379.5,0-504.2,0c-2.6,0-5.4-0.2-7.9-0.9c-11.1-2.9-18.1-13.6-16.7-25 c1.4-11.2,11-19.8,22.5-20c1.1,0,2.1,0,3.2,0c124.5,0,379.2,0,503.7,0c0.9,0,1.8,0,2.9,0c-0.2-1.1-1.1-1.4-1.7-1.8 c-15.6-11.3-31.3-22.5-46.9-33.8c-2.3-1.7-4.7-3.2-6.9-5c-7.7-6-10.9-14-8.8-23.5c2.1-9.3,8.2-15.2,17.5-17.4 c6.6-1.5,12.8-0.1,18.3,3.9c8,5.7,16,11.5,24,17.3c28.3,20.3,56.5,40.6,84.8,60.9c4.7,3.4,8.3,7.5,9.8,13.2c2.5,9.4,0,17.5-7.3,23.8 c-7.1,6.1-14.4,11.9-21.6,17.8c-28.4,23.3-56.8,46.5-85.2,69.8c-4.9,4-10.4,6-16.7,5.8c-11.3-0.5-20.9-10.1-21.5-21.3 c-0.4-8.2,2.6-14.7,8.9-19.9c17-13.9,34-27.8,51-41.7c0.6-0.5,1.3-1.1,1.9-1.6C540.4,128.3,540.3,128.1,540.3,128z"></path> </svg> 