<?xml version="1.0" encoding="UTF-8"?> <svg xmlns="http://www.w3.org/2000/svg" width="280" height="67" viewBox="0 0 280 67" fill="none"><g clip-path="url(#clip0_20_164)"><path d="M159.88 11.4851L140.922 0.634993C139.446 -0.209823 137.63 -0.209823 136.154 0.634993L117.201 11.4851C115.725 12.3299 114.817 13.887 114.817 15.5766V37.2768C114.817 38.9665 115.725 40.5236 117.201 41.3684L136.154 52.2185C137.63 53.0633 139.446 53.0633 140.922 52.2185L159.875 41.3684C161.351 40.5236 162.259 38.9665 162.259 37.2768V15.5766C162.259 13.887 161.351 12.3299 159.875 11.4851H159.88ZM144.648 28.4863C144.648 29.3753 144.169 30.198 143.394 30.6398L139.797 32.6994C139.022 33.1466 138.064 33.1466 137.285 32.6994L133.687 30.6398C132.912 30.1925 132.434 29.3753 132.434 28.4863V24.3672C132.434 23.4782 132.912 22.6554 133.687 22.2137L137.285 20.1541C138.059 19.7069 139.017 19.7069 139.797 20.1541L143.394 22.2137C144.169 22.661 144.648 23.4782 144.648 24.3672V28.4863Z" fill="#E87722"></path><path d="M-4.56441e-05 55.4322H2.12197C2.12197 56.2107 2.93513 56.5972 4.56702 56.5972C6.19891 56.5972 7.00093 56.2162 7.00093 55.4487C7.00093 55.0457 6.83384 54.7585 6.50524 54.5874C6.17663 54.4162 5.63638 54.3278 4.89005 54.3278H2.96855V52.5057H4.97917C5.65866 52.5057 6.14878 52.4229 6.44397 52.2627C6.73916 52.0971 6.88954 51.832 6.88954 51.4566C6.88954 51.0811 6.70574 50.8437 6.33815 50.678C5.97056 50.5124 5.39689 50.4351 4.62828 50.4351C3.10222 50.4351 2.33918 50.7829 2.33918 51.4842H0.211599C0.211599 50.4295 0.556913 49.662 1.24197 49.1816C1.9326 48.7068 3.05766 48.4693 4.62271 48.4693C6.18777 48.4693 7.29612 48.6847 7.98118 49.1154C8.66624 49.5461 9.00598 50.2418 9.00598 51.2026C9.00598 52.2406 8.62168 52.9805 7.85865 53.4168C8.69965 53.8585 9.11737 54.6205 9.11737 55.7193C9.11737 56.7077 8.74978 57.431 8.02016 57.8838C7.29055 58.3366 6.13764 58.563 4.56145 58.563C2.98525 58.563 1.82121 58.3145 1.09159 57.8175C0.361978 57.3206 -0.00561523 56.5255 -0.00561523 55.4322H-4.56441e-05Z" fill="#2E2B28"></path><path d="M20.2065 56.0229L15.7676 48.6018H18.3296L21.4263 53.9302L24.1832 48.6018H26.6561L22.6516 56.1168C22.2172 56.9229 21.7048 57.5027 21.1088 57.8727C20.5129 58.2371 19.7721 58.4193 18.8754 58.4193H17.7448V56.6358H18.7083C19.321 56.6358 19.8222 56.4315 20.2065 56.0174V56.0229Z" fill="#2E2B28"></path><path d="M39.1988 58.4193H33.4009V48.6018H41.8889V50.7055H35.6621V52.1798H39.1988C40.4353 52.1798 41.332 52.4228 41.8945 52.9142C42.457 53.4056 42.7355 54.1952 42.7355 55.2941C42.7355 56.3929 42.457 57.1825 41.8945 57.6794C41.332 58.1764 40.4353 58.4248 39.1988 58.4248V58.4193ZM39.0596 54.2836H35.6621V56.3156H39.0596C39.5497 56.3156 39.9062 56.2327 40.1345 56.0726C40.3629 55.907 40.4743 55.6474 40.4743 55.2941C40.4743 54.9407 40.3629 54.6811 40.1401 54.521C39.9173 54.3609 39.5553 54.2836 39.0596 54.2836Z" fill="#2E2B28"></path><path d="M50.6886 49.6619C51.4962 48.8613 52.7883 48.4637 54.5706 48.4637C56.3529 48.4637 57.645 48.8613 58.4526 49.6619C59.2602 50.4626 59.6612 51.7436 59.6612 53.5106C59.6612 55.2775 59.2602 56.5585 58.4526 57.3592C57.645 58.1598 56.3529 58.5574 54.5706 58.5574C52.7883 58.5574 51.4906 58.1598 50.6886 57.3592C49.881 56.5585 49.48 55.2775 49.48 53.5106C49.48 51.7436 49.881 50.4626 50.6886 49.6619ZM52.4152 51.2687C51.9696 51.7381 51.7412 52.4835 51.7412 53.5106C51.7412 54.5376 51.964 55.2885 52.4152 55.7524C52.8607 56.2217 53.5848 56.4536 54.5706 56.4536C55.5564 56.4536 56.2805 56.2217 56.726 55.7524C57.1716 55.283 57.3999 54.5376 57.3999 53.5106C57.3999 52.4835 57.1772 51.7326 56.726 51.2687C56.2805 50.7994 55.5564 50.5675 54.5706 50.5675C53.5848 50.5675 52.8607 50.7994 52.4152 51.2687Z" fill="#2E2B28"></path><path d="M72.349 58.4193H66.4062V48.6018H72.065C73.2067 48.6018 74.031 48.8116 74.549 49.2423C75.0614 49.6675 75.3176 50.3411 75.3176 51.2688C75.3176 52.1964 75.028 52.9253 74.4432 53.3449C75.2173 53.748 75.6016 54.5265 75.6016 55.6861C75.6016 56.6413 75.3454 57.3316 74.833 57.7678C74.3206 58.204 73.4908 58.4193 72.349 58.4193ZM68.6731 52.4614H71.9981C72.4103 52.4614 72.7166 52.3897 72.9115 52.2516C73.1065 52.1136 73.2011 51.8872 73.2011 51.578C73.2011 51.2688 73.112 51.0589 72.9338 50.9209C72.7556 50.7828 72.466 50.7111 72.0705 50.7111H68.6731V52.4614ZM68.6731 56.3156H72.349C72.7444 56.3156 73.0341 56.2383 73.2123 56.0837C73.3905 55.929 73.4796 55.6861 73.4796 55.3603C73.4796 55.0345 73.3905 54.7971 73.2123 54.648C73.0341 54.4989 72.7444 54.4216 72.349 54.4216H68.6731V56.3156Z" fill="#2E2B28"></path><path d="M83.2931 49.6619C84.1007 48.8613 85.3928 48.4637 87.1751 48.4637C88.9573 48.4637 90.2495 48.8613 91.0571 49.6619C91.8647 50.4626 92.2657 51.7436 92.2657 53.5106C92.2657 55.2775 91.8647 56.5585 91.0571 57.3592C90.2495 58.1598 88.9573 58.5574 87.1751 58.5574C85.3928 58.5574 84.0951 58.1598 83.2931 57.3592C82.4855 56.5585 82.0845 55.2775 82.0845 53.5106C82.0845 51.7436 82.4855 50.4626 83.2931 49.6619ZM85.0196 51.2687C84.5741 51.7381 84.3457 52.4835 84.3457 53.5106C84.3457 54.5376 84.5685 55.2885 85.0196 55.7524C85.4652 56.2217 86.1893 56.4536 87.1751 56.4536C88.1609 56.4536 88.8849 56.2217 89.3305 55.7524C89.7761 55.283 90.0044 54.5376 90.0044 53.5106C90.0044 52.4835 89.7816 51.7326 89.3305 51.2687C88.8849 50.7994 88.1609 50.5675 87.1751 50.5675C86.1893 50.5675 85.4652 50.7994 85.0196 51.2687Z" fill="#2E2B28"></path><path d="M246.086 52.5608V48.6018H247.551C247.78 48.6018 247.986 48.6294 248.169 48.6791C248.353 48.7288 248.509 48.8061 248.637 48.9165C248.765 49.027 248.866 49.165 248.932 49.3362C248.999 49.5073 249.038 49.7061 249.038 49.9436C249.038 50.1589 249.005 50.3522 248.932 50.5289C248.86 50.7 248.76 50.8436 248.626 50.9651C248.492 51.081 248.337 51.1749 248.147 51.2356C247.958 51.2964 247.752 51.3295 247.523 51.3295H246.738V52.5663H246.086V52.5608ZM246.738 50.7442H247.49C247.612 50.7442 247.729 50.7276 247.835 50.7C247.941 50.6724 248.036 50.6227 248.114 50.562C248.192 50.5012 248.253 50.4184 248.303 50.319C248.353 50.2196 248.376 50.1037 248.381 49.9712C248.381 49.6896 248.309 49.4908 248.164 49.3638C248.019 49.2423 247.807 49.1816 247.529 49.1816H246.738V50.7442Z" fill="#2E2B28"></path><path d="M251.277 48.6018L252.781 52.5608H252.063L251.767 51.7602H249.952L249.651 52.5608H248.938L250.453 48.6018H251.272H251.277ZM251.567 51.1804L250.865 49.2478L250.158 51.1804H251.567Z" fill="#2E2B28"></path><path d="M254.569 52.5995C254.452 52.5995 254.307 52.5884 254.129 52.5663C253.951 52.5443 253.784 52.4946 253.611 52.4117C253.439 52.3289 253.294 52.213 253.166 52.0639C253.038 51.9148 252.965 51.705 252.943 51.4455H253.583C253.6 51.578 253.645 51.6774 253.728 51.7547C253.812 51.832 253.901 51.8872 253.996 51.9258C254.096 51.9645 254.196 51.9866 254.307 51.9976C254.419 52.0087 254.513 52.0142 254.597 52.0142C254.692 52.0142 254.792 52.0031 254.892 51.9866C254.998 51.97 255.093 51.9424 255.176 51.8927C255.26 51.8485 255.332 51.7823 255.388 51.6994C255.444 51.6166 255.471 51.5117 255.471 51.3792C255.471 51.2412 255.438 51.1362 255.382 51.0589C255.321 50.9816 255.249 50.9264 255.16 50.8933C255.07 50.8546 254.976 50.8381 254.87 50.827C254.764 50.8215 254.669 50.816 254.58 50.816H254.073V50.2638H254.525C254.614 50.2638 254.708 50.2472 254.803 50.2307C254.898 50.2141 254.981 50.181 255.059 50.1368C255.137 50.0926 255.199 50.0374 255.249 49.9656C255.299 49.8939 255.327 49.8 255.332 49.6896C255.332 49.5736 255.304 49.4797 255.254 49.408C255.204 49.3362 255.137 49.281 255.059 49.2368C254.981 49.1981 254.898 49.1705 254.803 49.154C254.708 49.1374 254.614 49.1319 254.525 49.1319C254.424 49.1319 254.324 49.1429 254.224 49.165C254.124 49.1871 254.035 49.2202 253.957 49.2644C253.879 49.3086 253.812 49.3638 253.767 49.43C253.723 49.4963 253.689 49.5791 253.689 49.673H253.049C253.049 49.4797 253.088 49.3141 253.171 49.1705C253.249 49.0325 253.361 48.9165 253.5 48.8227C253.639 48.7288 253.795 48.6625 253.979 48.6184C254.163 48.5742 254.352 48.5521 254.547 48.5521C254.725 48.5521 254.898 48.5687 255.065 48.6018C255.232 48.6349 255.388 48.6901 255.522 48.7674C255.655 48.8447 255.761 48.9497 255.845 49.0822C255.928 49.2147 255.967 49.3803 255.967 49.5846C255.967 49.6564 255.962 49.7393 255.939 49.8166C255.923 49.8994 255.895 49.9767 255.856 50.0485C255.817 50.1202 255.761 50.192 255.694 50.2638C255.622 50.3301 255.538 50.3908 255.438 50.446C255.666 50.5012 255.839 50.6172 255.956 50.7829C256.073 50.954 256.134 51.1528 256.134 51.3847C256.134 51.6166 256.09 51.7988 256.001 51.9534C255.911 52.1081 255.795 52.235 255.65 52.3289C255.505 52.4228 255.338 52.4946 255.148 52.5332C254.959 52.5774 254.77 52.594 254.575 52.594L254.569 52.5995Z" fill="#2E2B28"></path><path d="M256.83 52.5608V48.6018H258.418C258.585 48.6018 258.752 48.6183 258.908 48.646C259.064 48.6736 259.203 48.7288 259.32 48.8006C259.437 48.8779 259.532 48.9773 259.604 49.1043C259.676 49.2313 259.71 49.3969 259.71 49.5902C259.71 49.7834 259.671 49.9491 259.593 50.0982C259.515 50.2472 259.381 50.3632 259.203 50.4515C259.448 50.5123 259.626 50.6227 259.738 50.7884C259.849 50.954 259.905 51.1583 259.905 51.3958C259.905 51.6332 259.855 51.8485 259.754 51.9976C259.654 52.1467 259.52 52.2682 259.364 52.3455C259.208 52.4228 259.03 52.4835 258.841 52.5111C258.652 52.5387 258.468 52.5553 258.295 52.5553H256.825L256.83 52.5608ZM257.487 49.1816V50.2693H258.251C258.345 50.2693 258.44 50.2638 258.54 50.2472C258.64 50.2307 258.73 50.2031 258.807 50.1589C258.885 50.1147 258.952 50.0595 259.002 49.9822C259.053 49.9104 259.08 49.811 259.08 49.6951C259.08 49.5791 259.058 49.4853 259.019 49.419C258.975 49.3527 258.924 49.2975 258.858 49.2644C258.791 49.2257 258.713 49.2092 258.624 49.1981C258.535 49.1871 258.445 49.1816 258.351 49.1816H257.493H257.487ZM257.487 51.9811H258.29C258.39 51.9811 258.501 51.9755 258.613 51.959C258.73 51.9479 258.83 51.9148 258.924 51.8761C259.019 51.832 259.097 51.7712 259.158 51.6939C259.22 51.6166 259.253 51.5117 259.253 51.3737C259.253 51.2632 259.231 51.1694 259.181 51.0976C259.131 51.0258 259.075 50.9706 258.997 50.9319C258.919 50.8933 258.835 50.8657 258.746 50.8491C258.657 50.8325 258.562 50.827 258.468 50.827H257.733C257.649 50.827 257.565 50.827 257.482 50.827V51.9755L257.487 51.9811Z" fill="#2E2B28"></path><path d="M260.623 52.5608V48.6018H261.28V51.5062L263.33 48.6018H263.92V52.5608H263.263V49.684L261.213 52.5608H260.629H260.623Z" fill="#2E2B28"></path><path d="M264.84 52.5608V48.6018H266.427C266.594 48.6018 266.761 48.6183 266.917 48.646C267.073 48.6736 267.212 48.7288 267.329 48.8006C267.446 48.8779 267.541 48.9773 267.613 49.1043C267.686 49.2313 267.719 49.3969 267.719 49.5902C267.719 49.7834 267.68 49.9491 267.602 50.0982C267.524 50.2472 267.39 50.3632 267.212 50.4515C267.457 50.5123 267.635 50.6227 267.747 50.7884C267.858 50.954 267.914 51.1583 267.914 51.3958C267.914 51.6332 267.864 51.8485 267.764 51.9976C267.663 52.1467 267.53 52.2682 267.374 52.3455C267.218 52.4228 267.04 52.4835 266.85 52.5111C266.661 52.5387 266.477 52.5553 266.304 52.5553H264.834L264.84 52.5608ZM265.497 49.1816V50.2693H266.26C266.354 50.2693 266.449 50.2638 266.549 50.2472C266.65 50.2307 266.739 50.2031 266.817 50.1589C266.895 50.1147 266.962 50.0595 267.012 49.9822C267.062 49.9104 267.09 49.811 267.09 49.6951C267.09 49.5791 267.067 49.4853 267.028 49.419C266.984 49.3527 266.934 49.2975 266.867 49.2644C266.8 49.2257 266.722 49.2092 266.633 49.1981C266.544 49.1871 266.455 49.1816 266.36 49.1816H265.502H265.497ZM265.497 51.9811H266.299C266.399 51.9811 266.51 51.9755 266.622 51.959C266.739 51.9479 266.839 51.9148 266.934 51.8761C267.028 51.832 267.106 51.7712 267.168 51.6939C267.229 51.6166 267.262 51.5117 267.262 51.3737C267.262 51.2632 267.24 51.1694 267.19 51.0976C267.14 51.0258 267.084 50.9706 267.006 50.9319C266.928 50.8933 266.845 50.8657 266.755 50.8491C266.666 50.8325 266.572 50.827 266.477 50.827H265.742C265.658 50.827 265.575 50.827 265.491 50.827V51.9755L265.497 51.9811Z" fill="#2E2B28"></path><path d="M270.526 48.6018L272.03 52.5608H271.311L271.016 51.7602H269.2L268.899 52.5608H268.187L269.701 48.6018H270.52H270.526ZM270.815 51.1804L270.114 49.2478L269.406 51.1804H270.815Z" fill="#2E2B28"></path><path d="M272.52 52.5608V48.6018H275.293V49.1871H273.177V50.3135H275.054V50.9043H273.177V51.9921H275.293V52.5663H272.52V52.5608Z" fill="#2E2B28"></path><path d="M276.001 52.5608V48.6018H276.825L278.017 50.6282L279.198 48.6018H280V52.5608H279.348V49.4742L278.145 51.5283H277.85L276.647 49.4742V52.5608H275.995H276.001Z" fill="#2E2B28"></path><path d="M226.66 59.7611V55.802H227.317V58.7065L229.366 55.802H229.957V59.7611H229.3V56.8843L227.25 59.7611H226.665H226.66Z" fill="#2E2B28"></path><path d="M231.539 57.5193H233.454V55.802H234.112V59.7611H233.454V58.1046H231.539V59.7611H230.881V55.802H231.539V57.5193Z" fill="#2E2B28"></path><path d="M235.688 57.5193H237.604V55.802H238.261V59.7611H237.604V58.1046H235.688V59.7611H235.031V55.802H235.688V57.5193Z" fill="#2E2B28"></path><path d="M240.896 59.7997C240.584 59.7997 240.305 59.75 240.066 59.6451C239.826 59.5402 239.626 59.4022 239.464 59.22C239.303 59.0378 239.18 58.8279 239.097 58.5795C239.013 58.331 238.969 58.0659 238.969 57.7733C238.969 57.4806 239.013 57.2046 239.097 56.9561C239.186 56.7076 239.308 56.4923 239.476 56.3156C239.637 56.1334 239.843 55.9953 240.083 55.8959C240.322 55.7965 240.595 55.7468 240.907 55.7468C241.219 55.7468 241.492 55.7965 241.731 55.8959C241.971 55.9953 242.171 56.1334 242.338 56.3156C242.5 56.4923 242.628 56.7076 242.712 56.9561C242.795 57.2046 242.84 57.4751 242.84 57.7733C242.84 58.0715 242.795 58.3365 242.712 58.585C242.628 58.8334 242.5 59.0488 242.338 59.2255C242.177 59.4022 241.971 59.5457 241.731 59.6507C241.492 59.7556 241.213 59.8053 240.907 59.8053L240.896 59.7997ZM240.896 56.3321C240.679 56.3321 240.495 56.3708 240.339 56.4481C240.183 56.5254 240.049 56.6303 239.943 56.7628C239.838 56.8953 239.76 57.0444 239.71 57.2211C239.659 57.3978 239.632 57.58 239.632 57.7678C239.632 57.9555 239.659 58.1432 239.71 58.3144C239.76 58.4856 239.838 58.6402 239.943 58.7782C240.049 58.9108 240.177 59.0212 240.333 59.0985C240.489 59.1758 240.679 59.2144 240.89 59.2144C241.102 59.2144 241.286 59.1758 241.442 59.0985C241.598 59.0212 241.731 58.9163 241.832 58.7893C241.937 58.6568 242.015 58.5077 242.065 58.331C242.116 58.1598 242.143 57.9721 242.143 57.7733C242.143 57.5745 242.116 57.3978 242.065 57.2211C242.015 57.0499 241.937 56.8953 241.832 56.7628C241.726 56.6303 241.598 56.5254 241.442 56.4481C241.286 56.3708 241.102 56.3321 240.885 56.3321H240.896Z" fill="#2E2B28"></path><path d="M243.525 59.7611V55.802H245.112C245.279 55.802 245.446 55.8186 245.602 55.8462C245.758 55.8738 245.897 55.929 246.014 56.0008C246.131 56.0781 246.226 56.1775 246.298 56.3045C246.371 56.4315 246.404 56.5972 246.404 56.7904C246.404 56.9837 246.365 57.1493 246.287 57.2984C246.209 57.4475 246.075 57.5635 245.897 57.6518C246.142 57.7126 246.321 57.823 246.432 57.9886C246.543 58.1543 246.599 58.3586 246.599 58.596C246.599 58.8335 246.549 59.0488 246.449 59.1979C246.348 59.347 246.215 59.4684 246.059 59.5457C245.903 59.623 245.725 59.6838 245.535 59.7114C245.346 59.739 245.162 59.7556 244.989 59.7556H243.519L243.525 59.7611ZM244.182 56.3818V57.4696H244.945C245.04 57.4696 245.134 57.4641 245.234 57.4475C245.335 57.4309 245.424 57.4033 245.502 57.3592C245.58 57.315 245.647 57.2598 245.697 57.1825C245.747 57.1107 245.775 57.0113 245.775 56.8953C245.775 56.7794 245.752 56.6855 245.713 56.6193C245.669 56.553 245.619 56.4978 245.552 56.4647C245.485 56.426 245.407 56.4094 245.318 56.3984C245.229 56.3873 245.14 56.3818 245.045 56.3818H244.187H244.182ZM244.182 59.1813H244.984C245.084 59.1813 245.195 59.1758 245.307 59.1592C245.424 59.1482 245.524 59.1151 245.619 59.0764C245.713 59.0322 245.791 58.9715 245.853 58.8942C245.914 58.8169 245.947 58.712 245.947 58.5739C245.947 58.4635 245.925 58.3696 245.875 58.2978C245.825 58.2261 245.769 58.1708 245.691 58.1322C245.613 58.0935 245.53 58.0659 245.441 58.0494C245.351 58.0328 245.257 58.0273 245.162 58.0273H244.427C244.343 58.0273 244.26 58.0273 244.176 58.0273V59.1758L244.182 59.1813Z" fill="#2E2B28"></path><path d="M249.217 55.802L250.72 59.7611H250.002L249.707 58.9604H247.891L247.59 59.7611H246.877L248.392 55.802H249.211H249.217ZM249.506 58.3807L248.805 56.4481L248.097 58.3807H249.506Z" fill="#2E2B28"></path><path d="M251.21 59.7611V55.802H251.868V59.1868H253.706V55.802H254.357V59.1868H254.836V60.8102H254.185V59.7611H251.21Z" fill="#2E2B28"></path><path d="M255.376 59.7611V55.802H256.034V58.7065L258.083 55.802H258.674V59.7611H258.016V56.8843L255.967 59.7611H255.382H255.376Z" fill="#2E2B28"></path><path d="M261.303 59.7997C260.991 59.7997 260.712 59.75 260.473 59.6451C260.233 59.5402 260.033 59.4022 259.871 59.22C259.71 59.0378 259.587 58.8279 259.504 58.5795C259.42 58.331 259.375 58.0659 259.375 57.7733C259.375 57.4806 259.42 57.2046 259.504 56.9561C259.593 56.7076 259.715 56.4923 259.882 56.3156C260.044 56.1334 260.25 55.9953 260.489 55.8959C260.729 55.7965 261.002 55.7468 261.314 55.7468C261.626 55.7468 261.899 55.7965 262.138 55.8959C262.377 55.9953 262.578 56.1334 262.745 56.3156C262.907 56.4923 263.035 56.7076 263.118 56.9561C263.202 57.2046 263.246 57.4751 263.246 57.7733C263.246 58.0715 263.202 58.3365 263.118 58.585C263.035 58.8334 262.907 59.0488 262.745 59.2255C262.584 59.4022 262.377 59.5457 262.138 59.6507C261.899 59.7556 261.62 59.8053 261.314 59.8053L261.303 59.7997ZM261.303 56.3321C261.085 56.3321 260.902 56.3708 260.746 56.4481C260.59 56.5254 260.456 56.6303 260.35 56.7628C260.244 56.8953 260.166 57.0444 260.116 57.2211C260.066 57.3978 260.038 57.58 260.038 57.7678C260.038 57.9555 260.066 58.1432 260.116 58.3144C260.166 58.4856 260.244 58.6402 260.35 58.7782C260.456 58.9108 260.584 59.0212 260.74 59.0985C260.896 59.1758 261.085 59.2144 261.297 59.2144C261.509 59.2144 261.692 59.1758 261.848 59.0985C262.004 59.0212 262.138 58.9163 262.238 58.7893C262.344 58.6568 262.422 58.5077 262.472 58.331C262.522 58.1598 262.55 57.9721 262.55 57.7733C262.55 57.5745 262.522 57.3978 262.472 57.2211C262.422 57.0499 262.344 56.8953 262.238 56.7628C262.132 56.6303 262.004 56.5254 261.848 56.4481C261.692 56.3708 261.509 56.3321 261.291 56.3321H261.303Z" fill="#2E2B28"></path><path d="M264.594 57.5193H266.51V55.802H267.167V59.7611H266.51V58.1046H264.594V59.7611H263.937V55.802H264.594V57.5193Z" fill="#2E2B28"></path><path d="M268.749 57.5193H270.665V55.802H271.322V59.7611H270.665V58.1046H268.749V59.7611H268.092V55.802H268.749V57.5193Z" fill="#2E2B28"></path><path d="M272.247 55.802H272.899V57.3316H273.645C273.851 57.3316 274.046 57.3481 274.219 57.3868C274.397 57.4254 274.547 57.4917 274.681 57.5856C274.809 57.6794 274.915 57.8009 274.987 57.95C275.065 58.0991 275.099 58.2813 275.099 58.5021C275.099 58.7451 275.054 58.9494 274.976 59.1095C274.893 59.2697 274.781 59.4022 274.642 59.496C274.503 59.5954 274.336 59.6617 274.141 59.7059C273.946 59.75 273.74 59.7666 273.523 59.7666H272.253V55.8076L272.247 55.802ZM272.899 59.1868H273.478C273.6 59.1868 273.717 59.1813 273.834 59.1648C273.951 59.1482 274.057 59.1206 274.146 59.0709C274.235 59.0212 274.308 58.9549 274.369 58.8666C274.425 58.7782 274.453 58.6623 274.453 58.5187C274.453 58.3752 274.425 58.2702 274.375 58.1929C274.325 58.1156 274.258 58.0549 274.169 58.0107C274.085 57.9721 273.985 57.9445 273.879 57.9334C273.768 57.9224 273.662 57.9169 273.545 57.9169H272.893V59.1868H272.899ZM275.65 59.7611V55.802H276.307V59.7611H275.65Z" fill="#2E2B28"></path><path d="M277.226 59.7611V55.802H280V56.3873H277.883V57.5138H279.76V58.1046H277.883V59.1924H280V59.7666H277.226V59.7611Z" fill="#2E2B28"></path><path d="M208.759 66.9614H208.102V63.5821H206.832V62.9968H210.023V63.5821H208.759V66.9614Z" fill="#2E2B28"></path><path d="M210.536 66.9614V63.0023H213.309V63.5876H211.193V64.714H213.07V65.3049H211.193V66.3926H213.309V66.9669H210.536V66.9614Z" fill="#2E2B28"></path><path d="M216.25 63.0023H217.019L215.738 64.9736L217.058 66.9614H216.278L215.326 65.4816L214.351 66.9614H213.61L214.936 64.9791L213.649 63.0023H214.429L215.343 64.4766L216.25 63.0023Z" fill="#2E2B28"></path><path d="M218.228 64.7251H220.143V63.0078H220.801V66.9669H220.143V65.3104H218.228V66.9669H217.57V63.0078H218.228V64.7251Z" fill="#2E2B28"></path><path d="M223.43 67C223.118 67 222.839 66.9503 222.6 66.8454C222.36 66.7405 222.16 66.6024 221.998 66.4202C221.837 66.238 221.714 66.0282 221.631 65.7797C221.547 65.5312 221.502 65.2662 221.502 64.9736C221.502 64.6809 221.547 64.4048 221.631 64.1563C221.72 63.9079 221.842 63.6925 222.009 63.5158C222.171 63.3336 222.377 63.1956 222.616 63.0962C222.856 62.9968 223.129 62.9471 223.441 62.9471C223.753 62.9471 224.025 62.9968 224.265 63.0962C224.504 63.1956 224.705 63.3336 224.872 63.5158C225.034 63.6925 225.162 63.9079 225.245 64.1563C225.329 64.4048 225.373 64.6754 225.373 64.9736C225.373 65.2717 225.329 65.5368 225.245 65.7852C225.162 66.0337 225.034 66.2491 224.872 66.4258C224.711 66.6024 224.504 66.746 224.265 66.8509C224.025 66.9558 223.747 67.0055 223.441 67.0055L223.43 67ZM223.43 63.5324C223.212 63.5324 223.029 63.571 222.873 63.6483C222.717 63.7257 222.583 63.8306 222.477 63.9631C222.371 64.0956 222.293 64.2447 222.243 64.4214C222.193 64.5981 222.165 64.7803 222.165 64.968C222.165 65.1558 222.193 65.3435 222.243 65.5147C222.293 65.6858 222.371 65.8405 222.477 65.9785C222.583 66.111 222.711 66.2215 222.867 66.2988C223.023 66.3761 223.212 66.4147 223.424 66.4147C223.636 66.4147 223.819 66.3761 223.975 66.2988C224.131 66.2215 224.265 66.1165 224.365 65.9895C224.471 65.857 224.549 65.7079 224.599 65.5312C224.649 65.3601 224.677 65.1723 224.677 64.9736C224.677 64.7748 224.649 64.5981 224.599 64.4214C224.549 64.2502 224.471 64.0956 224.365 63.9631C224.259 63.8306 224.131 63.7257 223.975 63.6483C223.819 63.571 223.636 63.5324 223.418 63.5324H223.43Z" fill="#2E2B28"></path><path d="M228.375 66.9614V63.5821H226.916C226.916 63.698 226.916 63.803 226.916 63.8968C226.916 63.9907 226.916 64.1011 226.916 64.2281C226.916 64.3551 226.916 64.4987 226.905 64.6588C226.905 64.8189 226.894 65.0067 226.888 65.2165C226.888 65.3159 226.888 65.4208 226.882 65.5257C226.877 65.6306 226.866 65.7355 226.855 65.8405C226.843 65.9454 226.827 66.0448 226.804 66.1386C226.782 66.2325 226.754 66.3153 226.715 66.3926C226.615 66.5969 226.476 66.746 226.303 66.8399C226.13 66.9337 225.897 66.9779 225.607 66.9779V66.3816C225.752 66.3816 225.863 66.3374 225.947 66.2601C226.03 66.1828 226.097 66.0724 226.142 65.9398C226.186 65.8073 226.214 65.6582 226.225 65.4871C226.236 65.3159 226.247 65.1447 226.259 64.968C226.259 64.7306 226.264 64.5153 226.27 64.333C226.27 64.1453 226.275 63.9796 226.281 63.825C226.281 63.6704 226.286 63.5269 226.286 63.3944C226.286 63.2618 226.286 63.1293 226.286 62.9913H229.032V66.9503H228.375V66.9614Z" fill="#2E2B28"></path><path d="M231.661 67C231.35 67 231.071 66.9503 230.832 66.8454C230.592 66.7405 230.392 66.6024 230.23 66.4202C230.069 66.238 229.946 66.0282 229.862 65.7797C229.779 65.5312 229.734 65.2662 229.734 64.9736C229.734 64.6809 229.779 64.4048 229.862 64.1563C229.952 63.9079 230.074 63.6925 230.241 63.5158C230.403 63.3336 230.609 63.1956 230.848 63.0962C231.088 62.9968 231.361 62.9471 231.673 62.9471C231.984 62.9471 232.257 62.9968 232.497 63.0962C232.736 63.1956 232.937 63.3336 233.104 63.5158C233.265 63.6925 233.394 63.9079 233.477 64.1563C233.561 64.4048 233.605 64.6754 233.605 64.9736C233.605 65.2717 233.561 65.5368 233.477 65.7852C233.394 66.0337 233.265 66.2491 233.104 66.4258C232.942 66.6024 232.736 66.746 232.497 66.8509C232.257 66.9558 231.979 67.0055 231.673 67.0055L231.661 67ZM231.661 63.5324C231.444 63.5324 231.26 63.571 231.104 63.6483C230.949 63.7257 230.815 63.8306 230.709 63.9631C230.603 64.0956 230.525 64.2447 230.475 64.4214C230.425 64.5981 230.397 64.7803 230.397 64.968C230.397 65.1558 230.425 65.3435 230.475 65.5147C230.525 65.6858 230.603 65.8405 230.709 65.9785C230.815 66.111 230.943 66.2215 231.099 66.2988C231.255 66.3761 231.444 66.4147 231.656 66.4147C231.868 66.4147 232.051 66.3761 232.207 66.2988C232.363 66.2215 232.497 66.1165 232.597 65.9895C232.703 65.857 232.781 65.7079 232.831 65.5312C232.881 65.3601 232.909 65.1723 232.909 64.9736C232.909 64.7748 232.881 64.5981 232.831 64.4214C232.781 64.2502 232.703 64.0956 232.597 63.9631C232.491 63.8306 232.363 63.7257 232.207 63.6483C232.051 63.571 231.868 63.5324 231.65 63.5324H231.661Z" fill="#2E2B28"></path><path d="M234.301 66.9614V63.0023H236.975V63.5876H234.958V66.9669H234.301V66.9614Z" fill="#2E2B28"></path><path d="M237.571 66.9614V63.0023H238.228V65.9067L240.278 63.0023H240.868V66.9614H240.211V64.0846L238.161 66.9614H237.576H237.571Z" fill="#2E2B28"></path><path d="M241.792 66.9614V63.0023H242.45V65.9067L244.499 63.0023H245.09V66.9614H244.432V64.0846L242.383 66.9614H241.798H241.792Z" fill="#2E2B28"></path><path d="M247.54 66.9614V63.0023H248.197V65.9067L250.247 63.0023H250.837V66.9614H250.18V64.0846L248.13 66.9614H247.546H247.54Z" fill="#2E2B28"></path><path d="M256.529 66.9614H255.872V63.5821H253.939V66.9614H253.282V63.0023H256.524V66.9614H256.529Z" fill="#2E2B28"></path><path d="M257.454 66.9614V63.0023H258.919C259.147 63.0023 259.353 63.0299 259.537 63.0796C259.721 63.1293 259.877 63.2066 260.005 63.3171C260.133 63.4275 260.233 63.5655 260.3 63.7367C260.367 63.9079 260.406 64.1067 260.406 64.3441C260.406 64.5594 260.373 64.7527 260.3 64.9294C260.228 65.1061 260.128 65.2441 259.994 65.3656C259.86 65.4816 259.704 65.5754 259.515 65.6362C259.325 65.6969 259.119 65.73 258.891 65.73H258.106V66.9669H257.454V66.9614ZM258.106 65.1447H258.858C258.98 65.1447 259.097 65.1282 259.203 65.1006C259.309 65.0729 259.403 65.0233 259.481 64.9625C259.559 64.9018 259.621 64.819 259.671 64.7196C259.721 64.6202 259.743 64.5042 259.749 64.3717C259.749 64.0901 259.676 63.8913 259.532 63.7643C259.387 63.6428 259.175 63.5821 258.897 63.5821H258.106V65.1447Z" fill="#2E2B28"></path><path d="M262.851 67C262.539 67 262.261 66.9503 262.021 66.8454C261.782 66.7405 261.581 66.6024 261.42 66.4202C261.258 66.238 261.135 66.0282 261.052 65.7797C260.968 65.5312 260.924 65.2662 260.924 64.9736C260.924 64.6809 260.968 64.4048 261.052 64.1563C261.141 63.9079 261.264 63.6925 261.431 63.5158C261.592 63.3336 261.798 63.1956 262.038 63.0962C262.277 62.9968 262.55 62.9471 262.862 62.9471C263.174 62.9471 263.447 62.9968 263.686 63.0962C263.926 63.1956 264.126 63.3336 264.293 63.5158C264.455 63.6925 264.583 63.9079 264.667 64.1563C264.75 64.4048 264.795 64.6754 264.795 64.9736C264.795 65.2717 264.75 65.5368 264.667 65.7852C264.583 66.0337 264.455 66.2491 264.293 66.4258C264.132 66.6024 263.926 66.746 263.686 66.8509C263.447 66.9558 263.168 67.0055 262.862 67.0055L262.851 67ZM262.851 63.5324C262.634 63.5324 262.45 63.571 262.294 63.6483C262.138 63.7257 262.004 63.8306 261.899 63.9631C261.793 64.0956 261.715 64.2447 261.665 64.4214C261.614 64.5981 261.587 64.7803 261.587 64.968C261.587 65.1558 261.614 65.3435 261.665 65.5147C261.715 65.6858 261.793 65.8405 261.899 65.9785C262.004 66.111 262.132 66.2215 262.288 66.2988C262.444 66.3761 262.634 66.4147 262.845 66.4147C263.057 66.4147 263.241 66.3761 263.397 66.2988C263.553 66.2215 263.686 66.1165 263.787 65.9895C263.892 65.857 263.97 65.7079 264.021 65.5312C264.071 65.3601 264.098 65.1723 264.098 64.9736C264.098 64.7748 264.071 64.5981 264.021 64.4214C263.97 64.2502 263.892 64.0956 263.787 63.9631C263.681 63.8306 263.553 63.7257 263.397 63.6483C263.241 63.571 263.057 63.5324 262.84 63.5324H262.851Z" fill="#2E2B28"></path><path d="M265.485 66.9614V63.0023H268.259V63.5876H266.143V64.714H268.02V65.3049H266.143V66.3926H268.259V66.9669H265.485V66.9614Z" fill="#2E2B28"></path><path d="M269.624 66.9614H268.966V63.0023H269.624V64.7306H270.136L271.367 63.0023H272.119L270.693 64.9239L272.135 66.9614H271.372L270.197 65.3104H269.624V66.9614Z" fill="#2E2B28"></path><path d="M274.168 66.9614H273.511V63.5821H272.241V62.9968H275.433V63.5821H274.168V66.9614Z" fill="#2E2B28"></path><path d="M275.945 63.0023H276.597V64.5318H277.343C277.549 64.5318 277.744 64.5484 277.917 64.587C278.095 64.6257 278.246 64.692 278.379 64.7858C278.507 64.8797 278.613 65.0012 278.686 65.1503C278.764 65.2993 278.797 65.4816 278.797 65.7024C278.797 65.9454 278.752 66.1497 278.674 66.3098C278.591 66.4699 278.479 66.6025 278.34 66.6963C278.201 66.7957 278.034 66.862 277.839 66.9061C277.644 66.9503 277.438 66.9669 277.221 66.9669H275.951V63.0078L275.945 63.0023ZM276.597 66.3871H277.176C277.299 66.3871 277.416 66.3816 277.533 66.365C277.65 66.3485 277.755 66.3208 277.845 66.2712C277.934 66.2215 278.006 66.1552 278.067 66.0669C278.123 65.9785 278.151 65.8625 278.151 65.719C278.151 65.5754 278.123 65.4705 278.073 65.3932C278.023 65.3159 277.956 65.2552 277.867 65.211C277.783 65.1723 277.683 65.1447 277.577 65.1337C277.466 65.1226 277.36 65.1171 277.243 65.1171H276.591V66.3871H276.597ZM279.348 66.9614V63.0023H280.006V66.9614H279.348Z" fill="#2E2B28"></path><path d="M25.0356 19.3148H15.4614V39.3916H9.5688V19.3148H0.000244141V13.8428H25.0356V19.3148Z" fill="#2E2B28"></path><path d="M49.8087 39.3916H28.1653V13.8428H49.8143V19.3148H34.0579V24.0579H47.9763V29.1655H34.0579V33.9086H49.8143V39.3806L49.8087 39.3916Z" fill="#2E2B28"></path><path d="M59.2323 39.3916H52.0142L62.1731 26.3605L52.4542 13.8428H59.5944L65.7432 21.7278L71.892 13.8428H79.0322L69.3133 26.3605L79.4722 39.3916H72.254L65.7376 30.9987L59.2212 39.3916H59.2323Z" fill="#2E2B28"></path><path d="M82.2461 39.3916V13.8428H88.1387V23.8812H102.681V13.8428H108.574V39.3916H102.681V29.3532H88.1387V39.3916H82.2461Z" fill="#2E2B28"></path><path d="M168.513 39.3916V13.8428H194.284V39.3916H188.391V19.3148H174.4V39.3916H168.508H168.513Z" fill="#2E2B28"></path><path d="M203.301 39.3916H197.041L208.453 13.8428H215.042L226.454 39.3916H220.194L218.317 35.1234H205.173L203.296 39.3916H203.301ZM211.767 20.0492L207.573 29.6459H215.966L211.767 20.0492Z" fill="#2E2B28"></path><path d="M229.222 39.3916V13.8428H242.478C245.691 13.8428 248.031 14.5386 249.49 15.9245C250.949 17.3105 251.679 19.5357 251.679 22.6057C251.679 25.6758 250.949 27.8955 249.49 29.287C248.031 30.6729 245.691 31.3686 242.478 31.3686H235.115V39.3972H229.222V39.3916ZM235.115 25.8856H242.11C243.386 25.8856 244.321 25.6261 244.906 25.1015C245.497 24.577 245.792 23.7432 245.792 22.6002C245.792 21.4572 245.497 20.6235 244.906 20.0989C244.316 19.5743 243.386 19.3148 242.11 19.3148H235.115V25.8856Z" fill="#2E2B28"></path><path d="M254.993 39.3916V13.8428H260.885V23.5499H264.383L272.002 13.8428H279.142L269.351 26.2169L279.989 39.3916H272.665L264.416 29.0274H260.885V39.3916H254.993Z" fill="#2E2B28"></path><path d="M159.402 52.8479H158.433V48.6404H160.738C161.268 48.6404 161.652 48.7398 161.891 48.9441C162.131 49.1484 162.253 49.4742 162.253 49.9215C162.253 50.435 162.092 50.7939 161.769 50.9982C162.053 51.1528 162.192 51.4234 162.192 51.8209V52.8479H161.223V51.8706C161.223 51.7326 161.178 51.6277 161.089 51.5614C161 51.4951 160.861 51.4675 160.666 51.4675H159.407V52.8479H159.402ZM159.402 50.562H160.677C160.889 50.562 161.039 50.5233 161.139 50.4405C161.234 50.3577 161.284 50.2251 161.284 50.0485C161.284 49.8718 161.234 49.7448 161.139 49.6619C161.045 49.5846 160.889 49.5405 160.677 49.5405H159.402V50.562Z" fill="#2E2B28"></path><path d="M128.307 21.9321L117.602 15.8086V20.1652C117.602 21.4462 118.293 22.6278 119.412 23.2739L123.818 25.7973C124.308 26.0789 124.308 26.7856 123.818 27.0673L119.412 29.5907C118.293 30.2312 117.602 31.4128 117.602 32.6994V37.056L128.307 30.9324C129.153 30.4465 129.677 29.5465 129.677 28.5747V24.3009C129.677 23.3291 129.153 22.429 128.307 21.9431V21.9321Z" fill="#2E2B28"></path><path d="M137.335 15.422V3.16944L133.531 5.3505C132.411 5.99102 131.721 7.17266 131.721 8.45921V13.506C131.721 14.0692 131.103 14.4226 130.613 14.141L126.207 11.6176C125.087 10.9771 123.706 10.9771 122.587 11.6176L118.783 13.7987L129.487 19.9222C130.334 20.4081 131.381 20.4081 132.233 19.9222L135.97 17.7853C136.817 17.2994 137.341 16.3994 137.341 15.4276L137.335 15.422Z" fill="#2E2B28"></path><path d="M147.533 19.9167L158.237 13.7931L154.433 11.6121C153.314 10.9716 151.933 10.9716 150.813 11.6121L146.408 14.1355C145.917 14.4171 145.299 14.0637 145.299 13.5005V8.45369C145.299 7.17266 144.609 5.99102 143.489 5.34498L139.685 3.16392V15.422C139.685 16.3939 140.209 17.2939 141.055 17.7798L144.792 19.9167C145.639 20.4026 146.686 20.4026 147.538 19.9167H147.533Z" fill="#2E2B28"></path><path d="M129.482 32.9368L118.777 39.0603L122.581 41.2414C123.7 41.8819 125.082 41.8819 126.201 41.2414L130.607 38.718C131.097 38.4364 131.715 38.7898 131.715 39.353V44.3998C131.715 45.6808 132.406 46.8625 133.525 47.5085L137.329 49.6896V37.437C137.329 36.4651 136.806 35.5651 135.959 35.0792L132.222 32.9423C131.375 32.4564 130.328 32.4564 129.476 32.9423L129.482 32.9368Z" fill="#2E2B28"></path><path d="M159.413 15.803L148.708 21.9266C147.861 22.4125 147.338 23.3125 147.338 24.2843V28.5581C147.338 29.5299 147.861 30.43 148.708 30.9159L159.413 37.0394V32.6828C159.413 31.4018 158.722 30.2201 157.603 29.5741L153.197 27.0507C152.707 26.7691 152.707 26.0623 153.197 25.7807L157.603 23.2573C158.722 22.6168 159.413 21.4351 159.413 20.1486V15.792V15.803Z" fill="#2E2B28"></path><path d="M139.68 37.4314V49.684L143.484 47.503C144.603 46.8625 145.294 45.6808 145.294 44.3943V39.3475C145.294 38.7842 145.912 38.4309 146.402 38.7125L150.808 41.2359C151.927 41.8764 153.309 41.8764 154.428 41.2359L158.232 39.0548L147.527 32.9313C146.681 32.4454 145.634 32.4454 144.782 32.9313L141.044 35.0682C140.198 35.5541 139.674 36.4541 139.674 37.4259L139.68 37.4314Z" fill="#2E2B28"></path></g><defs><clipPath id="clip0_20_164"><rect width="280" height="67" fill="white"></rect></clipPath></defs></svg> 