<?xml version="1.0" encoding="UTF-8"?> <!-- Generator: Adobe Illustrator 17.1.0, SVG Export Plug-In . SVG Version: 6.00 Build 0) --> <svg xmlns="http://www.w3.org/2000/svg" xmlns:xlink="http://www.w3.org/1999/xlink" id="Layer_1" x="0px" y="0px" viewBox="0 0 203.8 68" xml:space="preserve"> <path fill="#221F1F" d="M84.2,46.7c0.1,3.7,2.6,5.5,4.4,6.7c-2.5,0-5.3,3.2-5.2,6.4c0.1,5.7,6.2,7.5,14.3,7.7 c13.1,0.4,15.9-7.2,15.9-10.9c0-3.6-1.8-9.7-9.9-9.9l-7.5-0.2c-7.1-0.2-9.1-1-9.1-2.9c0-1,0-3.2,2.9-3.7c0.4-0.1,0.8,0.6,1.8,0.9 c1.9,0.6,4.8,1.2,5.5,1.2c8.9,0,12.6-5.5,12.6-10c0-3.3-2.7-6.7-6-8.5c-0.1-1-0.3-2.6,0.2-3.3c0.5-0.7,1.3-0.4,1.7,0 c0.5,0.6,0,2.7,4.6,2.6c2.6-0.1,3.2-3.1,3.1-4.9c-0.1-1.9-1.8-3.7-4.8-3.5c-3.6,0.2-6.6,4-6,8.6c-1.4-0.6-2.3-0.7-5.1-0.7 c-9,0-12.5,5.6-12.5,9.7c0,3.8,0.6,4.3,3.6,6.5C86.4,40.9,84.1,41.2,84.2,46.7 M97.6,23.8c4.4,0.1,5.2,3.1,5.2,7.5 c0,4-0.1,9.4-5.2,9.4c-5.6,0-5.3-5.9-5.3-9C92.3,28.1,92.7,23.7,97.6,23.8z M101.6,54c2.2,0,6.6,1.7,6.6,4.6c0,4.1-2.9,7.9-10.6,7.9 c-6,0-9.8-2.4-9.9-6.8c-0.1-3.2,1.7-5.2,5.6-5.7L101.6,54z"></path> <path fill="#221F1F" d="M136.7,44.7c-2.8,6.6-5.1,8.7-11,8.3c-5.9-0.4-6.7-5.5-6.7-11.4v-3.1h19.8C138,26,129.6,22.1,125,22.1 c-8.3,0-14.6,7.5-14.6,16.2c0,10.3,7.3,16.3,15.6,16.3c6.7,0,11.3-4.5,12.3-9.9L136.7,44.7 M119,36.8v-6c0-1.3,0.4-7.1,5.4-7.2 c5.4-0.1,5.8,5.8,5.5,13.1L119,36.8z"></path> <path fill="#221F1F" d="M201.6,44.7c-2.8,6.6-5.1,8.7-11,8.3c-5.9-0.4-6.7-5.5-6.7-11.4v-3.1h19.8c-0.8-12.5-9.2-16.4-13.9-16.4 c-8.3,0-14.6,7.5-14.6,16.2c0,10.3,7.3,16.3,15.6,16.3c6.7,0,11.3-4.5,12.3-9.9L201.6,44.7 M184,36.8v-6c0-1.3,0.4-7.1,5.4-7.2 c5.4-0.1,5.7,5.8,5.5,13.1L184,36.8z"></path> <path fill="#221F1F" d="M57.3,24.6v27.7h-4.2v1.1h14.4v-1.1h-2.8V28.1c2.4-4.1,9.1-6.6,9.1-1.7v25.8l-2.3,0.1v1.1H90v-1.1h-8.1V31 c0-7.1-5.9-8.5-10.1-8.5c-2.7,0-3.4,0.4-7,4.3v-3.5H51.8v1.3H57.3"></path> <path fill="#221F1F" d="M40.1,17.6c0,2.4,2,4.4,4.4,4.4c1.8,0,4.4-1.4,4.4-4.4c0-3-2.6-4.4-4.4-4.4C42.2,13.2,40.1,15.3,40.1,17.6 M36.7,52.2l0,1.2h16.4v-1.3l-4.2,0.1V23.3H29.2v1.2h11.5l0,27.6H36.7z"></path> <path fill="#221F1F" d="M165.1,17.8c0,2.4,2,4.4,4.4,4.4c1.8,0,4.4-1.4,4.4-4.4c0-3-2.6-4.4-4.4-4.4 C167.1,13.4,165.1,15.4,165.1,17.8 M160.6,52.2v1.2h17.8v-1.3l-4.2,0.1V23.3h-17.2v1.2h8.9l0,27.6H160.6z"></path> <path fill="#221F1F" d="M7.8,52.1H0.9L1,53.4h39.9l0-1.3l-3.8,0.1L37,35.8l-1.2-0.1c-0.3,10.3-7,16.4-12.4,16.4h-6.6V1.7h6.9V0H1 v1.7h6.8V52.1"></path> <path fill="#221F1F" d="M154.6,53.4v-1.2h-5.1V29.7c0-4.1,3.7-6,6.2-6c0.7,0,1,1,0.3,1.3c-1.2,0.6-2.1,1.5-2.1,3.5 c0,1.1,0.5,4.3,4.7,4.4c3.4,0.1,4.9-3.4,4.9-4.9c0-2.4-1.6-5.9-6.3-5.9c-3.8,0.1-6.4,1.4-7.8,4v-2.9l-13.4,0v1.4h0.8l4.4,0l0,27.5 l-9.3,0v1.2H154.6"></path> <path fill="#CBCED1" d="M0.7,61.6C1,61.5,1.3,61.3,1.5,61l0.4-0.5l-1.2-1.7h1.2l0.9,1.4v-1.4h1.1v1.3l0.9-1.3h1.2l-1.2,1.7L5.1,61 c0.2,0.3,0.5,0.5,0.8,0.6l-0.2,0.8c-0.6,0-0.9-0.1-1.3-0.7L3.9,61v1.4H2.8V61l-0.6,0.7c-0.5,0.6-0.7,0.7-1.3,0.7L0.7,61.6z"></path> <path fill="#CBCED1" d="M9.8,62.3H9.4l-1.2-3.6h1.2l0.6,2.1l0.1,0.6l0.2-0.6l0.7-2.1h1.1l-1.7,5h-1L9.8,62.3z"></path> <path fill="#CBCED1" d="M14.6,58.8h1.1V59c0.1-0.1,0.5-0.3,0.9-0.3c1,0,1.6,0.4,1.6,1.7c0,1.5-1,2-2,2c-0.2,0-0.3,0-0.4,0v1.4h-1.1 V58.8z M17.1,60.4c0-0.6-0.3-0.8-0.8-0.8c-0.2,0-0.4,0.1-0.5,0.1v1.8c0.1,0,0.3,0,0.5,0C16.7,61.6,17.1,61.1,17.1,60.4z"></path> <path fill="#CBCED1" d="M20.9,58.8H22v1.4h1.3v-1.4h1.1v3.6h-1.1V61H22v1.4h-1.1V58.8z"></path> <path fill="#CBCED1" d="M27.1,61.3c0-0.9,0.8-1.1,1.5-1.1h0.6V60c0-0.3-0.2-0.4-0.6-0.4c-0.4,0-0.7,0.1-1.1,0.2L27.4,59 c0.4-0.2,0.9-0.3,1.4-0.3c1.1,0,1.5,0.3,1.5,1.1v1.6c0,0.1,0.1,0.1,0.3,0.1l0,0.8c-0.1,0-0.2,0-0.3,0c-0.4,0-0.9-0.1-1-0.4 c-0.3,0.2-0.6,0.4-1,0.4C27.6,62.4,27.1,62,27.1,61.3z M29.3,61.4v-0.6l-0.5,0c-0.3,0-0.6,0.1-0.6,0.4c0,0.2,0.2,0.3,0.4,0.3 C28.8,61.6,29,61.5,29.3,61.4z"></path> <path fill="#CBCED1" d="M33,61.6c0.2-0.1,0.6-0.2,0.7-0.5c0.1-0.2,0.3-1.1,0.3-2.3h2.7v3.6h-1.1v-2.8h-0.7c-0.1,1.2-0.3,1.9-0.5,2.2 c-0.2,0.3-0.6,0.5-1.2,0.7L33,61.6z"></path> <path fill="#CBCED1" d="M43.1,60.6c0-1.2,0.7-1.9,1.9-1.9c1.3,0,1.8,0.7,1.8,1.9c0,1.2-0.8,1.9-1.9,1.9 C43.7,62.4,43.1,61.7,43.1,60.6z M45.7,60.6c0-0.6-0.1-1-0.7-1c-0.6,0-0.7,0.4-0.7,1c0,0.6,0.2,1,0.8,1 C45.6,61.6,45.7,61.2,45.7,60.6z"></path> <path fill="#CBCED1" d="M53.1,60.4c0-0.8,0.1-1.9,0.7-2.3c0.4-0.3,1.5-0.6,2.6-0.8l0.2,1c-1,0.1-1.8,0.3-2,0.4 c-0.2,0.1-0.3,0.4-0.3,0.7c0.3-0.2,0.7-0.3,1.2-0.3c0.9,0,1.4,0.4,1.4,1.5c0,1.3-0.8,1.8-1.9,1.8C53.8,62.4,53.1,61.8,53.1,60.4z M55.7,60.6c0-0.4-0.2-0.7-0.7-0.7c-0.3,0-0.6,0.1-0.8,0.2c0,0.1,0,0.3,0,0.4c0,0.7,0.3,1.1,0.8,1.1C55.5,61.6,55.7,61.1,55.7,60.6z "></path> <path fill="#CBCED1" d="M59.3,60.6c0-1.5,0.7-1.9,1.8-1.9c1.1,0,1.6,0.7,1.6,1.8v0.4h-2.3c0,0.6,0.4,0.7,1,0.7c0.2,0,0.6-0.1,1-0.1 l0.2,0.8c-0.4,0.1-0.9,0.2-1.3,0.2C60.1,62.4,59.3,62,59.3,60.6z M61.6,60.2c0-0.4-0.2-0.7-0.5-0.7c-0.4,0-0.6,0.3-0.6,0.7H61.6z"></path> <path fill="#CBCED1" d="M65.1,61.6c0.2-0.1,0.6-0.2,0.7-0.5c0.1-0.2,0.3-1.1,0.3-2.3h2.7v3.6h-1.1v-2.8H67c-0.1,1.2-0.3,1.9-0.5,2.2 c-0.2,0.3-0.6,0.5-1.2,0.7L65.1,61.6z"></path> <path fill="#CBCED1" d="M71.8,58.8h1.1v1h0.4c1,0,1.7,0.5,1.7,1.3c0,0.7-0.6,1.3-1.4,1.3h-1.8V58.8z M72.9,60.6v1h0.4 c0.4,0,0.6-0.2,0.6-0.5c0-0.4-0.3-0.5-0.7-0.5H72.9z"></path> <path fill="#CBCED1" d="M77.4,60.6c0-1.5,0.7-1.9,1.8-1.9c1.1,0,1.6,0.7,1.6,1.8v0.4h-2.3c0,0.6,0.4,0.7,1,0.7c0.2,0,0.6-0.1,1-0.1 l0.2,0.8c-0.4,0.1-0.9,0.2-1.3,0.2C78.2,62.4,77.4,62,77.4,60.6z M79.7,60.2c0-0.4-0.2-0.7-0.5-0.7c-0.4,0-0.6,0.3-0.6,0.7H79.7z"></path> <path fill="#CBCED1" d="M115.4,58.8h1.1v1.5l0,0.6l0.4-0.6l1-1.5h1.1v3.6h-1.1v-1.5l0-0.6l-0.4,0.6l-1,1.5h-1.1V58.8z"></path> <path fill="#CBCED1" d="M123.6,60.4c0-0.8,0.1-1.9,0.7-2.3c0.4-0.3,1.5-0.6,2.6-0.8l0.2,1c-1,0.1-1.8,0.3-2,0.4 c-0.2,0.1-0.3,0.4-0.3,0.7c0.3-0.2,0.7-0.3,1.2-0.3c0.9,0,1.4,0.4,1.4,1.5c0,1.3-0.8,1.8-1.9,1.8C124.3,62.4,123.6,61.8,123.6,60.4z M126.1,60.6c0-0.4-0.2-0.7-0.7-0.7c-0.3,0-0.6,0.1-0.8,0.2c0,0.1,0,0.3,0,0.4c0,0.7,0.3,1.1,0.8,1.1 C125.9,61.6,126.1,61.1,126.1,60.6z"></path> <path fill="#CBCED1" d="M128.8,60.6c0-1.5,0.7-1.9,1.8-1.9c1.1,0,1.6,0.7,1.6,1.8v0.4h-2.3c0,0.6,0.4,0.7,1,0.7c0.2,0,0.6-0.1,1-0.1 l0.2,0.8c-0.4,0.1-0.9,0.2-1.3,0.2C129.5,62.4,128.8,62,128.8,60.6z M131.1,60.2c0-0.4-0.2-0.7-0.5-0.7c-0.4,0-0.6,0.3-0.6,0.7 H131.1z"></path> <path fill="#CBCED1" d="M133.6,61.6c0.2-0.1,0.6-0.2,0.7-0.5c0.1-0.2,0.3-1.1,0.3-2.3h2.7v3.6h-1.1v-2.8h-0.7 c-0.1,1.2-0.3,1.9-0.5,2.2c-0.2,0.3-0.6,0.5-1.2,0.7L133.6,61.6z"></path> <path fill="#CBCED1" d="M139.3,58.8h1.1v1h0.4c1,0,1.7,0.5,1.7,1.3c0,0.7-0.6,1.3-1.4,1.3h-1.8V58.8z M140.4,60.6v1h0.4 c0.4,0,0.6-0.2,0.6-0.5c0-0.4-0.3-0.5-0.7-0.5H140.4z"></path> <path fill="#CBCED1" d="M144,60.6c0-1.5,0.7-1.9,1.8-1.9c1.1,0,1.6,0.7,1.6,1.8v0.4h-2.3c0,0.6,0.4,0.7,1,0.7c0.2,0,0.6-0.1,1-0.1 l0.2,0.8c-0.4,0.1-0.9,0.2-1.3,0.2C144.7,62.4,144,62,144,60.6z M146.3,60.2c0-0.4-0.2-0.7-0.5-0.7c-0.4,0-0.6,0.3-0.6,0.7H146.3z"></path> <path fill="#CBCED1" d="M149.2,58.8h1.8c0.8,0,1.2,0.3,1.2,1c0,0.4-0.2,0.6-0.4,0.7c0.2,0,0.6,0.3,0.6,0.8c0,0.7-0.6,1.1-1.4,1.1 h-1.8V58.8z M150.5,60.2c0.3,0,0.6-0.1,0.6-0.3c0-0.2-0.2-0.3-0.5-0.3h-0.4v0.7H150.5z M150.7,61.6c0.3,0,0.5-0.1,0.5-0.4 c0-0.3-0.2-0.4-0.6-0.4h-0.4v0.7H150.7z"></path> <path fill="#CBCED1" d="M153.9,60.6c0-1.2,0.7-1.9,1.9-1.9c1.3,0,1.8,0.7,1.8,1.9c0,1.2-0.8,1.9-1.9,1.9 C154.6,62.4,153.9,61.7,153.9,60.6z M156.5,60.6c0-0.6-0.1-1-0.7-1c-0.6,0-0.7,0.4-0.7,1c0,0.6,0.2,1,0.8,1 C156.4,61.6,156.5,61.2,156.5,60.6z"></path> <path fill="#CBCED1" d="M159.4,58.8h1.3l0.8,2.6l0.9-2.6h1.3v3.6h-1v-1.1l0-1l-0.7,2H161l-0.6-2.1l0.1,1v1.1h-1V58.8z"></path> <path fill="#CBCED1" d="M168.4,60.4c0-0.8,0.1-1.9,0.7-2.3c0.4-0.3,1.5-0.6,2.6-0.8l0.2,1c-1,0.1-1.8,0.3-2,0.4 c-0.2,0.1-0.3,0.4-0.3,0.7c0.3-0.2,0.7-0.3,1.2-0.3c0.9,0,1.4,0.4,1.4,1.5c0,1.3-0.8,1.8-1.9,1.8C169.1,62.4,168.4,61.8,168.4,60.4z M170.9,60.6c0-0.4-0.2-0.7-0.7-0.7c-0.3,0-0.6,0.1-0.8,0.2c0,0.1,0,0.3,0,0.4c0,0.7,0.3,1.1,0.8,1.1 C170.7,61.6,170.9,61.1,170.9,60.6z"></path> <path fill="#CBCED1" d="M173.8,58.8h1.1v1.5l0,0.6l0.4-0.6l1-1.5h1.1v3.6h-1.1v-1.5l0-0.6l-0.4,0.6l-1,1.5h-1.1V58.8z"></path> <path fill="#CBCED1" d="M179.1,62.1l0.3-0.8c0.2,0.1,0.6,0.3,1,0.3c0.2,0,0.5-0.1,0.5-0.3c0-0.2-0.2-0.3-0.5-0.3h-0.6v-0.8h0.5 c0.3,0,0.4-0.2,0.4-0.3c0-0.2-0.2-0.3-0.4-0.3c-0.4,0-0.6,0.1-0.9,0.2l-0.2-0.8c0.3-0.2,0.8-0.3,1.3-0.3c0.9,0,1.3,0.5,1.3,0.9 c0,0.4-0.2,0.7-0.5,0.8c0.3,0.1,0.7,0.3,0.7,0.9c0,0.5-0.4,1.1-1.5,1.1C180,62.4,179.5,62.3,179.1,62.1z"></path> <path fill="#CBCED1" d="M183.8,58.8h1.1v1.4h1.3v-1.4h1.1v3.6h-1.1V61h-1.3v1.4h-1.1V58.8z"></path> <path fill="#CBCED1" d="M189.1,60.6c0-1.5,0.7-1.9,1.8-1.9c1.1,0,1.6,0.7,1.6,1.8v0.4h-2.3c0,0.6,0.4,0.7,1,0.7c0.2,0,0.6-0.1,1-0.1 l0.2,0.8c-0.4,0.1-0.9,0.2-1.3,0.2C189.9,62.4,189.1,62,189.1,60.6z M191.4,60.2c0-0.4-0.2-0.7-0.5-0.7c-0.4,0-0.6,0.3-0.6,0.7 H191.4z"></path> <path fill="#CBCED1" d="M194.1,60.5c0-1.1,0.7-1.8,1.9-1.8c0.5,0,0.9,0.1,1.1,0.2l-0.3,0.8c-0.3-0.1-0.4-0.1-0.8-0.1 c-0.4,0-0.9,0.2-0.9,1c0,0.7,0.2,1,1,1c0.3,0,0.5,0,0.8-0.1l0.1,0.8c-0.4,0.1-0.6,0.1-1,0.1C194.7,62.4,194.1,61.9,194.1,60.5z"></path> <path fill="#CBCED1" d="M198.7,60.6c0-1.5,0.7-1.9,1.8-1.9c1.1,0,1.6,0.7,1.6,1.8v0.4h-2.3c0,0.6,0.4,0.7,1,0.7c0.2,0,0.6-0.1,1-0.1 l0.2,0.8c-0.4,0.1-0.9,0.2-1.3,0.2C199.5,62.4,198.7,62,198.7,60.6z M201,60.2c0-0.4-0.2-0.7-0.5-0.7c-0.4,0-0.6,0.3-0.6,0.7H201z"></path> </svg> 