<?xml version="1.0" encoding="UTF-8"?> <!-- Generator: Adobe Illustrator 22.1.0, SVG Export Plug-In . SVG Version: 6.00 Build 0) --> <svg xmlns="http://www.w3.org/2000/svg" xmlns:xlink="http://www.w3.org/1999/xlink" id="Layer_1" x="0px" y="0px" viewBox="0 0 126.8 51" style="enable-background:new 0 0 126.8 51;" xml:space="preserve"> <style type="text/css"> .st0{fill-rule:evenodd;clip-rule:evenodd;fill:#C6D420;} .st1{fill-rule:evenodd;clip-rule:evenodd;fill:#0097A6;} .st2{fill-rule:evenodd;clip-rule:evenodd;fill:#7D858B;} .st3{fill-rule:evenodd;clip-rule:evenodd;fill:#231F20;} .st4{fill:#0097A6;} </style> <g> <path class="st0" d="M49.2,44.5l-2.4-2.2c1.8-8.2-8.2-7.5-11.8-12.1c-0.3-0.4-0.5-0.7-0.6-1.1l2.6-1.3c0.1,0.3,0.2,0.5,0.3,0.7 C41.1,33.1,52.7,32.1,49.2,44.5z"></path> <path class="st1" d="M36.9,27.8l-2.6,1.3c-0.6-1.4-0.5-2.8-0.6-4c-0.1-5,0.6-8.6-3-12.8c-2.5-2.9-6.2-3.8-10.4-1.7 c-2.2-2.2-4.9-3-7.3-3c-5.4,0-7.7,3.1-7.9,3.5c0.1,0.2,1.5,2.4,3,2.7c1.4,0.2,2.7-0.3,3.7-1c1,1.6,2.3,3.2,2.5,5.1 c0.1,1.7-1,3.1-2.3,4c-0.3,0.2-2,1.4-2,1.4L8.3,21c0,0,1-0.7,1.6-1.1c0.7-0.5,1.4-1,1.4-2c0-0.7-0.5-1.4-0.9-2c0,0-2.6,1.1-5-0.4 C3,14.2,1.8,11,1.8,11S4.6,4.8,13,4.8c5,0,7.9,2.5,7.9,2.5c5.2-1.6,9.4-0.1,12.2,3.4c3.8,4.6,3.6,8.7,3.5,14.4 C36.6,26,36.7,27.1,36.9,27.8z"></path> <path class="st2" d="M46.7,42.3l2.4,2.2c-12,4.6-13-6.8-17.5-9.5c-2.3-1.4-3.2-0.3-5.7-0.3c-5.4,0-9.1-4.1-10.7-9l-2.5,1.8 l-1.6-2.4l6.3-4.4c0.1,5,2.9,11,8.6,11.1c2.9,0,4.5-1.2,7.3,0.9C38,36,39,44.5,46.7,42.3z"></path> <path class="st3" d="M68.6,24l1.7,1.3c-1.1,1.8-3.4,2.9-5.7,2.9c-4,0.1-6.7-2.5-6.7-6.4c0-3,1.6-5.1,4.1-6c2.8-0.9,6.7-0.4,7.8,2.8 c0.7,2.3-1.1,4.3-3.9,5c-1.6,0.4-3.5,0.5-4.7,0.3C62.5,26.6,67,26.4,68.6,24L68.6,24z M100.5,21.2c0-5.2,5.1-6.8,9-4.9l-1,2.3 c-2.2-1.1-5.1-0.5-5.1,2.7V28h-2.9V21.2L100.5,21.2z M82.5,23.7l2.1,1.2c-0.9,2.1-3.1,3.4-5.4,3.4c-3.7,0.1-6.7-2.6-6.9-6.2 c-0.1-3.5,2.7-6.5,6.4-6.7c2.4-0.1,4.5,1,5.5,3.1l-2,1.3c-1.9-3.2-7.2-1.8-7,2.1C75.4,26.1,80.8,26.8,82.5,23.7L82.5,23.7z M42.5,21.9V10.6h2.9v6c1.1-0.7,2.4-1.1,3.7-1.1c3.7,0,6.6,2.9,6.6,6.4c0,3.6-3,6.4-6.6,6.4C45.4,28.4,42.5,25.5,42.5,21.9 L42.5,21.9z M49.1,18.2c-2.1,0-3.7,1.7-3.7,3.7c0,2.1,1.7,3.7,3.7,3.7c2.1,0,3.7-1.7,3.7-3.7C52.8,19.9,51.2,18.2,49.1,18.2 L49.1,18.2z M87.7,16.7c1.2-0.8,2.6-1.2,4.1-1.2c3.8,0,6.5,2.5,6.5,6.4c0,3.7-2.5,6.4-6.1,6.4c-3.7,0-6-2-5.8-4.8 c0.3-3.5,5.5-4.2,8.6-3.7c-1-2.2-4.4-2.4-6.2-1.2L87.7,16.7L87.7,16.7z M95.4,22.3c-1.3-0.4-6-0.8-6.2,1.8 C89.1,26.7,95.7,26.7,95.4,22.3L95.4,22.3z M60.8,21.5c1.1,0.2,3,0.2,4.5-0.3c3.4-1,1.3-4.3-1.9-3.1C62.1,18.6,60.9,19.8,60.8,21.5 z"></path> <g> <path class="st4" d="M72.2,36.9l2.3-5.3h0.8l2.3,5.3h-0.9l-0.6-1.3h-2.5l-0.6,1.3H72.2z M73.9,34.8h1.9l-1-2.2L73.9,34.8z"></path> <path class="st4" d="M78.2,36.6v-0.8c0.4,0.3,0.9,0.4,1.5,0.4c0.5,0,0.8-0.2,0.8-0.4c0-0.1-0.1-0.2-0.2-0.3 c-0.1,0-0.2-0.1-0.4-0.1l-0.5-0.1c-0.8-0.2-1.2-0.5-1.2-1.2c0-0.7,0.6-1.1,1.6-1.1c0.6,0,1,0.1,1.4,0.3v0.7 c-0.4-0.2-0.9-0.4-1.3-0.4c-0.5,0-0.8,0.2-0.8,0.4c0,0.1,0.1,0.2,0.2,0.3c0.1,0,0.3,0.1,0.4,0.1l0.4,0.1c0.8,0.2,1.3,0.6,1.3,1.2 c0,0.7-0.6,1.1-1.6,1.1C79.1,37,78.6,36.8,78.2,36.6z"></path> <path class="st4" d="M82.2,36.6v-0.8c0.4,0.3,0.9,0.4,1.5,0.4c0.5,0,0.8-0.2,0.8-0.4c0-0.1-0.1-0.2-0.2-0.3 c-0.1,0-0.2-0.1-0.4-0.1l-0.5-0.1c-0.8-0.2-1.2-0.5-1.2-1.2c0-0.7,0.6-1.1,1.6-1.1c0.6,0,1,0.1,1.4,0.3v0.7 c-0.4-0.2-0.9-0.4-1.3-0.4c-0.5,0-0.8,0.2-0.8,0.4c0,0.1,0.1,0.2,0.2,0.3c0.1,0,0.3,0.1,0.4,0.1l0.4,0.1c0.8,0.2,1.3,0.6,1.3,1.2 c0,0.7-0.6,1.1-1.6,1.1C83.1,37,82.5,36.8,82.2,36.6z"></path> <path class="st4" d="M86.6,33.6c0.4-0.4,0.8-0.6,1.4-0.6c0.4,0,0.7,0.1,1,0.3c0.5,0.4,0.8,1,0.8,1.7v0.2h-2.8c0.1,0.6,0.6,1,1.4,1 c0.4,0,0.8-0.1,1.2-0.3v0.7c-0.3,0.2-0.8,0.4-1.4,0.4c-0.6,0-1.1-0.2-1.5-0.5c-0.4-0.4-0.6-0.8-0.6-1.4 C86.1,34.5,86.3,34,86.6,33.6z M88.9,34.6c0-0.2-0.1-0.4-0.3-0.6c-0.2-0.2-0.4-0.3-0.7-0.3c-0.6,0-1,0.4-1,0.9H88.9z"></path> <path class="st4" d="M91.1,33.9h-0.8v-0.7h0.8v-1.1h0.8v1.1h1.2v0.7h-1.2v1.7c0,0.4,0.2,0.6,0.6,0.6c0.2,0,0.4,0,0.6-0.1v0.7 c-0.2,0.1-0.5,0.2-0.8,0.2c-0.7,0-1.1-0.4-1.1-1.1V33.9z"></path> <path class="st4" d="M72.7,45.5v-5.3h0.8l1.7,2.4l1.7-2.4h0.8v5.3H77v-4l-1.5,2H75l-1.5-2v4H72.7z"></path> <path class="st4" d="M82.8,44.8v0.6c-0.1,0.1-0.3,0.1-0.5,0.1c-0.4,0-0.7-0.2-0.8-0.5c-0.3,0.4-0.8,0.6-1.4,0.6 c-0.4,0-0.7-0.1-1-0.3c-0.3-0.2-0.4-0.5-0.4-0.9c0-0.4,0.1-0.7,0.4-0.9c0.3-0.2,0.6-0.3,1.1-0.3c0.4,0,0.8,0.1,1.2,0.3v-0.2 c0-0.5-0.4-0.8-1.1-0.8c-0.4,0-0.8,0.1-1.2,0.3V42c0.4-0.2,0.8-0.3,1.3-0.3c1,0,1.7,0.5,1.7,1.4v1.4c0,0.2,0.1,0.4,0.3,0.4 C82.7,44.8,82.7,44.8,82.8,44.8z M81.5,44c-0.3-0.2-0.6-0.3-1-0.3c-0.5,0-0.9,0.2-0.9,0.6c0,0.4,0.3,0.6,0.8,0.6 c0.4,0,0.8-0.2,1.1-0.4V44z"></path> <path class="st4" d="M84.5,45.5h-0.8v-3.7h0.8v0.5c0.4-0.4,0.8-0.6,1.4-0.6c0.9,0,1.4,0.6,1.4,1.5v2.3h-0.8v-2.1 c0-0.7-0.4-1-0.9-1c-0.4,0-0.8,0.3-1,0.6V45.5z"></path> <path class="st4" d="M92.1,44.8v0.6c-0.1,0.1-0.3,0.1-0.5,0.1c-0.4,0-0.7-0.2-0.8-0.5c-0.3,0.4-0.8,0.6-1.4,0.6 c-0.4,0-0.7-0.1-1-0.3c-0.3-0.2-0.4-0.5-0.4-0.9c0-0.4,0.1-0.7,0.4-0.9c0.3-0.2,0.6-0.3,1.1-0.3c0.4,0,0.8,0.1,1.2,0.3v-0.2 c0-0.5-0.4-0.8-1.1-0.8c-0.4,0-0.8,0.1-1.2,0.3V42c0.4-0.2,0.8-0.3,1.3-0.3c1,0,1.7,0.5,1.7,1.4v1.4c0,0.2,0.1,0.4,0.3,0.4 C91.9,44.8,92,44.8,92.1,44.8z M90.8,44c-0.3-0.2-0.6-0.3-1-0.3c-0.5,0-0.9,0.2-0.9,0.6c0,0.4,0.3,0.6,0.8,0.6 c0.4,0,0.8-0.2,1.1-0.4V44z"></path> <path class="st4" d="M95.8,41.8h0.8v3.4c0,0.6-0.2,1.1-0.6,1.4c-0.4,0.3-0.9,0.5-1.5,0.5c-0.6,0-1.1-0.1-1.4-0.3v-0.7 c0.4,0.2,0.9,0.4,1.4,0.4c0.8,0,1.4-0.4,1.4-1.1v-0.3c-0.3,0.4-0.8,0.6-1.3,0.6c-0.5,0-0.9-0.2-1.3-0.5c-0.3-0.4-0.5-0.8-0.5-1.3 c0-0.5,0.2-1,0.5-1.3c0.3-0.4,0.8-0.5,1.3-0.5c0.6,0,1,0.2,1.3,0.6V41.8z M95.8,44.1V43c-0.2-0.4-0.6-0.6-1.1-0.6 c-0.3,0-0.6,0.1-0.9,0.3c-0.2,0.2-0.3,0.5-0.3,0.8c0,0.3,0.1,0.6,0.3,0.8c0.2,0.2,0.5,0.3,0.9,0.3C95.2,44.7,95.6,44.5,95.8,44.1z "></path> <path class="st4" d="M98.1,42.2c0.4-0.4,0.8-0.6,1.4-0.6c0.4,0,0.7,0.1,1,0.3c0.5,0.4,0.8,1,0.8,1.7v0.2h-2.8c0.1,0.6,0.6,1,1.4,1 c0.4,0,0.8-0.1,1.2-0.3v0.7c-0.3,0.2-0.8,0.4-1.4,0.4c-0.6,0-1.1-0.2-1.5-0.5c-0.4-0.4-0.6-0.8-0.6-1.4 C97.6,43.1,97.8,42.6,98.1,42.2z M100.4,43.2c0-0.2-0.1-0.4-0.3-0.6c-0.2-0.2-0.4-0.3-0.7-0.3c-0.6,0-1,0.4-1,0.9H100.4z"></path> <path class="st4" d="M102.3,45.5v-3.7h0.8v0.5c0.3-0.4,0.7-0.6,1.2-0.6c0.6,0,1,0.3,1.2,0.7c0.3-0.4,0.8-0.7,1.3-0.7 c0.8,0,1.3,0.5,1.3,1.5v2.3h-0.8v-2.1c0-0.6-0.2-0.9-0.8-0.9c-0.4,0-0.8,0.3-0.9,0.6v2.4h-0.8v-2.1c0-0.6-0.3-0.9-0.8-0.9 c-0.4,0-0.8,0.3-1,0.6v2.4H102.3z"></path> <path class="st4" d="M109.5,42.2c0.4-0.4,0.8-0.6,1.4-0.6c0.4,0,0.7,0.1,1,0.3c0.5,0.4,0.8,1,0.8,1.7v0.2h-2.8 c0.1,0.6,0.6,1,1.4,1c0.4,0,0.8-0.1,1.2-0.3v0.7c-0.3,0.2-0.8,0.4-1.4,0.4c-0.6,0-1.1-0.2-1.5-0.5c-0.4-0.4-0.6-0.8-0.6-1.4 C109,43.1,109.2,42.6,109.5,42.2z M111.8,43.2c0-0.2-0.1-0.4-0.3-0.6c-0.2-0.2-0.4-0.3-0.7-0.3c-0.6,0-1,0.4-1,0.9H111.8z"></path> <path class="st4" d="M114.5,45.5h-0.8v-3.7h0.8v0.5c0.4-0.4,0.8-0.6,1.4-0.6c0.9,0,1.4,0.6,1.4,1.5v2.3h-0.8v-2.1 c0-0.7-0.4-1-0.9-1c-0.4,0-0.8,0.3-1,0.6V45.5z"></path> <path class="st4" d="M118.8,42.5H118v-0.7h0.8v-1.1h0.8v1.1h1.2v0.7h-1.2v1.7c0,0.4,0.2,0.6,0.6,0.6c0.2,0,0.4,0,0.6-0.1v0.7 c-0.2,0.1-0.5,0.2-0.8,0.2c-0.7,0-1.1-0.4-1.1-1.1V42.5z"></path> </g> </g> </svg> 