<?xml version="1.0" encoding="UTF-8"?> <svg xmlns="http://www.w3.org/2000/svg" width="273" height="74" viewBox="0 0 273 74" fill="none"><path d="M54.0531 62.397V56.1361H52.0056V54.8535H57.4809V56.1361H55.4334V62.397H54.0531Z" fill="#070B10"></path><path d="M60.7869 62.397V54.8534H65.7117V56.0823H62.1628V57.9091H65.1988V59.0565H62.1628V61.1576H65.7492V62.397H60.7869Z" fill="#070B10"></path><path d="M68.7639 62.397L71.1284 58.5392L68.8799 54.8534H70.5303L72.1176 57.4935L73.7945 54.8534H75.3972L73.054 58.5714L75.461 62.397H73.8003L72.0596 59.5902L70.3777 62.397H68.7639Z" fill="#070B10"></path><path d="M78.7449 62.397V54.8534H80.0775L83.5853 60.0476V54.8534H84.9239V62.397H83.5905L80.0834 57.1385V62.397H78.7449Z" fill="#070B10"></path><path d="M92.3606 61.2384C92.71 61.2384 93.0351 61.1763 93.3367 61.0523C93.6383 60.9289 93.901 60.7525 94.1248 60.5245C94.3486 60.2966 94.5233 60.0215 94.6481 59.7001C94.7735 59.3787 94.8359 59.0199 94.8359 58.6252C94.8359 58.0975 94.7266 57.637 94.5079 57.2461C94.2899 56.8544 93.9935 56.551 93.6192 56.3349C93.2457 56.1197 92.8259 56.012 92.3606 56.012C92.0077 56.012 91.6818 56.0733 91.3817 56.1952C91.0823 56.3178 90.8203 56.4934 90.5965 56.7236C90.3726 56.9531 90.198 57.2282 90.0732 57.5473C89.9477 57.8673 89.8854 58.2268 89.8854 58.6252C89.8854 59.1529 89.9932 59.6126 90.2105 60.0043C90.427 60.396 90.7227 60.6994 91.0962 60.9147C91.4705 61.1307 91.8917 61.2384 92.3606 61.2384ZM92.3606 62.5584C91.8 62.5584 91.2812 62.459 90.8027 62.2594C90.3249 62.0599 89.9096 61.7825 89.5573 61.4267C89.2044 61.0717 88.9314 60.6546 88.7369 60.177C88.5432 59.6993 88.4463 59.1821 88.4463 58.6252C88.4463 58.0646 88.5432 57.5459 88.7369 57.0682C88.9314 56.5906 89.2044 56.1735 89.5573 55.8177C89.9096 55.4626 90.3249 55.1861 90.8027 54.9887C91.2812 54.7907 91.8 54.692 92.3606 54.692C92.9176 54.692 93.4343 54.7922 93.9105 54.994C94.3861 55.195 94.8007 55.4753 95.1537 55.8341C95.5059 56.1937 95.7811 56.6108 95.9793 57.0869C96.1759 57.563 96.275 58.0758 96.275 58.6252C96.275 59.1821 96.1759 59.6993 95.9793 60.177C95.7811 60.6546 95.5059 61.0717 95.1537 61.4267C94.8007 61.7825 94.3861 62.0599 93.9105 62.2594C93.4343 62.459 92.9176 62.5584 92.3606 62.5584Z" fill="#070B10"></path><path d="M101.174 58.4152H102.538C102.979 58.4152 103.323 58.3217 103.57 58.1356C103.816 57.9487 103.94 57.6572 103.94 57.2625C103.94 56.8671 103.814 56.5696 103.562 56.3701C103.31 56.1712 102.972 56.0718 102.549 56.0718H101.174V58.4152ZM99.7976 62.3969V54.8534H102.575C103.107 54.8534 103.58 54.9484 103.992 55.1367C104.405 55.3251 104.729 55.5972 104.964 55.953C105.198 56.308 105.315 56.7363 105.315 57.2356C105.315 57.7417 105.207 58.1707 104.99 58.5228C104.773 58.8748 104.458 59.1439 104.046 59.3286C103.633 59.5132 103.132 59.6059 102.544 59.6059H101.174V62.3969H99.7976Z" fill="#070B10"></path><path d="M110.308 59.4983H112.599L111.436 56.4381L110.308 59.4983ZM107.854 62.397L110.694 54.8542H112.229L115.127 62.397H113.578L112.948 60.689H109.97L109.362 62.397H107.854Z" fill="#070B10"></path><path d="M119.64 58.2971H120.93C121.371 58.2971 121.715 58.2029 121.962 58.0145C122.209 57.8262 122.333 57.5503 122.333 57.1871C122.333 56.8096 122.22 56.5226 121.994 56.3252C121.768 56.1279 121.437 56.0285 121 56.0285H119.64V58.2971ZM118.264 62.397V54.8542H121.131C121.657 54.8542 122.114 54.9447 122.502 55.1263C122.89 55.3079 123.189 55.5673 123.401 55.9052C123.612 56.243 123.719 56.6452 123.719 57.1116C123.719 57.4853 123.643 57.8142 123.491 58.0975C123.339 58.3815 123.13 58.617 122.864 58.8031C122.598 58.99 122.29 59.1215 121.941 59.197L124.094 62.397H122.443L120.529 59.4452H119.64V62.397H118.264Z" fill="#070B10"></path><path d="M127.49 62.397V54.8534H128.865V58.5019L131.743 54.8534H133.446L130.727 58.2858L133.837 62.397H132.066L129.822 59.3525L128.865 60.4954V62.397H127.49Z" fill="#070B10"></path><path d="M137.09 54.8534H138.466V62.397H137.09V54.8534Z" fill="#070B10"></path><path d="M71.8152 43.0718H57.0721V37.3095H71.8152C73.834 37.3095 74.8438 38.258 74.8438 40.1566C74.8438 42.1 73.834 43.0718 71.8152 43.0718ZM57.0721 27.546H71.1496C73.1684 27.546 74.1782 28.4272 74.1782 30.1898C74.1782 32.0435 73.1684 32.9696 71.1496 32.9696H57.0721V27.546ZM77.3734 34.8346C78.8374 33.7948 79.5698 32.1564 79.5698 29.9192C79.5698 27.6813 78.9321 26.0039 77.6559 24.885C76.3805 23.7667 74.4218 23.2069 71.7822 23.2069L51.7473 23.2749V47.4445L72.4478 47.4101C75.0874 47.4101 77.0461 46.8174 78.3215 45.6311C79.5977 44.4449 80.2354 42.71 80.2354 40.4272C80.2354 39.0264 80.0027 37.8798 79.5368 36.9866C79.0708 36.0941 78.3494 35.3773 77.3734 34.8346Z" fill="#070B10"></path><path d="M82.2322 47.4445H108.324V43.0374H87.5563V37.3767H106.393V32.9696H87.5563V27.614H108.324V23.2069H82.2322V47.4445Z" fill="#070B10"></path><path d="M138.01 23.2749H131.387L123.566 33.14H115.645V23.2749H110.321V47.4445H115.645V37.5464H123.533L131.387 47.4445H138.01L128.226 35.3428L138.01 23.2749Z" fill="#070B10"></path><path d="M161.941 38.6385C161.495 40.0542 160.732 41.1291 159.642 41.8519C159.608 41.8743 159.569 41.893 159.534 41.9154C158.003 43.0127 155.953 43.5643 153.377 43.5643H149.056C146.475 43.5643 144.424 42.9977 142.889 41.8735C142.878 41.8661 142.864 41.8593 142.852 41.8519C141.755 41.132 140.989 40.0617 140.542 38.6534C140.206 37.681 140.031 36.5724 140.031 35.3144C140.031 34.203 140.17 33.2096 140.435 32.3208C140.862 30.7541 141.667 29.5791 142.852 28.8002C142.867 28.7905 142.883 28.783 142.898 28.7733C144.441 27.6528 146.542 27.087 149.213 27.087H153.264C155.936 27.087 158.037 27.6528 159.581 28.774C159.595 28.783 159.611 28.7912 159.625 28.8002C160.8 29.5731 161.6 30.7362 162.03 32.2842C162.303 33.1826 162.446 34.188 162.446 35.3144C162.446 36.5657 162.272 37.6697 161.941 38.6385ZM164.318 26.1399C161.988 24.0717 158.626 23.0379 154.234 23.0379H148.243C143.851 23.0379 140.489 24.0717 138.16 26.1399C135.83 28.2075 134.665 31.2639 134.665 35.3092C134.665 39.377 135.83 42.4446 138.16 44.5121C140.489 46.5804 143.772 47.6141 148.01 47.6141H154.4C158.682 47.6141 161.988 46.5804 164.318 44.5121C166.647 42.4446 167.812 39.377 167.812 35.3092C167.812 31.2639 166.647 28.2075 164.318 26.1399Z" fill="#070B10"></path><path d="M225.905 38.6385C225.46 40.0542 224.697 41.1291 223.606 41.8519C223.572 41.8743 223.534 41.893 223.499 41.9154C221.968 43.0127 219.917 43.5643 217.341 43.5643H213.02C210.439 43.5643 208.388 42.9977 206.854 41.8735C206.842 41.8661 206.828 41.8593 206.816 41.8519C205.72 41.132 204.954 40.0617 204.506 38.6534C204.171 37.681 203.996 36.5724 203.996 35.3144C203.996 34.203 204.135 33.2096 204.4 32.3208C204.827 30.7541 205.631 29.5791 206.816 28.8002C206.831 28.7905 206.847 28.783 206.862 28.7733C208.405 27.6528 210.507 27.087 213.177 27.087H217.228C219.9 27.087 222.002 27.6528 223.545 28.774C223.559 28.783 223.575 28.7912 223.589 28.8002C224.765 29.5731 225.565 30.7362 225.995 32.2842C226.267 33.1826 226.411 34.188 226.411 35.3144C226.411 36.5657 226.237 37.6697 225.905 38.6385ZM228.282 26.1399C225.953 24.0717 222.591 23.0379 218.198 23.0379H212.207C207.815 23.0379 204.453 24.0717 202.124 26.1399C199.794 28.2075 198.63 31.2639 198.63 35.3092C198.63 39.377 199.794 42.4446 202.124 44.5121C204.453 46.5804 207.737 47.6141 211.975 47.6141H218.365C222.646 47.6141 225.953 46.5804 228.282 44.5121C230.612 42.4446 231.777 39.377 231.777 35.3092C231.777 31.2639 230.612 28.2075 228.282 26.1399Z" fill="#070B10"></path><path d="M189.544 43.0718H174.801V37.3095H189.544C191.563 37.3095 192.572 38.258 192.572 40.1566C192.572 42.1 191.563 43.0718 189.544 43.0718ZM174.801 27.546H188.878C190.897 27.546 191.907 28.4272 191.907 30.1898C191.907 32.0435 190.897 32.9696 188.878 32.9696H174.801V27.546ZM195.102 34.8346C196.566 33.7948 197.298 32.1564 197.298 29.9192C197.298 27.6813 196.661 26.0039 195.384 24.885C194.109 23.7667 192.15 23.2069 189.511 23.2069L169.476 23.2749V47.4445L190.176 47.4101C192.816 47.4101 194.775 46.8174 196.05 45.6311C197.326 44.4449 197.964 42.71 197.964 40.4272C197.964 39.0264 197.731 37.8798 197.265 36.9866C196.799 36.0941 196.078 35.3773 195.102 34.8346Z" fill="#070B10"></path><path d="M254.008 41.1739C252.565 42.4162 250.447 43.0381 247.651 43.0381H238.765V27.5803H247.651C250.447 27.5803 252.565 28.1962 254.008 29.4281C255.449 30.6599 256.171 32.6205 256.171 35.3092C256.171 37.9762 255.449 39.9309 254.008 41.1739ZM258.035 26.2588C255.661 24.2025 252.322 23.1732 248.018 23.1732L237.368 23.2076H233.44V47.4445H248.018C252.322 47.4445 255.661 46.4167 258.035 44.3596C260.409 42.3041 261.596 39.2865 261.596 35.3092C261.596 31.3319 260.409 28.3151 258.035 26.2588Z" fill="#070B10"></path><path d="M13.6341 18.9515H26.61H30.972H32.9916L20.1081 11.2121L7.22388 18.9515H13.6341Z" fill="#1F4A8E"></path><path d="M26.2277 38.5764L25.6362 40.2702L23.9425 45.1198H10.9666V45.1146L13.2562 38.5764H26.2277Z" fill="#01804D"></path><path d="M13.2567 38.5764H6.77171L4.48136 45.1146H0.0078125V23.2861L7.17092 18.9836L11.3458 25.4897L9.05618 32.0331L13.2567 38.5764Z" fill="#1F4A8E"></path><path d="M30.8075 25.4896L28.5172 32.033H15.5413L17.836 25.4896H30.8075Z" fill="#01804D"></path><path d="M40.2054 23.2861V47.434L20.1067 59.5102L7.04492 51.6572H8.67774L10.9674 45.1198L15.1628 51.6572L21.6537 51.6625H28.1394L29.8324 46.8129L32.1228 40.2702L32.7143 38.5764L28.5181 32.033H35.0039L37.2942 25.4896L33.1641 19.0516L40.2054 23.2861Z" fill="#79B966"></path></svg> 