<?xml version="1.0" encoding="UTF-8"?> <!-- Generator: Adobe Illustrator 24.1.1, SVG Export Plug-In . SVG Version: 6.00 Build 0) --> <svg xmlns="http://www.w3.org/2000/svg" xmlns:xlink="http://www.w3.org/1999/xlink" id="Слой_1" x="0px" y="0px" viewBox="0 0 1649.78 928" style="enable-background:new 0 0 1649.78 928;" xml:space="preserve"> <style type="text/css"> .st0{fill:#BD9F56;} </style> <g> <path class="st0" d="M1117.43,129.76c0.52-0.87,1.48-4.21,2.73-2.28c27.74,32.65,45.36,72.54,57.84,113.2 c20.9-28.46,49.15-50.66,79.25-68.69c21.6-12.65,44.49-23.58,68.82-29.76c0.35,32.71-6.06,65.25-16.33,96.22 c-8.81,26.07-20.86,51.2-37.53,73.19c42.97,0.63,86.68,6.85,126.02,24.93c-7,6.54-15.17,11.65-22.69,17.55 c-31.57,23.69-66.08,44.75-104.68,54.58c19.02,12.91,37.37,26.76,55.77,40.52c-24.23,6.01-49.04,11.1-74.12,10.61 c-18.52,0.13-37.05-3.55-54.14-10.66c-17.74-7.75-30.71-22.69-43.71-36.47c-8.09-9.43-17.52-17.68-28.05-24.29 c-19.62-10.87-41.45-19.06-57.44-35.38c-12.8-14.37-21.85-31.82-27.64-50.1c-7.76-24.69-10.03-50.72-10.74-76.47 c18.43,13.46,36.38,27.57,54.06,42.02c-0.41-27.22,3.85-54.41,11.87-80.4C1102.5,168.27,1109.88,148.97,1117.43,129.76 L1117.43,129.76z M1114.74,184.28c-7.82,23.39-13.98,47.67-14.18,72.46c-0.57,17.53,4.92,34.58,11.77,50.49 c7.5,17.35,17.6,33.38,27.59,49.36c-13.77-13.08-26.26-27.6-36.39-43.69c-4.8-7.38-8.29-15.59-13.84-22.47 c-12.25-15.63-28.53-27.31-43.83-39.73c1.3,12.13,2.72,24.27,4.77,36.31c3.05,17.69,8.98,35.21,19.64,49.82 c6.79,8.75,15.74,15.59,25.34,20.99c14.76,9.02,31.41,15.03,44.7,26.33c6.09,4.7,12.68,8.83,17.99,14.48 c13.88,13.59,26,29.57,43.18,39.29c13.83,7.33,29.78,9.77,45.28,9.8c17.6-0.17,34.9-3.71,52.26-6.16 c-20.5-14.46-40.96-31.13-66.23-36.04c-21.93-4.85-42.51-14.35-61.95-25.4c14.64,3.88,29.09,8.58,44.06,11.14 c23.09,4.27,47.83,5.75,70.11-3.01c30.89-10.84,57.63-30.29,83.99-49.2c-35.92-8.91-73.41-15.98-110.4-9.94 c-31.42,4.88-60.46,18.41-89.49,30.7c20.77-15.23,42.9-28.5,63.67-43.73c19.78-14.45,38.18-31.52,50.55-52.9 c17.54-29.59,23.49-64.33,25.56-98.21c-31.06,10.7-61.66,25.52-85.06,49.08c-15.11,14.97-26.24,33.5-34.36,53.05 c-11.7,28.1-19.03,57.77-29.6,86.29c3.88-29.7,8.29-59.66,5.56-89.67c-3.51-39.04-20.99-75.06-40.52-108.44 C1121.05,164.76,1118.04,174.58,1114.74,184.28L1114.74,184.28z M1220.83,232.1c20.18-26.88,50.36-43.84,80.49-57.36 c-3.89,30.69-11.6,61.86-28.93,87.92c-16.34,24.36-40.95,41.37-65.53,56.55c-8.55,5.28-17.13,10.55-25.94,15.38 c4.74-18.72,9.67-37.43,16.02-55.67C1202.77,262.36,1210.14,246.12,1220.83,232.1L1220.83,232.1z M250.78,407.1 c19.77,0.01,39.55-0.1,59.34,0.03c20.6,45.26,41.67,90.32,62.37,135.54c1.62,3.78,3.43,7.47,5.54,11.01 c22.46-48.82,44.64-97.76,67.05-146.59c19.69,0.07,39.4-0.22,59.09,0.14c-3.35,7.59-13.33,6.86-18.91,12.09 c-9.05,6.74-9.31,18.95-9.32,29.19c0.48,13.55-0.34,27.12,0.31,40.67c0.06,11.23,0.23,22.48-0.22,33.72 c-0.07,6.22,0.58,12.44,0.15,18.67c-0.71,8.86,0.41,17.71,0.1,26.58c0.09,6.85-0.38,14.19,2.81,20.49 c3.72,4.78,9.26,8.14,15.24,9.23c3.18,0.59,6.31,1.56,9.19,3.08c-0.02,1.2-0.03,2.41-0.03,3.61c-28.84,0.02-57.67-0.14-86.5,0.07 c0.2-1.37,0.41-2.74,0.64-4.09c7.04-1.51,14.81-2.61,20.05-8.08c6.25-5.37,6.04-14.33,6.32-21.86 c-0.1-39.56,0.26-79.13-0.19-118.69c-21.79,46.36-42.62,93.18-64.12,139.67c-2.05,4.16-3.46,8.66-6.02,12.55 c-2.37,0.45-4.81,0.46-7.21,0.63c-9.1-18.65-17.33-37.73-26.13-56.52c-14.74-31.85-29.08-63.88-44.05-95.61 c-0.65,4-0.8,8.07-0.69,12.13c0.08,35.26-0.03,70.54,0.07,105.82c0.36,5.82,0.2,11.97,2.59,17.42c3.52,5.23,9.14,8.93,15.2,10.53 c3.79,1.28,8.97,1.26,10.31,5.89c-24.2,0.35-48.41-0.08-72.62,0.21c0.02-1.05,0.05-2.09,0.07-3.14c6.25-2.05,13.24-2.75,18.52-7.03 c2.94-2.51,5.94-5.37,7.09-9.18c1.53-5.18,1.44-10.64,1.48-15.98c-0.06-43.35,0.03-86.7-0.06-130.04 c-0.13-6.1-0.5-13.26-5.47-17.53c-6.61-4.66-14.54-6.96-21.41-11.19C251.17,409.38,250.97,408.24,250.78,407.1L250.78,407.1z M531.73,407.24c17.12-0.31,34.26-0.09,51.4-0.16c13.55,0.08,27.1-0.24,40.66,0.36c12.7,0.76,25.85,2.2,37.16,8.48 c12.6,7.01,22.98,19.17,25.45,33.65c3.09,15.82-1.8,33.24-13.74,44.32c-8.4,8.37-19.71,12.74-30.87,16.04 c12.47,17.91,25.48,35.43,38.18,53.16c6.67,8.79,13.25,18.11,22.72,24.13c7.64,5.18,16.34,8.33,24.77,11.94 c0.51,1.58,1.05,3.17,1.58,4.77c-2.95,0.37-5.92,0.66-8.88,0.65c-14.74-0.1-29.48,0.02-44.21-0.09c-1.7,0.28-2.98-0.64-3.87-1.95 c-21.49-29.3-42.59-58.92-64.19-88.15c-5.29,0.17-10.59,0.16-15.89,0.12c-0.05,18.32,0,36.62-0.02,54.93 c0.12,5.97,0.24,12.15,2.41,17.81c1.58,2.92,4.24,5.07,6.87,7.02c5.04,3.66,11.44,4.1,17.23,5.88c0.42,1.43,0.84,2.87,1.26,4.34 c-21.89,0.16-43.76,0-65.65,0.06c-7.38-0.13-14.8,0.48-22.12-0.63c0.46-0.93,1.4-2.79,1.86-3.72c6.94-2.3,15.56-2.22,20.35-8.6 c5.65-7.64,5.61-17.7,5.81-26.78c-0.03-36.07-0.01-72.13-0.01-108.2c-0.01-8.96,0.44-18.18-2.45-26.79 c-1.38-4.31-3.86-8.35-7.5-11.1c-4.17-3.36-9.59-4.32-14.33-6.58C533.55,411.33,532.87,408.98,531.73,407.24L531.73,407.24z M591.93,424.79c0.01,25.22,0.16,50.44-0.07,75.67c10.48,0.52,21.18-0.03,31.2-3.42c10.62-3.36,19.82-11.34,24.18-21.63 c6.23-16.24,1.84-37.57-13.63-47C621.24,420.34,605.68,422.15,591.93,424.79L591.93,424.79z M738.95,407.29 c29.75-0.44,59.53-0.19,89.3-0.12c-0.66,1.86-1.35,3.71-2.03,5.57c-6.66,1.96-14.8,1.29-19.9,6.75c-4.95,6.1-5.7,14.39-5.75,21.96 c0.02,43.41-0.02,86.82,0.02,130.24c0.23,7.6,1.19,16.38,7.35,21.64c4.68,3.99,11.29,3.22,16.8,5.15c2.29,0.81,2.67,3.56,3.79,5.43 c-6.61,0.99-13.3,0.57-19.95,0.62c-15.91,0.02-31.81-0.01-47.71,0c-7.21-0.12-14.46,0.44-21.63-0.6c0.55-1.59,1.1-3.17,1.66-4.75 c6.95-2.77,15.92-1.5,20.94-8.07c4.95-6.85,5.21-15.85,5.36-24c-0.06-38.36-0.01-76.71-0.02-115.08 c-0.01-8.98,0.46-18.26-2.67-26.84c-1.24-3.77-4-7-7.54-8.76c-4.44-2.27-9.66-1.66-14.24-3.46 C740.46,411.98,740.07,409.18,738.95,407.29L738.95,407.29z M844.61,407.14c29.05,0.06,58.1-0.35,87.15,0.16 c-1.8,5.87-8.26,6.65-13.25,8.28c-4.2,1.2-8.55,3.96-9.33,8.59c-0.99,5.86,2.7,11.03,5.44,15.87c13.35,21.14,27,42.09,40.49,63.14 c11.77-18.4,23.62-36.75,35.35-55.17c3.87-6.23,7.97-12.58,9.48-19.86c0.31-2.51,0.6-5.28-0.58-7.59 c-4.59-7.54-17.23-4.15-20.07-13.32c24.16-0.29,48.34-0.13,72.5-0.07c-0.21,5.18-5.97,5.6-9.53,7.65 c-11.44,5.87-20.76,15.31-27.69,26.04c-16.06,25.34-32.29,50.57-48.51,75.8c-1.48,2.2-2.51,4.71-2.3,7.42 c0.12,15.85-0.06,31.71,0.08,47.57c0.42,7.6,1.7,16.35,8,21.46c5.85,5.54,16.07,3.1,20.47,10.53c-5.78,1.38-11.72,0.86-17.59,0.91 c-23.61,0.05-47.21-0.03-70.82,0.05c0.65-1.91,0.76-4.64,3.24-5.04c6.3-1.81,13.46-2.43,18.28-7.43c5.07-3.99,5.9-10.8,6.02-16.78 c0.24-14.76-0.02-29.52,0.13-44.27c-0.07-3.21,0.42-6.76-1.65-9.47c-16.78-25.94-33.6-51.85-50.37-77.8 c-5.46-8.3-10.75-17.02-18.66-23.27c-4.57-4.03-10.25-6.33-15.8-8.67C844.92,410.25,844.76,408.68,844.61,407.14L844.61,407.14z M1099.53,407.04c2.7,0.02,5.39,0.07,8.11,0.1c21.9,50.98,43.8,101.96,65.69,152.95c4.97,11.34,9.77,23.51,19.41,31.8 c4.17,3.75,9.87,4.79,14.56,7.62c0.58,1.6,0.85,3.29,1.26,4.97c-19.79,0.09-39.6,0.01-59.39,0.02c-7.42-0.17-14.89,0.58-22.22-0.72 c1-1.55,1.79-3.28,3.14-4.56c4.54-2.48,10.59-1.56,14.44-5.37c3.89-4.5,2.99-11.04,1.41-16.31c-4-12.65-10.04-24.54-14.65-36.96 c-14.16-1.06-28.38-0.24-42.56-0.5c-9.75,0.02-19.49-0.08-29.23,0.08c-4.71,12.22-10.65,23.93-15.06,36.26 c-1.42,4.43-2.96,9.76-0.2,14.01c5.38,7.35,17.89,4.04,21.53,13.33c-7.42,1.27-14.95,0.57-22.41,0.74 c-14.87-0.13-29.72,0.24-44.57-0.22c1.26-5.74,7.72-6.45,11.63-9.73c10.6-7.94,15.76-20.65,21.04-32.36 C1054.11,510.49,1076.92,458.81,1099.53,407.04L1099.53,407.04z M1084.98,481.05c-6.13,14.62-12.72,29.06-18.57,43.78 c19.41,0.09,38.81,0.1,58.22,0.02c-9.7-22.7-18.76-45.7-28.76-68.26C1091.55,464.4,1088.68,472.92,1084.98,481.05L1084.98,481.05z M832.48,660.84c3.58-9.25,18.1-11.34,24.4-3.78c2.06,2.56,2.53,6.38,0.84,9.28c-1.85,3.64-6.15,5.13-8.26,8.48 c4.92,5.9,10.15,11.62,15.87,16.8c2.3-3.98,4.74-8.38,3.16-13.11c-1.7-0.87-3.38-1.77-5.04-2.66c5.78-1.07,11.66-0.46,17.49-0.27 c-2.31,1.52-5.22,2.63-6.4,5.33c-2.21,4.34-4.29,8.74-6.9,12.86c2.65,1.88,5.23,4.02,8.33,5.15c3.37,1.2,6.15-1.69,8.96-3.05 c-1.69,4.83-4.37,10.68-10.16,11.32c-5.67,0.93-10.14-3.2-15.04-5.15c-5,1.81-9.57,5.21-15.1,5.16 c-6.07,0.71-12.38-1.82-16.16-6.61c-3.24-4.75-3.39-12.02,0.86-16.23c2.29-2.59,5.07-4.7,7.8-6.8 C833.72,672.77,830.53,666.89,832.48,660.84L832.48,660.84z M839.19,657.24c-0.31,5.59,2.96,10.48,6.93,14.09 c2.16,0.81,3.84-1.31,4.86-2.92C853.07,661.87,845.93,653.71,839.19,657.24L839.19,657.24z M838.77,679.47 c-1.73,2.43-4.84,5.13-3.43,8.44c3.06,8.3,12.62,13.99,21.36,11.61C850.71,692.85,844.68,686.23,838.77,679.47L838.77,679.47z M514.96,658.23c4.73-5.42,12.87-6.01,19.32-3.84c2.55,0.74,5.04,2.22,7.79,1.77c0.84-1.17,1.53-2.42,2.27-3.64 c0.62,6.22,1.03,12.48,0.46,18.72c-2.66-5.08-4.79-11.19-10.44-13.7c-4.78-2.78-12.38-2.03-14.59,3.65 c-1.31,5.85,5.03,8.86,9.3,11.02c7.18,3.78,16.63,7.04,18.93,15.77c2.55,9.41-5.87,18.43-15.02,19.12 c-5.21,0.87-10.15-1.07-15.04-2.45c-2.75-1.01-4.66,1.69-6.74,2.96c-0.33-6.92-0.53-13.87,0.34-20.76 c2.49,5.77,4.64,12.51,10.63,15.61c4.99,3.31,12.68,3.15,16.25-2.14c2.24-3.2,0.51-7.46-2.38-9.58 c-6.66-5.23-15.64-7.01-21.43-13.46C509.75,672.15,509.89,663.17,514.96,658.23L514.96,658.23z M927.75,673.37 c-4.21-8.95,3.61-19.96,13.2-20c4.95-0.73,9.55,1.3,14.13,2.79c2.55,1.26,3.6-1.82,5.1-3.25c0.14,6.09,0.51,12.2,0.02,18.31 c-2.46-5.32-4.75-11.46-10.64-13.84c-4.74-2.72-13.75-1.62-14.17,4.99c-0.59,5.22,4.95,7.59,8.76,9.6 c6.78,3.66,15.4,6.36,18.71,13.98c3.53,7.89-1.71,17.66-9.78,20.05c-5.95,2.42-12.49,1.21-18.26-1.09 c-3.12-1.62-5.79,0.86-8.21,2.52c0.03-6.81-0.34-13.63,0.35-20.41c2.82,5.43,4.6,12.13,10.39,15.25 c4.72,3.08,11.87,3.59,15.88-0.89c2.81-3.24,1.77-8.74-1.88-10.93C943.58,684.72,932.23,682.83,927.75,673.37L927.75,673.37z M1078.89,652.9c6.03,11.53,10.83,23.66,16.38,35.43c3.18,6.35,4.9,14.45,12.08,17.56c-9.05,0.05-18.18,0.74-27.2-0.4 c2.45-0.65,4.92-1.26,7.38-1.88c-0.77-4.2-2.42-8.15-4.17-12.01c-6.29-0.31-12.7-1.01-18.91,0.12c-1.89,2.88-3.54,6.33-3.2,9.88 c0.38,2.95,4.3,2.39,6.42,3.45c-0.01,0.23-0.02,0.7-0.03,0.93c-5.93,0.06-11.84,0.12-17.76-0.08c3.14-2.14,6.52-4.34,8.11-7.95 C1065.05,682.98,1071.71,667.82,1078.89,652.9L1078.89,652.9z M1073.82,670.75c-2.53,5.92-5.65,11.6-7.53,17.77 c5.1,0.01,10.22,0.01,15.33-0.02C1079.16,682.51,1076.59,676.58,1073.82,670.75L1073.82,670.75z M351.37,654.88 c9.39-0.89,18.84-0.37,28.27-0.48c6,0.15,12.87,0.01,17.54,4.44c4.56,4.01,5.63,11.4,2.38,16.53c-2.19,3.36-6.06,4.9-9.53,6.56 c4.06,6.06,8.54,11.82,12.77,17.77c1.87,2.72,4.7,4.5,7.44,6.23c-5.74-0.02-11.52,0.56-17.24-0.16 c-6.04-7.35-11.33-15.34-16.93-23.05c-0.95-0.06-2.87-0.2-3.82-0.26c0.08,7.04-0.65,14.19,0.94,21.13c2.1,0.48,4.2,0.96,6.31,1.44 c0.01,0.23,0.03,0.7,0.06,0.93c-9.14-0.1-18.32,0.76-27.4-0.48c2.34-0.78,4.7-1.5,7.06-2.23c0.81-15.31,0.6-30.7,0.1-46.02 C356.68,656.43,354.01,655.71,351.37,654.88L351.37,654.88z M372.24,657.02c-0.02,7.51,0.02,15.03-0.06,22.56 c5.21,0.1,12.17,0.67,15.05-4.75c2.14-5.11,1.98-12.38-2.89-15.91C380.74,656.63,376.28,657.22,372.24,657.02L372.24,657.02z M431.97,654.72c15.04-0.69,30.1-0.19,45.16-0.33c0.03,5.25,0.07,10.51-0.34,15.76c-1.78-3.31-2.77-7.18-5.51-9.84 c-5.18-3.95-12.13-2.87-18.23-3.07c0.01,7.15-0.13,14.28,0.14,21.43c2.81-0.62,6.24-0.73,8.04-3.34c2.05-2.99,2.6-6.66,3.77-10.03 c1.53,9.51,1.21,19.26,0.07,28.79c-1.41-3.75-2.09-8.05-5.04-10.98c-1.98-1.48-4.58-1.58-6.89-2.16c-0.1,7.16-0.27,14.33,0.3,21.48 c6.29,1.3,13.23,1.32,18.93-1.98c4.18-2.63,5.81-7.55,8.18-11.62c0.07,5.76-1,11.44-1.87,17.12c-15.13,0.19-30.28,0.09-45.42,0.03 c0.01-0.33,0.02-0.96,0.02-1.29c0.96,0.07,2.87,0.22,3.84,0.29c1.81-1.74,3.17-3.92,2.82-6.54c-0.15-13.72,0.44-27.44-0.33-41.15 C437.08,656.4,434.51,655.58,431.97,654.72L431.97,654.72z M596.03,654.45c10.22-2.08,22.35-1.15,29.95,6.81 c9.03,9.05,9.79,24.57,2.35,34.83c-10.96,16.13-39.54,14.83-48.42-2.78c-3.96-7.69-4.43-17.33-0.57-25.16 C582.48,661.39,588.9,656.44,596.03,654.45L596.03,654.45z M600.79,656.86c-4.27,1.65-7.05,5.78-8.22,10.07 c-2.14,7.79-2.23,16.09-0.6,23.99c0.74,3.38,1.92,6.8,4.14,9.53c4.44,5.22,13.62,5.31,17.95-0.12c4.61-5.75,5-13.49,5.08-20.55 c-0.17-6.49-0.49-13.51-4.36-18.99C611.77,656.45,605.6,654.9,600.79,656.86L600.79,656.86z M653.22,654.79 c8.73-0.77,17.5-0.28,26.26-0.41c6.21,0.12,13.06-0.2,18.36,3.63c5.5,3.87,7,12.2,3.14,17.72c-2.2,3.29-6.07,4.65-9.51,6.21 c6.73,7.93,11.23,17.97,19.94,24.01c-5.67,0.16-11.33,0.16-17,0.03c-5.46-7.88-11.31-15.49-16.8-23.35 c-1.19-0.1-2.38-0.19-3.56-0.27c-0.1,7-0.34,14.02,0.36,21c2.31,0.62,4.63,1.21,6.96,1.79c0.01,0.2,0.02,0.58,0.02,0.78 c-9.33,0.1-18.69,0.34-28.02-0.19c3.18-1.27,8.28-1.52,7.97-6.15c0.3-11.66-0.06-23.32,0.14-34.97c-0.21-2.48,0.35-5.32-1.23-7.43 C658.01,656.14,655.57,655.59,653.22,654.79L653.22,654.79z M674.02,679.71c4.38-0.3,9.58,0.59,13.11-2.65 c4.03-4.24,3.98-11.51,0.86-16.26c-3.22-4.27-9.21-3.56-13.91-3.84C673.89,664.54,673.96,672.12,674.02,679.71L674.02,679.71z M733.3,654.44c15.92-0.09,31.85-0.05,47.77-0.05c0.08,4.77,0.31,9.6-0.66,14.32c-1.45-2.92-2.52-6.08-4.54-8.65 c-3.17-3.29-8.11-2.73-12.26-3.01c-0.15,12.61-0.01,25.22-0.09,37.83c0.03,2.43-0.1,4.93,0.44,7.33c1.74,2.49,5.25,2.34,7.86,3.35 c-9.4,0.95-18.88,0.38-28.3,0.43c0-0.2,0.02-0.62,0.02-0.83c3.07-0.55,7.46-1.35,7.08-5.46c0.23-14.19,0.09-28.39,0.07-42.59 c-4.06,0.24-8.8-0.28-11.99,2.73c-2.3,2.61-3.48,5.95-5.09,8.98C733.27,664.04,733.27,659.23,733.3,654.44L733.3,654.44z M988.19,654.78c8.68-0.66,17.4-0.34,26.11-0.36c6.03,0.01,12.84,1.15,16.82,6.17c2.8,3.17,3.06,7.78,2.06,11.73 c-1.48,4.65-5.82,7.86-10.38,9.15c-4.54,1.21-9.29,1.1-13.94,1.22c0.22,6.53-0.57,13.15,0.44,19.63c1.63,2.37,5.09,2.16,7.54,3.25 c-9.5,0.8-19.06,0.64-28.57,0.14c2.24-0.74,4.57-1.26,6.73-2.25c1.99-1.31,1.17-4.1,1.5-6.09c-0.2-13.33,0.27-26.67-0.33-39.99 C993.51,656.48,990.82,655.68,988.19,654.78L988.19,654.78z M1008.85,679.83c3.21-0.44,7.11-0.16,9.4-2.94 c3.17-4.29,3.15-10.45,1.07-15.18c-1.86-3.96-6.67-4.13-10.38-4.82C1008.75,664.54,1008.84,672.19,1008.85,679.83L1008.85,679.83z M574.05,766.52c2.82-5.25,4.38-11.38,8.38-15.88c3.03,5.11,5.34,10.64,8.04,15.94c6.31,1.2,12.73,1.84,19.02,3.21 c-4.38,4.21-9.14,8.09-13.05,12.74c-0.44,6.28,1.84,12.39,2.57,18.6c-6.03-1.89-11.05-6.38-17.13-7.85 c-5.67,2.12-10.77,5.46-16.17,8.17c0.59-6.24,1.67-12.4,2.85-18.54c-4.42-4.45-8.93-8.82-13.39-13.22 C561.41,768.37,567.8,767.89,574.05,766.52L574.05,766.52z M647.43,766.26c3.34-5.15,5.25-11.08,8.57-16.25 c3.06,5.44,5.01,11.54,8.73,16.59c6.01,1.49,12.24,1.86,18.36,2.75c-4.38,4.67-9.11,9-13.59,13.58c1.16,6.15,2.31,12.32,2.94,18.56 c-5.47-2.71-10.65-6.04-16.31-8.36c-5.97,1.82-10.95,5.96-16.9,7.94c0.64-6.08,2.6-12.08,2.5-18.2 c-3.73-4.85-8.89-8.41-12.56-13.34C635.17,768.05,641.67,768.4,647.43,766.26L647.43,766.26z M729.05,751.08 c0.28,0,0.83,0.01,1.1,0.01c2.92,4.85,5.04,10.12,7.51,15.21c6.17,1.67,12.58,2.08,18.85,3.23c-3.79,4.72-8.69,8.38-12.62,12.94 c-0.5,6.21,1.73,12.26,2.51,18.39c-6.09-1.59-10.97-5.86-16.91-7.75c-5.7,2.15-10.76,5.63-16.25,8.23 c0.45-6.17,1.64-12.26,2.72-18.34c-4.3-4.59-8.91-8.86-13.41-13.25c6.25-1.39,12.67-1.85,18.91-3.32 C723.94,761.28,726.17,756,729.05,751.08L729.05,751.08z M795.07,766.57c2.62-5.58,5.18-11.19,8.44-16.43 c2.79,5.42,5.49,10.89,8.07,16.41c6.25,1.3,12.63,1.87,18.9,3.11c-4.51,4.37-9,8.76-13.42,13.22c0.94,6.09,2.06,12.16,2.99,18.25 c-5.68-2.09-10.66-5.64-16.25-7.89c-6.15,1.52-11.34,5.61-17.03,8.35c0.46-6.28,1.84-12.44,2.94-18.61 c-4.16-4.52-9.22-8.23-12.75-13.3C782.9,768.12,789.08,767.94,795.07,766.57L795.07,766.57z M875.15,753.43 c0.6-1,1.01-2.42,2.36-2.58c2.99,4.95,5.16,10.33,7.61,15.56c6.21,1.39,12.56,1.93,18.79,3.21c-3.53,4.16-7.8,7.6-11.53,11.58 c-1.32,1.07-1.08,2.86-1.02,4.38c0.4,5.24,1.65,10.37,2.42,15.56c-5.86-2.07-10.88-5.9-16.68-8.02 c-5.92,2.15-11.13,5.79-16.85,8.39c0.91-6.4,2.35-12.74,2.82-19.19c-4.49-4.13-8.9-8.35-13.09-12.77 c6.15-1.21,12.52-1.35,18.54-3.15C871.25,762.36,872.82,757.69,875.15,753.43L875.15,753.43z M343.56,779.26 c52.32-1.62,104.64-3.03,156.97-4.56c9.02-0.15,18.03-0.59,27.05-0.46c-0.03,4.02,0.2,8.09-0.37,12.1 c-13.55,0.14-27.14-0.28-40.68-0.93c-49.58-1.14-99.14-2.89-148.73-4.16c-6.38-0.43-12.76-0.63-19.14-0.91 C326.91,779.11,335.26,779.66,343.56,779.26L343.56,779.26z M931.99,774.16c62.31,1.29,124.59,3.48,186.89,5.17 c7.11,0.28,14.28-0.1,21.36,0.95c-32.65,1.84-65.38,1.88-98.04,3.31c-36.76,0.72-73.5,2.34-110.27,2.91 C931.95,782.37,931.97,778.26,931.99,774.16L931.99,774.16z"></path> </g> </svg> 