<?xml version="1.0" encoding="UTF-8"?> <svg xmlns="http://www.w3.org/2000/svg" width="397" height="63" viewBox="0 0 397 63" fill="none"><path d="M76.5732 7.04951V0H50.5059C37.3565 0 26.6963 10.6602 26.6963 23.8107V63H33.7458V24.7455C33.7458 14.9731 41.6682 7.05066 51.4406 7.05066H76.5721L76.5732 7.04951Z" fill="#FF4808"></path><path d="M31.0309 0H0V7.04951H24.7088C26.4443 4.38733 28.5807 2.00809 31.0321 0H31.0309Z" fill="#FF4808"></path><path d="M65.3323 28.2003H54.8966V35.2498H65.3323C71.0484 35.2498 75.682 39.8834 75.682 45.5995C75.682 51.3157 71.0484 55.9493 65.3323 55.9493H47.8471V24.9882C47.8471 22.8679 49.5654 21.1496 51.6857 21.1496H76.5744V14.1001H50.121C44.9719 14.1001 40.7976 18.2744 40.7976 23.4235V62.9999H65.3334C74.9432 62.9999 82.7327 55.2104 82.7327 45.6007C82.7327 35.9909 74.9432 28.2014 65.3334 28.2014L65.3323 28.2003Z" fill="#FF4808"></path><path d="M0 21.1496H19.8472C20.0569 18.7074 20.5529 16.3465 21.302 14.1001H0V21.1496Z" fill="#FF4808"></path><path d="M357.246 50.541V54.3174C357.246 56.3199 355.623 57.9427 353.621 57.9427H342.004C340.001 57.9427 338.378 56.3199 338.378 54.3174V51.8842C338.378 49.8817 340.001 48.2589 342.004 48.2589H362.547C361.888 45.5338 359.44 43.5068 356.511 43.5068H339.111C335.678 43.5068 332.896 46.2891 332.896 49.7225V56.477C332.896 59.9105 335.678 62.6927 339.111 62.6927H356.511C359.944 62.6927 362.727 59.9105 362.727 56.477V50.541H357.244H357.246Z" fill="#FF4808"></path><path d="M174.091 51.8822C174.091 49.8797 175.714 48.2569 177.717 48.2569H189.333C191.336 48.2569 192.959 49.8797 192.959 51.8822V55.6585H198.442V49.7225C198.442 46.2891 195.657 43.5068 192.226 43.5068H174.826C171.393 43.5068 168.61 46.2891 168.61 49.7225V57.9427H165.481V62.6947H201.573V57.9427H174.093V51.8822H174.091Z" fill="#FF4808"></path><path d="M314.308 50.5415H308.825V62.6932H314.308V50.5415Z" fill="#FF4808"></path><path d="M163.879 43.5051H158.396V50.5393H141.813C140.551 50.5393 139.528 49.5166 139.528 48.2551V43.503H134.046V49.439C134.046 52.8724 136.828 55.6547 140.261 55.6547H158.137C157.604 56.9917 156.297 57.9388 154.771 57.9388H145.397V57.9429C145.268 57.9389 145.14 57.9368 145.011 57.9368H135.895V62.6889H154.638H157.663C161.096 62.6889 163.879 59.9066 163.879 56.4732V53.9768V43.501V43.5051Z" fill="#FF4808"></path><path d="M128.34 43.5049H104V48.257H128.34V43.5049Z" fill="#FF4808"></path><path d="M127.756 50.5421H109.483H104V52.9487V59.9829V62.6937H127.756C131.112 62.6937 133.833 59.9727 133.833 56.6169C133.833 53.261 131.112 50.54 127.756 50.54V50.5421ZM127.209 57.9437H109.485V55.6595H127.209C127.84 55.6595 128.35 56.1699 128.35 56.8006C128.35 57.4314 127.84 57.9417 127.209 57.9417V57.9437Z" fill="#FF4808"></path><path d="M229.938 43.5045H224.455V50.5387H207.872C206.61 50.5387 205.588 49.516 205.588 48.2545V43.5024H200.105V49.4384C200.105 52.8719 202.889 55.6541 206.321 55.6541H224.194C223.661 56.9911 222.355 57.9383 220.828 57.9383H212.487C212.473 57.9383 212.459 57.9383 212.446 57.9383H203.857V62.6903H222.763H223.722C227.156 62.6903 229.938 59.9081 229.938 56.4747V53.9782V43.5024V43.5045Z" fill="#FF4808"></path><path d="M270.249 43.5049H264.766V55.6565H270.249V43.5049Z" fill="#FF4808"></path><path d="M270.247 57.9427H254.166V43.5068H248.683V57.9427H241.71C239.708 57.9427 238.085 56.3199 238.085 54.3174V43.5068H232.602V56.4791C232.602 59.9125 235.384 62.6947 238.818 62.6947H274.875V62.5723C274.875 60.0146 272.803 57.9427 270.245 57.9427H270.247Z" fill="#FF4808"></path><path d="M299.608 43.5045H282.068C278.634 43.5045 275.852 46.2867 275.852 49.7201V56.4767C275.852 59.9101 278.634 62.6924 282.068 62.6924H299.468C302.395 62.6924 304.844 60.6654 305.504 57.9403H284.96C282.958 57.9403 281.335 56.3175 281.335 54.315V51.8818C281.335 49.8794 282.958 48.2565 284.96 48.2565H299.059C299.69 48.2565 300.202 48.7669 300.202 49.3976C300.202 50.0284 299.69 50.5387 299.059 50.5387H283.572V55.6561H299.606C302.962 55.6561 305.683 52.9351 305.683 49.5793C305.683 46.2234 302.962 43.5024 299.606 43.5024L299.608 43.5045Z" fill="#FF4808"></path><path d="M319.972 43.5049H318.319H316.433H308.823V48.257H309.235H312.775H315.557H319.099H319.193H325.516H329.468H330.446V43.5049H329.468H319.972Z" fill="#FF4808"></path><path d="M384.461 21.04H378.978V33.1917H384.461V21.04Z" fill="#FF4808"></path><path d="M122.024 21.04H116.542V33.1917H122.024V21.04Z" fill="#FF4808"></path><path d="M378.921 18.7555H383.003H384.222H388.306H397V14.0034H391.699H384.222H383.003H371.737H366.436V18.7555H378.921Z" fill="#FF4808"></path><path d="M116.484 18.7557H120.567H121.786H125.87H134.564V14.0037H129.263H121.786H120.567H109.301H104V18.7557H116.484Z" fill="#FF4808"></path><path d="M307.444 33.192H324.843C328.277 33.192 331.059 30.4097 331.059 26.9763V21.0403H325.576V24.8166C325.576 26.8191 323.953 28.4419 321.951 28.4419H310.334C308.331 28.4419 306.709 26.8191 306.709 24.8166V22.3835C306.709 20.381 308.331 18.7582 310.334 18.7582H330.877C330.218 16.0331 327.77 14.0061 324.841 14.0061H307.442C304.008 14.0061 301.226 16.7884 301.226 20.2218V26.9763C301.226 30.4097 304.008 33.192 307.442 33.192H307.444Z" fill="#FF4808"></path><path d="M176.386 26.1551H195.253V33.1913H200.736V21.0397H197.674H176.649C177.184 19.7026 178.484 18.7555 180.011 18.7555H200.555C199.895 16.0304 197.448 14.0034 194.519 14.0034H177.119C173.685 14.0034 170.903 16.7857 170.903 20.2191V20.5355V33.1893H176.386V26.153V26.1551Z" fill="#FF4808"></path><path d="M208.883 26.1551H227.752V33.1913H233.233V14.0034H227.752V21.0376H208.883V14.0034H203.4V33.1913H208.883V26.1551Z" fill="#FF4808"></path><path d="M244.915 18.7555H265.459C264.799 16.0304 262.352 14.0034 259.423 14.0034H242.023C238.59 14.0034 235.807 16.7857 235.807 20.2191V26.9757C235.807 30.4091 238.59 33.1913 242.023 33.1913H259.423C262.35 33.1913 264.797 31.1643 265.459 28.4413H244.915C242.913 28.4413 241.29 26.8185 241.29 24.816V22.3828C241.29 20.3803 242.913 18.7575 244.915 18.7575V18.7555Z" fill="#FF4808"></path><path d="M274.214 21.2444H272.828H268.731V33.1919H274.214V21.2444Z" fill="#FF4808"></path><path d="M293.081 20.0129V33.1913H298.564V18.5289C298.564 16.0284 296.537 14.0034 294.038 14.0034H273.279C270.768 14.0034 268.733 16.0386 268.733 18.5493H291.62C292.428 18.5493 293.083 19.2046 293.083 20.0129H293.081Z" fill="#FF4808"></path><path d="M142.595 14.0041H138.3V18.7561H161.507C162.138 18.7561 162.648 19.2665 162.648 19.8972C162.648 20.528 162.138 21.0383 161.507 21.0383H138.3V33.1899H143.783V26.1537H162.056C165.412 26.1537 168.133 23.4327 168.133 20.0768C168.133 16.721 165.412 14 162.056 14H142.595V14.0041Z" fill="#FF4808"></path><path d="M364.425 20.0803C364.425 16.7244 361.704 14.0034 358.348 14.0034H334.594V18.7555H357.801C358.432 18.7555 358.942 19.2658 358.942 19.8966C358.942 20.5273 358.432 21.0376 357.801 21.0376H334.594V33.1893H340.077V26.153H358.35C361.706 26.153 364.427 23.432 364.427 20.0762L364.425 20.0803Z" fill="#FF4808"></path></svg> 