<?xml version="1.0" encoding="UTF-8"?> <svg xmlns="http://www.w3.org/2000/svg" xmlns:xlink="http://www.w3.org/1999/xlink" id="Слой_1" data-name="Слой 1" viewBox="0 0 554 629.33"> <defs> <style>.cls-1{fill:none;}.cls-2{font-size:17.53px;font-family:Neris-Light, Neris;font-weight:300;}.cls-3{fill:#e72773;}.cls-4{fill:#3abbcf;}.cls-5{fill:#55358c;}.cls-6{fill:#28285b;}.cls-7{fill:#026838;}.cls-8{fill:#8dc043;}.cls-9{fill:#f3e600;}.cls-10{fill:#f39221;}.cls-11{fill:#e52428;}.cls-12{fill:#6d262c;}.cls-13{fill:#cccbcb;}.cls-14{clip-path:url(#clip-path);}.cls-15{clip-path:url(#clip-path-2);}.cls-16{opacity:0.39;}</style> <clipPath id="clip-path"> <rect class="cls-1" x="-2219.17" y="151.51" width="1920" height="1080"></rect> </clipPath> <clipPath id="clip-path-2"> <rect class="cls-1" x="-4159.17" y="2351.51" width="1920" height="1080"></rect> </clipPath> </defs> <text class="cls-2" transform="translate(86.15 169.59)"> <tspan xml:space="preserve">1 </tspan> </text> <text class="cls-2" transform="translate(272.05 169.59)"> <tspan xml:space="preserve">2 </tspan> </text> <text class="cls-2" transform="translate(457.95 169.59)">3 </text> <text class="cls-2" transform="translate(86.15 303.38)">4</text> <text class="cls-2" transform="translate(96.7 303.38)"> </text> <text class="cls-2" transform="translate(272.03 303.38)">5</text> <text class="cls-2" transform="translate(282.36 303.38)"> </text> <text class="cls-2" transform="translate(457.93 303.38)">6</text> <text class="cls-2" transform="translate(86.15 430.37)">7</text> <text class="cls-2" transform="translate(96.18 430.37)"> </text> <text class="cls-2" transform="translate(272.05 430.37)">8</text> <text class="cls-2" transform="translate(282.78 430.37)"> </text> <text class="cls-2" transform="translate(457.95 430.37)">9</text> <rect class="cls-3" x="68.37" y="93.56" width="45.19" height="45.19"></rect> <rect class="cls-4" x="257.78" y="93.56" width="45.19" height="45.19"></rect> <rect class="cls-5" x="447.19" y="93.56" width="45.19" height="45.19"></rect> <rect class="cls-6" x="70.23" y="218.99" width="45.19" height="45.19"></rect> <rect x="256.53" y="218.99" width="45.19" height="45.19"></rect> <rect class="cls-7" x="440.87" y="218.99" width="45.19" height="45.19"></rect> <rect class="cls-8" x="68.37" y="342.59" width="45.19" height="45.19"></rect> <rect class="cls-9" x="257.42" y="342.59" width="45.19" height="45.19"></rect> <rect class="cls-10" x="441.8" y="342.59" width="45.19" height="45.19"></rect> <text class="cls-2" transform="translate(86.15 553.97)">7</text> <text class="cls-2" transform="translate(96.18 553.97)"> </text> <text class="cls-2" transform="translate(272.05 553.97)">8</text> <text class="cls-2" transform="translate(282.78 553.97)"> </text> <text class="cls-2" transform="translate(457.95 553.97)">9</text> <rect class="cls-11" x="68.37" y="466.18" width="45.19" height="45.19"></rect> <rect class="cls-12" x="257.42" y="466.18" width="45.19" height="45.19"></rect> <rect class="cls-13" x="441.8" y="466.18" width="45.19" height="45.19"></rect> </svg> 