<?xml version="1.0" encoding="UTF-8"?> <svg xmlns="http://www.w3.org/2000/svg" id="Слой_1" data-name="Слой 1" viewBox="0 0 122.67 104.89"> <defs> <style>.cls-1{fill:#69982f;}.cls-2{fill:#7fba28;}.cls-3{fill:#b9cf40;}</style> </defs> <polygon class="cls-1" points="86.96 35.13 61.33 44.52 61.33 78.44 86.96 66.13 86.96 35.13"></polygon> <polyline class="cls-1" points="50.89 73.42 76.55 60.69 76.55 58.02 76.55 37.92 76.55 31.59 50.89 40.65"></polyline> <polyline class="cls-1" points="40.44 68.37 66.13 55.64 66.13 53.31 66.13 34.39 66.13 28.05 40.44 36.77"></polyline> <polyline class="cls-2" points="46.16 38.89 46.16 71.15 50.89 73.42 50.89 40.65"></polyline> <polyline class="cls-2" points="56.6 42.76 56.6 76.17 61.33 78.44 61.33 44.52"></polyline> <polyline class="cls-2" points="35.71 35.02 35.71 66.13 40.44 68.41 40.44 36.77"></polyline> <polyline class="cls-3" points="50.89 40.65 76.55 31.59 71.84 29.99 46.16 38.89"></polyline> <polyline class="cls-3" points="61.33 44.52 86.96 35.13 82.25 33.52 56.6 42.76"></polyline> <polyline class="cls-3" points="40.44 36.77 66.13 28.05 61.42 26.45 35.71 35.02"></polyline> </svg> 