<?xml version="1.0" encoding="UTF-8"?> <svg xmlns="http://www.w3.org/2000/svg" xmlns:xlink="http://www.w3.org/1999/xlink" id="Слой_1" data-name="Слой 1" viewBox="0 0 1920 1080"> <defs> <style>.cls-1,.cls-10,.cls-11,.cls-13,.cls-20,.cls-23,.cls-8{fill:none;}.cls-2{clip-path:url(#clip-path);}.cls-3{clip-path:url(#clip-path-2);}.cls-4{fill:#3abbcf;}.cls-15,.cls-5{fill:#e72773;}.cls-12,.cls-6{fill:#fff;}.cls-14,.cls-7{fill:#3bbbd0;}.cls-8{stroke:#f3e600;}.cls-10,.cls-11,.cls-13,.cls-20,.cls-23,.cls-8{stroke-miterlimit:10;}.cls-10,.cls-13,.cls-8{stroke-width:0.75px;}.cls-9{fill:#f3e600;}.cls-10{stroke:#fff;}.cls-11{stroke:#e72773;stroke-width:1.02px;}.cls-12{font-size:24.23px;font-family:Neris-Light, Neris;font-weight:300;}.cls-13{stroke:#e52421;}.cls-14,.cls-15{font-size:140.61px;font-family:GRIFTERBold, GRIFTER;}.cls-16{clip-path:url(#clip-path-5);}.cls-17{opacity:0.4;}.cls-18{clip-path:url(#clip-path-8);}.cls-19{clip-path:url(#clip-path-9);}.cls-20,.cls-23{stroke:#28285b;}.cls-21{clip-path:url(#clip-path-10);}.cls-22{clip-path:url(#clip-path-13);}.cls-23{stroke-width:1.49px;}</style> <clipPath id="clip-path"> <rect class="cls-1" y="-1080" width="1920" height="1080"></rect> </clipPath> <clipPath id="clip-path-2"> <rect class="cls-1" width="1920" height="1080"></rect> </clipPath> <clipPath id="clip-path-5"> <rect class="cls-1" x="1940" width="1920" height="1080"></rect> </clipPath> <clipPath id="clip-path-8"> <rect class="cls-1" x="1842.95" y="971.69" width="385.01" height="52.1"></rect> </clipPath> <clipPath id="clip-path-9"> <rect class="cls-1" x="1842.95" y="971.69" width="385.01" height="52.1"></rect> </clipPath> <clipPath id="clip-path-10"> <rect class="cls-1" x="548" y="1100" width="1920" height="1080"></rect> </clipPath> <clipPath id="clip-path-13"> <rect class="cls-1" x="2263.13" y="-428.89" width="645.89" height="1080"></rect> </clipPath> </defs> <rect class="cls-1" y="-1080" width="1920" height="1080"></rect> <rect class="cls-1" y="-1080" width="1920" height="1080"></rect> <g class="cls-3"> <path class="cls-4" d="M274.13,399.12c0,24.28-16.17,30.39-44.76,30.39-48.19,0-48.18-26.71-48.18-36.17H203c0,14.78,13,17.08,25.69,17.08,16.08,0,22.77-3.7,22.77-11.28,0-6.65-6.68-7.81-25.85-10.64-29.22-4.31-42.37-10.37-42.37-28.26,0-13.8,10.23-29.75,42.14-29.75,38,0,45.54,21.25,45.54,36.14H248.62c0-6.78-3-16.85-23.23-16.85-16.48,0-20.21,5.94-20.21,10.66,0,5.18,5.76,7.13,22.11,9.78,21.91,3.56,46.84,6.78,46.84,28.9"></path> <path class="cls-4" d="M377.58,429.51h-22l-5.77-16.12h-50L294,429.51H272l35-97.71H342.6ZM342.83,394l-15.36-42.91h-5.35L306.76,394Z"></path> <polygon class="cls-4" points="403.78 410.29 462.89 410.29 462.89 429.5 382.51 429.5 382.51 331.71 403.78 331.71 403.78 410.29"></polygon> <polygon class="cls-4" points="550.07 331.7 550.07 350.92 490.96 350.92 490.96 370.99 550.07 370.99 550.07 390.21 490.96 390.21 490.96 410.04 550.07 410.04 550.07 429.5 490.96 429.5 490.96 429.5 469.7 429.5 469.7 331.7 550.07 331.7"></polygon> <path class="cls-4" d="M647.86,399.12c0,24.28-16.17,30.39-44.76,30.39-48.2,0-48.18-26.71-48.18-36.17h21.82c0,14.78,13,17.08,25.69,17.08,16.08,0,22.77-3.7,22.77-11.28,0-6.65-6.68-7.81-25.85-10.64C570.12,384.19,557,378.13,557,360.24c0-13.8,10.23-29.75,42.14-29.75,38,0,45.54,21.25,45.54,36.14H622.35c0-6.78-3-16.85-23.23-16.85-16.48,0-20.21,5.94-20.21,10.66,0,5.18,5.76,7.13,22.11,9.78,21.91,3.56,46.84,6.78,46.84,28.9"></path> <path class="cls-5" d="M745.12,380.66c0,18.81-7.38,48.84-48.21,48.84h-42.1V331.71h42.1c41.43,0,48.21,30.14,48.21,49m-22,0c0-11-4.22-29.56-26.19-29.56H676.08v59h20.83c21.81,0,26.19-18.95,26.19-29.46"></path> <polygon class="cls-5" points="831.87 331.7 831.87 350.92 772.76 350.92 772.76 370.99 831.87 370.99 831.87 390.21 772.76 390.21 772.76 410.04 831.87 410.04 831.87 429.5 772.76 429.5 772.76 429.5 751.49 429.5 751.49 331.7 831.87 331.7"></polygon> <path class="cls-5" d="M925.21,367c0,36.47-32.48,35.16-41.78,35.16H860.92V429.5H839.65V331.71h21.27v.08c5.19,0,16.78-.08,22.58-.08,11.76,0,41.71.09,41.71,35.25m-19.91,0c0-16.87-13.66-16.83-20.75-16.83H860.92v33.69h23.3c5.65,0,21.08.82,21.08-16.86"></path> <path class="cls-4" d="M1439.66,604.81c0,12.14-8.08,15.19-22.38,15.19-24.1,0-24.09-13.35-24.09-18.08h10.91c0,7.38,6.5,8.54,12.85,8.54,8,0,11.38-1.85,11.38-5.64,0-3.33-3.34-3.91-12.93-5.32-14.61-2.16-21.18-5.19-21.18-14.13,0-6.91,5.11-14.88,21.07-14.88,19,0,22.77,10.63,22.77,18.07h-11.15c0-3.39-1.51-8.43-11.62-8.43-8.24,0-10.11,3-10.11,5.34,0,2.59,2.88,3.56,11.06,4.89,11,1.78,23.42,3.39,23.42,14.45"></path> <path class="cls-4" d="M1491.39,620h-11l-2.89-8.06h-25l-2.88,8.06h-11l17.49-48.85h17.81ZM1474,602.25l-7.68-21.46h-2.67L1456,602.25Z"></path> <polygon class="cls-4" points="1504.49 610.39 1534.05 610.39 1534.05 620 1493.86 620 1493.86 571.1 1504.49 571.1 1504.49 610.39"></polygon> <polygon class="cls-4" points="1577.64 571.1 1577.64 580.71 1548.08 580.71 1548.08 590.74 1577.64 590.74 1577.64 600.35 1548.08 600.35 1548.08 610.27 1577.64 610.27 1577.64 620 1548.08 620 1548.08 620 1537.45 620 1537.45 571.1 1577.64 571.1"></polygon> <path class="cls-4" d="M1626.54,604.81c0,12.14-8.09,15.19-22.39,15.19-24.09,0-24.09-13.35-24.09-18.08H1591c0,7.38,6.5,8.54,12.85,8.54,8,0,11.38-1.85,11.38-5.64,0-3.33-3.34-3.91-12.92-5.32-14.62-2.16-21.19-5.19-21.19-14.13,0-6.91,5.12-14.88,21.07-14.88,19,0,22.77,10.63,22.77,18.07h-11.15c0-3.39-1.51-8.43-11.62-8.43-8.24,0-10.1,3-10.1,5.34,0,2.59,2.88,3.56,11,4.89,11,1.78,23.43,3.39,23.43,14.45"></path> <path class="cls-5" d="M1675.17,595.58c0,9.4-3.69,24.42-24.11,24.42h-21V571.1h21c20.71,0,24.11,15.07,24.11,24.48m-11,0c0-5.51-2.11-14.79-13.09-14.79h-10.41v29.52h10.41c10.91,0,13.09-9.48,13.09-14.73"></path> <polygon class="cls-5" points="1718.54 571.1 1718.54 580.71 1688.99 580.71 1688.99 590.74 1718.54 590.74 1718.54 600.35 1688.99 600.35 1688.99 610.27 1718.54 610.27 1718.54 620 1688.99 620 1688.99 620 1678.35 620 1678.35 571.1 1718.54 571.1"></polygon> <path class="cls-5" d="M1765.22,588.72c0,18.24-16.25,17.59-20.9,17.59h-11.25V620h-10.64V571.1h10.64v0c2.59,0,8.39,0,11.29,0,5.88,0,20.86,0,20.86,17.62m-10,0c0-8.43-6.83-8.41-10.38-8.41h-11.81v16.84h11.65c2.82,0,10.54.41,10.54-8.43"></path> <path class="cls-6" d="M186.51,176a19.87,19.87,0,0,1-5-.65l.7-6a7.37,7.37,0,0,0,2.37.35,6.09,6.09,0,0,0,2.45-.44,5.77,5.77,0,0,0,2.19-2.1,13.38,13.38,0,0,0,1.84-4.52,62.39,62.39,0,0,0,1.15-8q.47-5.13.47-12.35v-8.16H221v41.39h-7.27V140.71H199.46v3.73a127.86,127.86,0,0,1-.83,16,29.47,29.47,0,0,1-2.6,9.7,9.48,9.48,0,0,1-9.52,5.88m59.25.24a16.08,16.08,0,0,1-11.83-4.73,16.38,16.38,0,0,1,.06-23.09,17.23,17.23,0,0,1,23.75,0,16.34,16.34,0,0,1,0,23.09,16.3,16.3,0,0,1-11.95,4.76m.12-6.21a8.79,8.79,0,0,0,6.86-2.9,10.32,10.32,0,0,0,2.6-7.15,10.11,10.11,0,0,0-2.72-7.13,9,9,0,0,0-6.86-2.93,8.72,8.72,0,0,0-6.8,2.9,10.34,10.34,0,0,0-2.6,7.16,10.11,10.11,0,0,0,2.72,7.09,8.86,8.86,0,0,0,6.8,3m23.89,5.5V144.32h22.11v6.15h-15v25.07Zm42.63.71a16,16,0,0,1-11.82-4.73,16.37,16.37,0,0,1,.05-23.09,17.23,17.23,0,0,1,23.75,0,16.34,16.34,0,0,1,0,23.09,16.3,16.3,0,0,1-12,4.76m.12-6.21a8.79,8.79,0,0,0,6.86-2.9A10.32,10.32,0,0,0,322,160a10.11,10.11,0,0,0-2.72-7.13,9,9,0,0,0-6.86-2.93,8.72,8.72,0,0,0-6.8,2.9A10.34,10.34,0,0,0,303,160a10.11,10.11,0,0,0,2.72,7.09,8.86,8.86,0,0,0,6.8,3m30.57,5.5V150.47H333v-6.15h27.32v6.15H350.3v25.07Zm22.94,0V144.32h7v20.93q9.83-14,14.78-20.93h6.75v31.22h-6.92V154.72l-14.84,20.82Zm37.49,0V144.32h27.86v31.22h-7.16V150.47H410.68v25.07Z"></path> <path class="cls-6" d="M183.37,554.54v-17h6.69a6.83,6.83,0,0,1,4.7,1.55,5.33,5.33,0,0,1,1.75,4.17,5.16,5.16,0,0,1-1.93,4.27,7.59,7.59,0,0,1-4.86,1.53h-3.37v5.45Zm3-8.14h3.47a4,4,0,0,0,2.66-.85,2.78,2.78,0,0,0,1-2.23,2.69,2.69,0,0,0-1-2.24,4.1,4.1,0,0,0-2.67-.79h-3.47Zm24,6a6.47,6.47,0,0,1-5.24,2.4A6.35,6.35,0,0,1,200.4,553a6.46,6.46,0,0,1-1.88-4.82,6.73,6.73,0,0,1,1.77-4.72,5.77,5.77,0,0,1,4.48-1.94,5.5,5.5,0,0,1,4.52,2,7.54,7.54,0,0,1,1.61,4.91,5.56,5.56,0,0,1-.05.82h-9.4a3.78,3.78,0,0,0,1.24,2.39,3.6,3.6,0,0,0,2.44.86,4.89,4.89,0,0,0,3.47-1.53Zm-8.89-5.19H208a4.12,4.12,0,0,0-1-2.42,2.89,2.89,0,0,0-2.25-1,3,3,0,0,0-2.23.94,4.09,4.09,0,0,0-1.09,2.43m12.43,7.3v-12.8h2.91v6.13l5.57-6.13h3.44l-5,5.38,5.38,7.42h-3.46l-3.88-5.28-2.08,2.2v3.08Zm20.45.29a6.57,6.57,0,0,1-4.84-1.94,6.71,6.71,0,0,1,0-9.46,7.06,7.06,0,0,1,9.73,0,6.7,6.7,0,0,1,0,9.46,6.67,6.67,0,0,1-4.9,2m.05-2.54a3.6,3.6,0,0,0,2.81-1.19,4.23,4.23,0,0,0,1.07-2.93,4.13,4.13,0,0,0-1.12-2.93,3.67,3.67,0,0,0-2.81-1.2,3.56,3.56,0,0,0-2.78,1.19,4.19,4.19,0,0,0-1.07,2.94,4.12,4.12,0,0,0,1.11,2.9,3.65,3.65,0,0,0,2.79,1.22m9.79,2.25v-12.8h2.91l4,5.94,4-5.94H258v12.8h-3V546l-4,5.74-4-5.69v8.48Zm28.62-2.11a6.45,6.45,0,0,1-5.23,2.4,6.35,6.35,0,0,1-4.69-1.87,6.5,6.5,0,0,1-1.88-4.82,6.73,6.73,0,0,1,1.77-4.72,5.77,5.77,0,0,1,4.48-1.94,5.49,5.49,0,0,1,4.52,2,7.48,7.48,0,0,1,1.61,4.91,5.83,5.83,0,0,1,0,.82H263.9a3.83,3.83,0,0,0,1.24,2.39,3.63,3.63,0,0,0,2.45.86,4.87,4.87,0,0,0,3.46-1.53Zm-8.89-5.19h6.57a4.12,4.12,0,0,0-1-2.42,2.86,2.86,0,0,0-2.25-1,3,3,0,0,0-2.23.94,4.15,4.15,0,0,0-1.09,2.43m12.43,7.3v-12.8h2.93v5.19h5.65v-5.19h2.93v12.8h-2.93v-5.16h-5.65v5.16ZM290,557.62V552h1.38q1.43-2.87,1.43-8.7v-1.58h9.91V552h1.82l-.39,5.6h-2.45v-3.08h-9l-.29,3.08ZM295.6,546a13.94,13.94,0,0,1-1.19,6.06h5.41v-7.76H295.6Zm22.15,8.58h-2.91V553a5.12,5.12,0,0,1-4.14,1.84,5.06,5.06,0,0,1-3.24-1,3.54,3.54,0,0,1-1.32-2.94,3.66,3.66,0,0,1,1.43-3.13,6.16,6.16,0,0,1,3.76-1.07,11.5,11.5,0,0,1,3.54.54v-.25a2.55,2.55,0,0,0-.81-2,3.46,3.46,0,0,0-2.34-.7,9.32,9.32,0,0,0-3.66.8l-.8-2.35a11.64,11.64,0,0,1,4.87-1.07,5.74,5.74,0,0,1,4.2,1.4,5.37,5.37,0,0,1,1.42,4Zm-2.83-4.63v-.73a8.06,8.06,0,0,0-2.94-.51,3.69,3.69,0,0,0-2.15.54,1.7,1.7,0,0,0-.78,1.5,1.62,1.62,0,0,0,.71,1.38,2.89,2.89,0,0,0,1.76.51,3.84,3.84,0,0,0,2.44-.75,2.36,2.36,0,0,0,1-1.94m16.67,7.71v-3.08H321.24v-12.8h2.91V552h5.53V541.74h2.9V552h1.85l-.39,5.6Zm5.28-3.08v-12.8h2.86v8.58l6.06-8.58h2.77v12.8h-2.84V546l-6.08,8.53Zm15.37,0v-12.8h2.86v8.58q4-5.72,6.06-8.58h2.76v12.8h-2.84V546L355,554.54Zm22.63,0v-12.8h2.86v8.58l6.06-8.58h2.77v12.8h-2.84V546l-6.08,8.53Zm21.28.29a6.32,6.32,0,0,1-4.72-1.93,6.44,6.44,0,0,1-1.89-4.69v0a6.54,6.54,0,0,1,1.9-4.73,6.33,6.33,0,0,1,4.74-2,6.62,6.62,0,0,1,5.11,2.2l-1.82,2a4.56,4.56,0,0,0-3.32-1.6,3.39,3.39,0,0,0-2.63,1.19,4.22,4.22,0,0,0-1,2.89v0a4.19,4.19,0,0,0,1.08,2.93,3.55,3.55,0,0,0,2.75,1.19,4.63,4.63,0,0,0,3.32-1.6l1.77,1.74a7.65,7.65,0,0,1-2.27,1.78,6.52,6.52,0,0,1-3,.62m7.81-.29v-12.8h11.41v12.8h-2.93V544.26h-5.55v10.28Zm21.18.29a6.59,6.59,0,0,1-4.85-1.94,6.7,6.7,0,0,1,0-9.46,7,7,0,0,1,9.72,0,6.68,6.68,0,0,1,0,9.46,6.66,6.66,0,0,1-4.89,2m.05-2.54A3.6,3.6,0,0,0,428,551.1a4.22,4.22,0,0,0,1.06-2.93,4.16,4.16,0,0,0-1.11-2.93,3.67,3.67,0,0,0-2.81-1.2,3.58,3.58,0,0,0-2.79,1.19,4.24,4.24,0,0,0-1.07,2.94,4.13,4.13,0,0,0,1.12,2.9,3.62,3.62,0,0,0,2.79,1.22m9.69,2.39a10,10,0,0,1-1.72-.17l.22-2.39a3.76,3.76,0,0,0,.85.09,2.17,2.17,0,0,0,.83-.14,1.77,1.77,0,0,0,.68-.74,5.08,5.08,0,0,0,.54-1.69,27.85,27.85,0,0,0,.32-3.06c.08-1.32.12-2.93.12-4.84h9.67v12.8h-2.93V544.26h-4a41,41,0,0,1-.22,4.66,16.1,16.1,0,0,1-.57,3,4.16,4.16,0,0,1-1,1.73,3.11,3.11,0,0,1-1.25.81,5.39,5.39,0,0,1-1.57.19m15.19-.14v-12.8H453v4.49h2.93a6.17,6.17,0,0,1,3.68,1,3.5,3.5,0,0,1,1.41,3,3.94,3.94,0,0,1-1.31,3.13,5.23,5.23,0,0,1-3.56,1.14Zm2.94-2.38h2.76a2.71,2.71,0,0,0,1.72-.48,1.7,1.7,0,0,0,.61-1.41,1.55,1.55,0,0,0-.62-1.31,3,3,0,0,0-1.76-.46H453ZM468,554.83a8.39,8.39,0,0,1-5.6-2l1.38-1.94a6,6,0,0,0,4,1.52,2.93,2.93,0,0,0,1.72-.49,1.5,1.5,0,0,0,.7-1.27,1.34,1.34,0,0,0-.68-1.17,3.53,3.53,0,0,0-1.91-.43H466V547h1.58a2.57,2.57,0,0,0,1.63-.48,1.44,1.44,0,0,0,.62-1.2,1.23,1.23,0,0,0-.59-1,2.64,2.64,0,0,0-1.52-.4,5.34,5.34,0,0,0-3.63,1.31l-1.31-1.84a7.61,7.61,0,0,1,5.21-1.84,5.69,5.69,0,0,1,3.44,1,2.93,2.93,0,0,1,1.33,2.47,3,3,0,0,1-2,2.91,3.08,3.08,0,0,1,2.33,3.1,3.41,3.41,0,0,1-1.43,2.77,5.84,5.84,0,0,1-3.71,1.13m14.27,0a6.58,6.58,0,0,1-4.84-1.94,6.71,6.71,0,0,1,0-9.46,7.06,7.06,0,0,1,9.73,0,6.7,6.7,0,0,1,0,9.46,6.67,6.67,0,0,1-4.9,2m0-2.54a3.59,3.59,0,0,0,2.81-1.19,4.48,4.48,0,0,0,0-5.86,3.7,3.7,0,0,0-2.82-1.2,3.57,3.57,0,0,0-2.78,1.19,4.24,4.24,0,0,0-1.07,2.94,4.09,4.09,0,0,0,1.12,2.9,3.62,3.62,0,0,0,2.78,1.22m9.79,2.25v-12.8h6.57a5,5,0,0,1,3.07.86,2.8,2.8,0,0,1,1.15,2.34,3.06,3.06,0,0,1-2.06,2.93,3.15,3.15,0,0,1,2.64,3.2,3,3,0,0,1-1.27,2.55,5.82,5.82,0,0,1-3.46.92ZM495,547h3a2.11,2.11,0,0,0,1.41-.44,1.43,1.43,0,0,0,.51-1.14,1.33,1.33,0,0,0-.46-1.05A2.1,2.1,0,0,0,498,544H495Zm0,5.18h3.32a2.55,2.55,0,0,0,1.61-.45,1.44,1.44,0,0,0,.57-1.2,1.32,1.32,0,0,0-.6-1.14,3,3,0,0,0-1.73-.41H495Zm22.15,2.33H514.2V553a5.13,5.13,0,0,1-4.14,1.84,5,5,0,0,1-3.24-1,3.54,3.54,0,0,1-1.32-2.94,3.66,3.66,0,0,1,1.43-3.13,6.14,6.14,0,0,1,3.76-1.07,11.39,11.39,0,0,1,3.53.54v-.25a2.55,2.55,0,0,0-.81-2,3.46,3.46,0,0,0-2.34-.7,9.4,9.4,0,0,0-3.66.8l-.8-2.35a11.68,11.68,0,0,1,4.88-1.07,5.76,5.76,0,0,1,4.2,1.4,5.37,5.37,0,0,1,1.42,4Zm-2.84-4.63v-.73a8,8,0,0,0-2.93-.51,3.75,3.75,0,0,0-2.16.54,1.71,1.71,0,0,0-.77,1.5,1.61,1.61,0,0,0,.7,1.38,2.94,2.94,0,0,0,1.77.51,3.86,3.86,0,0,0,2.44-.75,2.37,2.37,0,0,0,.95-1.94m6.33,4.63v-12.8h2.93v5.19h5.65v-5.19h2.93v12.8h-2.93v-5.16h-5.65v5.16Zm15.19,0v-12.8h2.86v8.58c2.68-3.81,4.71-6.67,6.06-8.58h2.76v12.8h-2.83V546l-6.08,8.53Zm14.2,0,3.54-4.8a4.44,4.44,0,0,1-2.17-1.39,3.72,3.72,0,0,1-.81-2.44,3.79,3.79,0,0,1,1.34-3,5.5,5.5,0,0,1,3.7-1.14H562v12.8h-2.94v-4.32h-2.61l-3,4.32Zm6-6.52h3.07v-3.9H556a2.91,2.91,0,0,0-1.83.52,1.84,1.84,0,0,0,0,2.86A2.94,2.94,0,0,0,556,548"></path> <path class="cls-6" d="M200.36,290.06a8.63,8.63,0,1,1-2.5-6.22,8.54,8.54,0,0,1,2.5,6.22m-14.61,0a6,6,0,0,0,1.63,4.28,5.41,5.41,0,0,0,4.13,1.76,5.32,5.32,0,0,0,4.11-1.75,6.46,6.46,0,0,0,0-8.56,5.42,5.42,0,0,0-4.14-1.76,5.34,5.34,0,0,0-4.1,1.74,6.08,6.08,0,0,0-1.61,4.29m23.79,8.78a6.36,6.36,0,0,1-4.72-1.93,6.44,6.44,0,0,1-1.89-4.69v-.05a6.53,6.53,0,0,1,1.9-4.72,6.34,6.34,0,0,1,4.74-2,6.61,6.61,0,0,1,5.11,2.21l-1.82,2a4.55,4.55,0,0,0-3.32-1.6,3.39,3.39,0,0,0-2.63,1.19,4.19,4.19,0,0,0-1,2.88v.05a4.22,4.22,0,0,0,1.08,2.94,3.56,3.56,0,0,0,2.75,1.18,4.57,4.57,0,0,0,3.32-1.6l1.77,1.75a7.82,7.82,0,0,1-2.27,1.78,6.52,6.52,0,0,1-3,.62m7.81-.29v-12.8h2.93v5.19h5.65v-5.19h2.93v12.8h-2.93v-5.17h-5.65v5.17Zm21.28.29a6.59,6.59,0,0,1-4.85-1.94,6.72,6.72,0,0,1,0-9.47,7.06,7.06,0,0,1,9.73,0,6.71,6.71,0,0,1,0,9.47,6.66,6.66,0,0,1-4.89,1.95m0-2.55a3.62,3.62,0,0,0,2.82-1.18,4.25,4.25,0,0,0,1.06-2.94,4.16,4.16,0,0,0-1.11-2.92,3.68,3.68,0,0,0-2.81-1.2,3.58,3.58,0,0,0-2.79,1.19,4.23,4.23,0,0,0-1.07,2.93,4.13,4.13,0,0,0,1.12,2.91,3.61,3.61,0,0,0,2.78,1.21m9.79,2.26v-12.8H255a5,5,0,0,1,3.07.86,2.75,2.75,0,0,1,1.15,2.34,3.06,3.06,0,0,1-2.06,2.93,3.15,3.15,0,0,1,2.64,3.2,3,3,0,0,1-1.27,2.55,5.81,5.81,0,0,1-3.45.92Zm2.89-7.52h3a2.1,2.1,0,0,0,1.41-.43,1.43,1.43,0,0,0,.51-1.14,1.33,1.33,0,0,0-.46-1.06,2.16,2.16,0,0,0-1.41-.4h-3.05Zm0,5.19h3.32a2.55,2.55,0,0,0,1.61-.45,1.45,1.45,0,0,0,.57-1.2,1.34,1.34,0,0,0-.59-1.14,3.11,3.11,0,0,0-1.74-.41h-3.17Zm11.41,2.33v-12.8h2.94v5.19h5.64v-5.19h2.94v12.8h-2.94v-5.17H265.7v5.17Zm25.94,0h-2.91V297a5.15,5.15,0,0,1-4.15,1.84,5,5,0,0,1-3.23-1.05,3.56,3.56,0,0,1-1.32-2.95,3.63,3.63,0,0,1,1.43-3.12,6.11,6.11,0,0,1,3.75-1.07,11.71,11.71,0,0,1,3.54.53v-.24a2.54,2.54,0,0,0-.81-2,3.46,3.46,0,0,0-2.34-.71,9.58,9.58,0,0,0-3.66.8l-.8-2.35a11.78,11.78,0,0,1,4.87-1.06,5.78,5.78,0,0,1,4.21,1.4,5.41,5.41,0,0,1,1.42,4Zm-2.84-4.63v-.73a8,8,0,0,0-2.93-.51,3.83,3.83,0,0,0-2.16.53,1.73,1.73,0,0,0-.78,1.51,1.62,1.62,0,0,0,.71,1.38,2.94,2.94,0,0,0,1.77.51,3.83,3.83,0,0,0,2.43-.75,2.36,2.36,0,0,0,1-1.94m5.16,4.63,3.54-4.8a4.41,4.41,0,0,1-2.17-1.4,3.67,3.67,0,0,1-.81-2.43,3.78,3.78,0,0,1,1.33-3,5.54,5.54,0,0,1,3.71-1.14H303v12.8h-2.93v-4.32h-2.62l-3,4.32Zm6-6.52h3.08v-3.9H297a2.87,2.87,0,0,0-1.83.52,1.68,1.68,0,0,0-.67,1.41,1.72,1.72,0,0,0,.69,1.45A3,3,0,0,0,297,292m17,6.52v-12.8h6.56a5,5,0,0,1,3.07.86,2.75,2.75,0,0,1,1.15,2.34,3.06,3.06,0,0,1-2.06,2.93,3.15,3.15,0,0,1,2.64,3.2,3,3,0,0,1-1.27,2.55,5.81,5.81,0,0,1-3.45.92Zm2.88-7.52h3a2.09,2.09,0,0,0,1.4-.43,1.43,1.43,0,0,0,.51-1.14,1.33,1.33,0,0,0-.46-1.06,2.16,2.16,0,0,0-1.41-.4h-3.05Zm0,5.19h3.32a2.55,2.55,0,0,0,1.61-.45,1.45,1.45,0,0,0,.57-1.2,1.34,1.34,0,0,0-.59-1.14,3.11,3.11,0,0,0-1.74-.41h-3.17Zm22.51.22a6.45,6.45,0,0,1-5.23,2.4,6.37,6.37,0,0,1-4.69-1.87,6.5,6.5,0,0,1-1.88-4.82,6.78,6.78,0,0,1,1.77-4.73,5.82,5.82,0,0,1,4.48-1.94,5.49,5.49,0,0,1,4.52,2,7.49,7.49,0,0,1,1.62,4.91,5.56,5.56,0,0,1-.05.82h-9.41a3.9,3.9,0,0,0,1.24,2.39,3.63,3.63,0,0,0,2.45.86,4.87,4.87,0,0,0,3.46-1.53Zm-8.89-5.19h6.57a4.12,4.12,0,0,0-1-2.42,2.86,2.86,0,0,0-2.25-.95,3,3,0,0,0-2.23.94,4.15,4.15,0,0,0-1.09,2.43m12.43,11.17V285.75h2.94v2.13a5.11,5.11,0,0,1,4.33-2.4,5.7,5.7,0,0,1,4.2,1.81,7.59,7.59,0,0,1,0,9.72,5.69,5.69,0,0,1-4.2,1.8,5.2,5.2,0,0,1-4.33-2.25v5.86Zm6.59-6.15a3.4,3.4,0,0,0,2.61-1.14,4.26,4.26,0,0,0,1.05-3,4.14,4.14,0,0,0-1.06-2.95,3.43,3.43,0,0,0-2.6-1.14,3.5,3.5,0,0,0-2.62,1.16,4.15,4.15,0,0,0-1.11,3,4.08,4.08,0,0,0,1.11,2.95,3.53,3.53,0,0,0,2.62,1.15m15.56,2.57a6.36,6.36,0,0,1-4.72-1.93,6.44,6.44,0,0,1-1.89-4.69v-.05a6.53,6.53,0,0,1,1.9-4.72,6.34,6.34,0,0,1,4.74-2,6.61,6.61,0,0,1,5.11,2.21l-1.82,2a4.55,4.55,0,0,0-3.32-1.6,3.39,3.39,0,0,0-2.63,1.19,4.19,4.19,0,0,0-1.05,2.88v.05a4.22,4.22,0,0,0,1.08,2.94,3.54,3.54,0,0,0,2.75,1.18,4.59,4.59,0,0,0,3.32-1.6l1.77,1.75a7.82,7.82,0,0,1-2.27,1.78,6.52,6.52,0,0,1-3,.62m7.81-.29v-12.8h2.86v8.58l6.05-8.58h2.77v12.8h-2.84V290l-6.08,8.53Zm14.2,0,3.54-4.8a4.37,4.37,0,0,1-2.17-1.4,3.67,3.67,0,0,1-.81-2.43,3.78,3.78,0,0,1,1.33-3,5.52,5.52,0,0,1,3.71-1.14h6.42v12.8h-2.93v-4.32h-2.62l-3,4.32Zm6-6.52h3.08v-3.9h-3.11a2.91,2.91,0,0,0-1.83.52,1.7,1.7,0,0,0-.66,1.41,1.72,1.72,0,0,0,.69,1.45,3,3,0,0,0,1.83.52"></path> <path class="cls-6" d="M1077.25,298.84a8.26,8.26,0,0,1-6.16-2.54,9.09,9.09,0,0,1,0-12.46,8.37,8.37,0,0,1,6.28-2.55,9.26,9.26,0,0,1,3.74.68,10.31,10.31,0,0,1,2.9,2l-1.92,2.21a6.94,6.94,0,0,0-4.75-2.11,5.2,5.2,0,0,0-4,1.74,6.58,6.58,0,0,0,0,8.57,5.2,5.2,0,0,0,4,1.76,5.68,5.68,0,0,0,2.57-.55,9.17,9.17,0,0,0,2.3-1.66l1.92,1.94a10.15,10.15,0,0,1-3,2.26,9,9,0,0,1-3.85.75m15.75,0a6.59,6.59,0,0,1-4.85-1.94,6.71,6.71,0,0,1,0-9.47,7.06,7.06,0,0,1,9.73,0,6.71,6.71,0,0,1,0,9.47,6.69,6.69,0,0,1-4.9,1.95m0-2.55a3.6,3.6,0,0,0,2.81-1.18,4.26,4.26,0,0,0,1.07-2.94,4.16,4.16,0,0,0-1.12-2.92,3.67,3.67,0,0,0-2.81-1.2,3.58,3.58,0,0,0-2.79,1.19,4.22,4.22,0,0,0-1.06,2.93,4.17,4.17,0,0,0,1.11,2.91,3.61,3.61,0,0,0,2.79,1.21m9.79,2.26v-12.8h2.91v6.13l5.57-6.13h3.44l-5,5.38,5.39,7.42h-3.47l-3.88-5.29-2.08,2.21v3.08Zm14.37,3.87V285.75h2.93v2.13a5.12,5.12,0,0,1,4.34-2.4,5.68,5.68,0,0,1,4.19,1.81,7.56,7.56,0,0,1,0,9.72,5.67,5.67,0,0,1-4.19,1.8,5.21,5.21,0,0,1-4.34-2.25v5.86Zm6.59-6.15a3.42,3.42,0,0,0,2.61-1.14,4.26,4.26,0,0,0,1-3,4.18,4.18,0,0,0-1.06-2.95,3.44,3.44,0,0,0-2.6-1.14,3.52,3.52,0,0,0-2.63,1.16,4.19,4.19,0,0,0-1.1,3,4.11,4.11,0,0,0,1.1,2.95,3.55,3.55,0,0,0,2.63,1.15m20.38,2.28h-2.9V297a5.15,5.15,0,0,1-4.15,1.84,5,5,0,0,1-3.23-1.05,3.57,3.57,0,0,1-1.33-2.95,3.64,3.64,0,0,1,1.44-3.12,6.11,6.11,0,0,1,3.75-1.07,11.71,11.71,0,0,1,3.54.53v-.24a2.54,2.54,0,0,0-.81-2,3.46,3.46,0,0,0-2.34-.71,9.58,9.58,0,0,0-3.66.8l-.8-2.35a11.78,11.78,0,0,1,4.87-1.06,5.78,5.78,0,0,1,4.21,1.4,5.41,5.41,0,0,1,1.41,4Zm-2.83-4.63v-.73a8,8,0,0,0-2.93-.51,3.81,3.81,0,0,0-2.16.53,1.73,1.73,0,0,0-.78,1.51,1.62,1.62,0,0,0,.71,1.38,2.89,2.89,0,0,0,1.76.51,3.84,3.84,0,0,0,2.44-.75,2.36,2.36,0,0,0,1-1.94m23.55,7.7v-3.07h-17.23v-12.8h2.93V296h4.73V285.75h2.91V296H1163V285.75h2.93V296h1.82l-.37,5.59Zm16.36-5.18a6.45,6.45,0,0,1-5.23,2.4,6.35,6.35,0,0,1-4.69-1.87,6.5,6.5,0,0,1-1.88-4.82,6.78,6.78,0,0,1,1.77-4.73,5.81,5.81,0,0,1,4.48-1.94,5.49,5.49,0,0,1,4.52,2,7.48,7.48,0,0,1,1.61,4.91,5.83,5.83,0,0,1,0,.82h-9.41a3.9,3.9,0,0,0,1.24,2.39,3.63,3.63,0,0,0,2.45.86,4.87,4.87,0,0,0,3.46-1.53Zm-8.89-5.19h6.57a4.12,4.12,0,0,0-1-2.42,2.86,2.86,0,0,0-2.25-.95,3,3,0,0,0-2.23.94,4.15,4.15,0,0,0-1.09,2.43m12.43,7.3v-12.8h2.93v5.19h5.65v-5.19h2.93v12.8h-2.93v-5.17h-5.65v5.17Zm15.2,0v-12.8h2.93v5.19h5.64v-5.19h2.94v12.8h-2.94v-5.17h-5.64v5.17Zm25.93,0H1223V297a5.15,5.15,0,0,1-4.14,1.84,5,5,0,0,1-3.24-1.05,3.56,3.56,0,0,1-1.32-2.95,3.66,3.66,0,0,1,1.43-3.12,6.12,6.12,0,0,1,3.76-1.07,11.69,11.69,0,0,1,3.53.53v-.24a2.54,2.54,0,0,0-.81-2,3.46,3.46,0,0,0-2.34-.71,9.58,9.58,0,0,0-3.66.8l-.8-2.35a11.83,11.83,0,0,1,4.88-1.06,5.77,5.77,0,0,1,4.2,1.4,5.41,5.41,0,0,1,1.42,4Zm-2.84-4.63v-.73a8,8,0,0,0-2.93-.51,3.83,3.83,0,0,0-2.16.53,1.72,1.72,0,0,0-.77,1.51,1.61,1.61,0,0,0,.7,1.38,2.94,2.94,0,0,0,1.77.51,3.86,3.86,0,0,0,2.44-.75,2.37,2.37,0,0,0,.95-1.94m5.16,4.63,3.54-4.8a4.46,4.46,0,0,1-2.17-1.4,3.67,3.67,0,0,1-.81-2.43,3.81,3.81,0,0,1,1.33-3,5.54,5.54,0,0,1,3.71-1.14h6.42v12.8h-2.93v-4.32h-2.62l-3,4.32Zm6-6.52h3.07v-3.9h-3.1a2.87,2.87,0,0,0-1.83.52,1.84,1.84,0,0,0,0,2.86,3.06,3.06,0,0,0,1.84.52m17,6.52v-12.8h6.57a5,5,0,0,1,3.06.86A2.75,2.75,0,0,1,1262,289a3,3,0,0,1-2.06,2.93,3.16,3.16,0,0,1,2.65,3.2,3,3,0,0,1-1.28,2.55,5.81,5.81,0,0,1-3.45.92Zm2.88-7.52h3a2.08,2.08,0,0,0,1.4-.43,1.43,1.43,0,0,0,.51-1.14,1.33,1.33,0,0,0-.46-1.06,2.11,2.11,0,0,0-1.4-.4h-3.06Zm0,5.19h3.32a2.56,2.56,0,0,0,1.62-.45,1.47,1.47,0,0,0,.56-1.2,1.31,1.31,0,0,0-.59-1.14,3,3,0,0,0-1.73-.41h-3.18Zm22.52.22a6.47,6.47,0,0,1-5.24,2.4,6.37,6.37,0,0,1-4.69-1.87,6.5,6.5,0,0,1-1.88-4.82,6.78,6.78,0,0,1,1.77-4.73,5.83,5.83,0,0,1,4.49-1.94,5.51,5.51,0,0,1,4.52,2,7.54,7.54,0,0,1,1.61,4.91,5.56,5.56,0,0,1,0,.82h-9.4a3.84,3.84,0,0,0,1.23,2.39,3.64,3.64,0,0,0,2.45.86,4.91,4.91,0,0,0,3.47-1.53Zm-8.9-5.19h6.57a4.18,4.18,0,0,0-1-2.42,2.9,2.9,0,0,0-2.26-.95,3,3,0,0,0-2.23.94,4.21,4.21,0,0,0-1.09,2.43m12.44,11.17V285.75h2.93v2.13a5.12,5.12,0,0,1,4.33-2.4,5.7,5.7,0,0,1,4.2,1.81,7.56,7.56,0,0,1,0,9.72,5.69,5.69,0,0,1-4.2,1.8,5.21,5.21,0,0,1-4.33-2.25v5.86Zm6.59-6.15a3.4,3.4,0,0,0,2.6-1.14,4.27,4.27,0,0,0,1.06-3,4.15,4.15,0,0,0-1.07-2.95,3.41,3.41,0,0,0-2.59-1.14,3.51,3.51,0,0,0-2.63,1.16,4.14,4.14,0,0,0-1.1,3,4.07,4.07,0,0,0,1.1,2.95,3.53,3.53,0,0,0,2.63,1.15m15.56,2.57a6.38,6.38,0,0,1-4.73-1.93,6.44,6.44,0,0,1-1.89-4.69v-.05a6.53,6.53,0,0,1,1.9-4.72,6.34,6.34,0,0,1,4.74-2,6.61,6.61,0,0,1,5.11,2.21l-1.81,2a4.58,4.58,0,0,0-3.32-1.6,3.38,3.38,0,0,0-2.63,1.19,4.15,4.15,0,0,0-1.06,2.88v.05a4.22,4.22,0,0,0,1.08,2.94,3.56,3.56,0,0,0,2.75,1.18,4.57,4.57,0,0,0,3.32-1.6l1.77,1.75a7.92,7.92,0,0,1-2.26,1.78,6.58,6.58,0,0,1-3,.62m7.8-.29v-12.8H1313v8.58q4-5.71,6.06-8.58h2.76v12.8H1319V290l-6.08,8.53Zm14.2,0,3.54-4.8a4.37,4.37,0,0,1-2.17-1.4,3.67,3.67,0,0,1-.81-2.43,3.78,3.78,0,0,1,1.33-3,5.54,5.54,0,0,1,3.71-1.14h6.42v12.8h-2.93v-4.32h-2.62l-3,4.32Zm6-6.52h3.08v-3.9h-3.1a2.87,2.87,0,0,0-1.83.52,1.68,1.68,0,0,0-.67,1.41,1.72,1.72,0,0,0,.69,1.45,3,3,0,0,0,1.83.52"></path> <path class="cls-6" d="M183.23,650.19a5.06,5.06,0,0,1-2-.41l.39-1a3.73,3.73,0,0,0,1.62.29,2.4,2.4,0,0,0,.62-.07,2.18,2.18,0,0,0,.68-.38,3,3,0,0,0,.71-.81,8.15,8.15,0,0,0,.66-1.47,13.37,13.37,0,0,0,.55-2.26c.15-.87.27-2,.37-3.29s.14-2.79.14-4.44v-3.25h10.4v17h-1.26v-15.8h-7.93v2.14a54.36,54.36,0,0,1-.29,6.14,24.37,24.37,0,0,1-.72,4,6.64,6.64,0,0,1-1.13,2.31,3.36,3.36,0,0,1-1.32,1.09,4.08,4.08,0,0,1-1.45.24M214,643.84a6.41,6.41,0,0,1-1.83,4.56,6,6,0,0,1-4.55,1.91,6,6,0,0,1-4.52-1.9,6.41,6.41,0,0,1-1.8-4.57,6.34,6.34,0,0,1,1.83-4.55,6.32,6.32,0,0,1,9.06,0,6.4,6.4,0,0,1,1.81,4.56m-6.33,5.36a4.69,4.69,0,0,0,3.55-1.58,5.55,5.55,0,0,0,0-7.57,4.79,4.79,0,0,0-3.6-1.56,4.72,4.72,0,0,0-3.56,1.56,5.61,5.61,0,0,0,0,7.59,4.78,4.78,0,0,0,3.61,1.56m10,.82V637.66h8.17v1.07h-7V650Zm23-6.18a6.37,6.37,0,0,1-1.83,4.56,6.34,6.34,0,0,1-9.06,0,6.42,6.42,0,0,1-1.81-4.57,6.34,6.34,0,0,1,1.83-4.55,6.33,6.33,0,0,1,9.07,0,6.39,6.39,0,0,1,1.8,4.56m-6.32,5.36a4.71,4.71,0,0,0,3.55-1.58,5.55,5.55,0,0,0,0-7.57,4.8,4.8,0,0,0-3.6-1.56,4.72,4.72,0,0,0-3.56,1.56,5.61,5.61,0,0,0,0,7.59,4.78,4.78,0,0,0,3.61,1.56m13.09.82V638.73h-4.63v-1.07h10.44v1.07h-4.63V650Zm8.79,0V637.66h1.19v10.79l8.39-10.79h1.18V650h-1.18V639.24L257.36,650Zm15.27,0V637.66h10.28V650h-1.19V638.73h-7.9V650Zm22.05,0V637.66h1.07l5,7.11,5-7.11h1.07V650h-1.19v-10.3l-5,6.84-4.92-6.84V650Zm28.58-6.18a6.37,6.37,0,0,1-1.83,4.56,6.35,6.35,0,0,1-9.07,0,6.41,6.41,0,0,1-1.8-4.57,6.34,6.34,0,0,1,1.83-4.55,6.32,6.32,0,0,1,9.06,0,6.4,6.4,0,0,1,1.81,4.56m-6.33,5.36a4.69,4.69,0,0,0,3.55-1.58,5.55,5.55,0,0,0,0-7.57,4.79,4.79,0,0,0-3.6-1.56,4.73,4.73,0,0,0-3.56,1.56,5.61,5.61,0,0,0,0,7.59,4.79,4.79,0,0,0,3.61,1.56m8.36.82,5.24-7-4.92-5.36h1.5l7.08,7.88v-7.88h1.18v7.88l7.08-7.88h1.5L337.82,643l5.26,7h-1.46l-4.55-6.15L334.18,647v3H333v-3l-2.89-3.15L325.56,650ZM346,650V637.66h1.19v5.51h8.22v-5.51h1.18V650h-1.18v-5.79h-8.22V650Zm27-6.18a6.37,6.37,0,0,1-1.83,4.56,6.34,6.34,0,0,1-9.06,0,6.62,6.62,0,0,1,0-9.12,6.33,6.33,0,0,1,9.07,0,6.39,6.39,0,0,1,1.8,4.56m-6.32,5.36a4.71,4.71,0,0,0,3.55-1.58,5.55,5.55,0,0,0,0-7.57,4.82,4.82,0,0,0-3.6-1.56,4.72,4.72,0,0,0-3.56,1.56,5.61,5.61,0,0,0,0,7.59,4.76,4.76,0,0,0,3.61,1.56m17.25.82V637.66H385v10.79l8.38-10.79h1.19V650h-1.19V639.24L385,650Zm25.76-2.15a6.51,6.51,0,0,1-5,2.44,5.94,5.94,0,0,1-4.48-1.89,6.63,6.63,0,0,1,0-9.14,6,6,0,0,1,4.47-1.91,6.31,6.31,0,0,1,4.92,2.31l-.82.84a5.82,5.82,0,0,0-4.12-2,4.66,4.66,0,0,0-3.53,1.57,5.63,5.63,0,0,0,0,7.58,4.79,4.79,0,0,0,3.61,1.56,5.46,5.46,0,0,0,4.1-2.11ZM413,650V637.66h10.27V650H422V638.73h-7.91V650Zm26.63-6.18a6.37,6.37,0,0,1-1.83,4.56,6.34,6.34,0,0,1-9.06,0,6.62,6.62,0,0,1,0-9.12,6.33,6.33,0,0,1,9.07,0,6.39,6.39,0,0,1,1.8,4.56m-6.32,5.36a4.71,4.71,0,0,0,3.55-1.58,5.55,5.55,0,0,0,0-7.57,4.82,4.82,0,0,0-3.6-1.56,4.72,4.72,0,0,0-3.56,1.56,5.61,5.61,0,0,0,0,7.59,4.78,4.78,0,0,0,3.61,1.56m9.18,1a5,5,0,0,1-1.36-.2l.22-1.09a3.52,3.52,0,0,0,.95.17A2.25,2.25,0,0,0,443,649a2,2,0,0,0,.66-.44,2.4,2.4,0,0,0,.58-1.07,17.25,17.25,0,0,0,.43-1.89,26.25,26.25,0,0,0,.3-3c.06-1.21.1-2.64.1-4.29v-.66h8.41V650h-1.19V638.73h-6.08v.34c0,2-.07,3.7-.2,5.09a24,24,0,0,1-.48,3.26,4.6,4.6,0,0,1-.83,1.82,2.42,2.42,0,0,1-1,.81,4.06,4.06,0,0,1-1.27.17M458,650V637.66h1.19v4.75h3.69a5.94,5.94,0,0,1,3.39.91,3.09,3.09,0,0,1,1.33,2.73,3.64,3.64,0,0,1-1.23,2.88,4.78,4.78,0,0,1-3.28,1.09Zm1.19-1.06h3.71a3.86,3.86,0,0,0,2.5-.75,2.59,2.59,0,0,0,.92-2.11,2.25,2.25,0,0,0-.95-1.93,4.26,4.26,0,0,0-2.57-.69h-3.61Zm15.51,1.31a7.75,7.75,0,0,1-5-1.85l.73-1a6.45,6.45,0,0,0,4.26,1.69,3.84,3.84,0,0,0,2.34-.74,2.15,2.15,0,0,0,1-1.8,2,2,0,0,0-.92-1.74,4.39,4.39,0,0,0-2.52-.64h-1.7v-1.06h1.73a3.55,3.55,0,0,0,2.2-.66,2.1,2.1,0,0,0,.87-1.77,1.85,1.85,0,0,0-.84-1.57,3.56,3.56,0,0,0-2.14-.61,6,6,0,0,0-3.85,1.26l-.7-.94a7.46,7.46,0,0,1,4.58-1.43,4.83,4.83,0,0,1,3.1.92,3,3,0,0,1-.83,5.23,3,3,0,0,1,2.31,3,3.24,3.24,0,0,1-1.3,2.57,5,5,0,0,1-3.31,1.07m20.09-6.43A6.37,6.37,0,0,1,493,648.4a6.34,6.34,0,0,1-9.06,0,6.42,6.42,0,0,1-1.81-4.57,6.34,6.34,0,0,1,1.83-4.55,6.33,6.33,0,0,1,9.07,0,6.39,6.39,0,0,1,1.8,4.56m-6.32,5.36a4.69,4.69,0,0,0,3.55-1.58,5.55,5.55,0,0,0,0-7.57,4.8,4.8,0,0,0-3.6-1.56,4.72,4.72,0,0,0-3.56,1.56,5.61,5.61,0,0,0,0,7.59,4.78,4.78,0,0,0,3.61,1.56m10,.82V637.66h5.65a4.66,4.66,0,0,1,2.91.84,2.71,2.71,0,0,1,1.09,2.24,3,3,0,0,1-2.09,2.84,4.25,4.25,0,0,1,2,1.09,2.72,2.72,0,0,1,.77,2,2.91,2.91,0,0,1-1.21,2.44,5.15,5.15,0,0,1-3.22.92Zm1.19-6.83H504a3.44,3.44,0,0,0,2.14-.62,2.06,2.06,0,0,0,.82-1.76,1.81,1.81,0,0,0-.75-1.51,3.51,3.51,0,0,0-2.14-.57h-4.36Zm0,5.77h4.58a4,4,0,0,0,2.45-.67,2.11,2.11,0,0,0,.9-1.8,1.92,1.92,0,0,0-.94-1.7,5,5,0,0,0-2.7-.61h-4.29ZM521,648a6,6,0,0,1-8.13,1.32,3.72,3.72,0,0,1,.11-5.85,6.56,6.56,0,0,1,3.93-1.06,15.72,15.72,0,0,1,4.09.53v-.53a3.56,3.56,0,0,0-1.07-2.81,4.28,4.28,0,0,0-3-1,8.47,8.47,0,0,0-3.88,1l-.43-1a10.42,10.42,0,0,1,4.38-1.07,5.24,5.24,0,0,1,3.9,1.36,4.71,4.71,0,0,1,1.26,3.49V650H521Zm-4.65,1.24a5.2,5.2,0,0,0,3.31-1.08,3.34,3.34,0,0,0,1.37-2.73V644a17.11,17.11,0,0,0-4.2-.56,4.88,4.88,0,0,0-3,.79,2.54,2.54,0,0,0-1.05,2.14,2.51,2.51,0,0,0,1,2.09,4.16,4.16,0,0,0,2.6.75m13.18.82V638.73h-4.63v-1.07h10.45v1.07h-4.63V650Zm8.8,0V637.66h1.19v4.75h3.68a5.94,5.94,0,0,1,3.39.91,3.1,3.1,0,0,1,1.34,2.73,3.65,3.65,0,0,1-1.24,2.88,4.73,4.73,0,0,1-3.27,1.09Zm1.19-1.06h3.7a3.84,3.84,0,0,0,2.5-.75,2.59,2.59,0,0,0,.92-2.11,2.24,2.24,0,0,0-.94-1.93,4.28,4.28,0,0,0-2.57-.69h-3.61Z"></path> <path class="cls-6" d="M183.44,683.08V670.72h5.65a4.66,4.66,0,0,1,2.91.84,2.66,2.66,0,0,1,1.09,2.24,3,3,0,0,1-2.08,2.83,4.35,4.35,0,0,1,2,1.09,2.72,2.72,0,0,1,.77,2,2.91,2.91,0,0,1-1.21,2.45,5.21,5.21,0,0,1-3.22.92Zm1.19-6.83h4.29a3.49,3.49,0,0,0,2.15-.62,2.08,2.08,0,0,0,.81-1.76,1.8,1.8,0,0,0-.75-1.51,3.49,3.49,0,0,0-2.14-.57h-4.36Zm0,5.76h4.58a4,4,0,0,0,2.45-.66,2.14,2.14,0,0,0,.9-1.81,1.91,1.91,0,0,0-.94-1.69,4.91,4.91,0,0,0-2.7-.61h-4.29ZM204,683.27a5,5,0,0,1-1.36-.19l.22-1.09a4,4,0,0,0,.95.17,2.39,2.39,0,0,0,.78-.11,1.87,1.87,0,0,0,.67-.45,2.3,2.3,0,0,0,.58-1.06,17,17,0,0,0,.43-1.9,28.21,28.21,0,0,0,.3-3c.06-1.21.1-2.64.1-4.28v-.66h8.41v12.36h-1.19V671.79h-6.08v.34c0,2-.07,3.7-.2,5.09a24.51,24.51,0,0,1-.48,3.26,4.55,4.55,0,0,1-.83,1.81,2.4,2.4,0,0,1-1,.81,3.79,3.79,0,0,1-1.27.17m25.79.1a5.49,5.49,0,0,1-4.18-1.69,6.67,6.67,0,0,1-1.79-4.27h-3v5.67h-1.19V670.72h1.19v5.6h3a6.56,6.56,0,0,1,1.83-4.19,5.58,5.58,0,0,1,4.18-1.7,5.48,5.48,0,0,1,4.32,1.88,7.18,7.18,0,0,1,0,9.17,5.52,5.52,0,0,1-4.35,1.89m0-1.11a4.2,4.2,0,0,0,3.41-1.53,5.77,5.77,0,0,0,1.27-3.83,5.66,5.66,0,0,0-1.31-3.82,4.28,4.28,0,0,0-3.41-1.54,4.2,4.2,0,0,0-3.41,1.53,5.78,5.78,0,0,0-1.27,3.83,5.66,5.66,0,0,0,1.31,3.82,4.28,4.28,0,0,0,3.41,1.54m15.27,1.11a5.86,5.86,0,0,1-4.46-1.86,6.94,6.94,0,0,1-1.74-4.92c0-.83,0-1.51,0-2.05s.08-1.16.16-1.86a6.78,6.78,0,0,1,.43-1.75,7.84,7.84,0,0,1,.76-1.42,4.12,4.12,0,0,1,1.24-1.18,6.71,6.71,0,0,1,1.78-.74l7-1.76.34,1.06-6.79,1.79a4.92,4.92,0,0,0-2.8,1.62,6.41,6.41,0,0,0-1,3.28,5.83,5.83,0,0,1,5.36-2.91,5.51,5.51,0,0,1,4.19,1.87,6.52,6.52,0,0,1-.05,8.94,5.89,5.89,0,0,1-4.46,1.89m.05-1.11a4.58,4.58,0,0,0,3.52-1.53A5.3,5.3,0,0,0,250,677a5.22,5.22,0,0,0-1.44-3.71,4.69,4.69,0,0,0-3.53-1.52,4.6,4.6,0,0,0-3.51,1.52,5.28,5.28,0,0,0-1.41,3.71,5.17,5.17,0,0,0,1.45,3.71,4.64,4.64,0,0,0,3.52,1.53m21.72-5.36a6.38,6.38,0,0,1-1.83,4.56,6.06,6.06,0,0,1-4.55,1.91,6,6,0,0,1-4.52-1.9,6.65,6.65,0,0,1,0-9.13,6,6,0,0,1,4.54-1.91,6,6,0,0,1,4.52,1.9,6.42,6.42,0,0,1,1.81,4.57m-6.33,5.36a4.73,4.73,0,0,0,3.55-1.58,5.55,5.55,0,0,0,0-7.57,4.8,4.8,0,0,0-3.6-1.57,4.74,4.74,0,0,0-3.56,1.57,5.59,5.59,0,0,0,0,7.58,4.77,4.77,0,0,0,3.61,1.57m10,.82V670.72h1.06l5,7.1,5-7.1h1.07v12.36h-1.19v-10.3l-5,6.83-4.92-6.83v10.3Zm35,3.49v-3.49H294.49V670.72h1.19V682h7.9V670.72h1.18V682h2l-.24,4.56Zm4.19-3.49V670.72h5.65a4.66,4.66,0,0,1,2.91.84,2.68,2.68,0,0,1,1.09,2.24,2.94,2.94,0,0,1-2.09,2.83,4.26,4.26,0,0,1,2,1.09,2.69,2.69,0,0,1,.78,2,2.91,2.91,0,0,1-1.21,2.45,5.23,5.23,0,0,1-3.23.92Zm1.19-6.83h4.29a3.44,3.44,0,0,0,2.14-.62,2.09,2.09,0,0,0,.82-1.76,1.81,1.81,0,0,0-.76-1.51,3.46,3.46,0,0,0-2.13-.57h-4.36Zm0,5.76h4.58a4.07,4.07,0,0,0,2.45-.66,2.16,2.16,0,0,0,.89-1.81,1.9,1.9,0,0,0-.93-1.69,4.91,4.91,0,0,0-2.7-.61h-4.29Zm23.19-1a6.72,6.72,0,0,1-5.11,2.33,5.75,5.75,0,0,1-4.28-1.82,6.38,6.38,0,0,1-1.78-4.67,6.59,6.59,0,0,1,1.68-4.58,5.4,5.4,0,0,1,4.18-1.87,5.11,5.11,0,0,1,4.11,1.84,6.92,6.92,0,0,1,1.56,4.63,3.55,3.55,0,0,1,0,.49H324.2a5.23,5.23,0,0,0,1.56,3.55,4.63,4.63,0,0,0,3.29,1.32,5.66,5.66,0,0,0,4.24-1.94Zm-9.91-4.72h9a5.89,5.89,0,0,0-1.28-3.42,3.86,3.86,0,0,0-3.15-1.38,4.12,4.12,0,0,0-3.11,1.37,5.53,5.53,0,0,0-1.45,3.43M341,683.08V671.79h-4.63v-1.07h10.45v1.07h-4.63v11.29Zm19.12-2a6.7,6.7,0,0,1-5.11,2.33,5.76,5.76,0,0,1-4.28-1.82,6.42,6.42,0,0,1-1.78-4.67,6.55,6.55,0,0,1,1.69-4.58,5.37,5.37,0,0,1,4.18-1.87,5.11,5.11,0,0,1,4.1,1.84,6.87,6.87,0,0,1,1.57,4.63,3.38,3.38,0,0,1,0,.49H350.25a5.27,5.27,0,0,0,1.56,3.55,4.63,4.63,0,0,0,3.29,1.32,5.66,5.66,0,0,0,4.24-1.94Zm-9.91-4.72h9A5.83,5.83,0,0,0,358,672.9a3.86,3.86,0,0,0-3.15-1.38,4.1,4.1,0,0,0-3.1,1.37,5.48,5.48,0,0,0-1.46,3.43m21,6.76V670.72h10.28v12.36h-1.19V671.79h-7.9v11.29ZM386.05,687V670.72h1.18v2.76a6,6,0,0,1,5.09-3.05,5.82,5.82,0,0,1,4.2,1.78,7,7,0,0,1,0,9.37,5.84,5.84,0,0,1-9.29-1.17V687Zm6.15-4.73a4.61,4.61,0,0,0,3.47-1.44,5.39,5.39,0,0,0,1.38-3.89,5.31,5.31,0,0,0-1.42-3.85,4.56,4.56,0,0,0-3.43-1.48,4.82,4.82,0,0,0-3.52,1.51,5.21,5.21,0,0,0-1.52,3.85,5.13,5.13,0,0,0,1.52,3.8,4.85,4.85,0,0,0,3.52,1.5M412.37,681a6.74,6.74,0,0,1-5.12,2.33,5.76,5.76,0,0,1-4.28-1.82,6.42,6.42,0,0,1-1.78-4.67,6.6,6.6,0,0,1,1.69-4.58,5.37,5.37,0,0,1,4.18-1.87,5.13,5.13,0,0,1,4.11,1.84,6.92,6.92,0,0,1,1.56,4.63c0,.19,0,.36,0,.49H402.45a5.28,5.28,0,0,0,1.57,3.55,4.61,4.61,0,0,0,3.28,1.32,5.64,5.64,0,0,0,4.24-1.94Zm-9.92-4.72h9a5.83,5.83,0,0,0-1.28-3.42,3.86,3.86,0,0,0-3.15-1.38,4.1,4.1,0,0,0-3.1,1.37,5.54,5.54,0,0,0-1.46,3.43m11.83,10.25V682h1.62c1.22-2,1.82-4.87,1.82-8.67v-2.62H426V682h2l-.24,4.56h-1v-3.49H415.52l-.25,3.49Zm2.93-4.56h7.61V671.79h-6V674a22.45,22.45,0,0,1-.45,4.58,11.19,11.19,0,0,1-1.2,3.41m24.26-1.09a6.52,6.52,0,0,1-5,2.45,6,6,0,0,1-4.48-1.89,6.65,6.65,0,0,1,0-9.15,6,6,0,0,1,4.47-1.9,6.36,6.36,0,0,1,4.92,2.3l-.82.85a5.8,5.8,0,0,0-4.12-2,4.65,4.65,0,0,0-3.53,1.58,5.59,5.59,0,0,0,0,7.57,4.77,4.77,0,0,0,3.61,1.57,5.51,5.51,0,0,0,4.1-2.11Zm6.45,2.16V671.79h-4.63v-1.07h10.44v1.07h-4.62v11.29ZM465.2,681a6,6,0,0,1-8.13,1.32,3.72,3.72,0,0,1,.11-5.85,6.55,6.55,0,0,1,3.92-1.07,15.75,15.75,0,0,1,4.1.54v-.54a3.61,3.61,0,0,0-1.07-2.81,4.33,4.33,0,0,0-3-1,8.33,8.33,0,0,0-3.88,1l-.44-1a10.48,10.48,0,0,1,4.39-1.06,5.28,5.28,0,0,1,3.9,1.35,4.73,4.73,0,0,1,1.26,3.49v7.71H465.2Zm-4.66,1.24a5.16,5.16,0,0,0,3.31-1.08,3.34,3.34,0,0,0,1.37-2.73v-1.4a16.51,16.51,0,0,0-4.19-.56,4.88,4.88,0,0,0-3,.79,2.71,2.71,0,0,0-.09,4.23,4.13,4.13,0,0,0,2.59.75m10.09.82V670.72h5.64a4.66,4.66,0,0,1,2.91.84,2.66,2.66,0,0,1,1.09,2.24,2.93,2.93,0,0,1-2.08,2.83,4.35,4.35,0,0,1,2,1.09,2.68,2.68,0,0,1,.77,2,2.91,2.91,0,0,1-1.21,2.45,5.19,5.19,0,0,1-3.22.92Zm1.18-6.83h4.29a3.47,3.47,0,0,0,2.15-.62,2.08,2.08,0,0,0,.81-1.76,1.8,1.8,0,0,0-.75-1.51,3.46,3.46,0,0,0-2.13-.57h-4.37Zm0,5.76h4.58a4,4,0,0,0,2.45-.66,2.14,2.14,0,0,0,.9-1.81,1.9,1.9,0,0,0-.93-1.69,5,5,0,0,0-2.71-.61h-4.29Zm12.07,1.26a4.84,4.84,0,0,1-1.35-.19l.21-1.09a4,4,0,0,0,.95.17,2.5,2.5,0,0,0,.79-.11,1.93,1.93,0,0,0,.66-.45,2.22,2.22,0,0,0,.58-1.06,17,17,0,0,0,.43-1.9,23.72,23.72,0,0,0,.3-3c.07-1.21.1-2.64.1-4.28v-.66H495v12.36h-1.19V671.79h-6.08v.34c0,2-.07,3.7-.2,5.09a24.51,24.51,0,0,1-.48,3.26,4.42,4.42,0,0,1-.83,1.81,2.38,2.38,0,0,1-1,.81,3.89,3.89,0,0,1-1.28.17M509.79,681a6.72,6.72,0,0,1-5.11,2.33,5.75,5.75,0,0,1-4.28-1.82,6.38,6.38,0,0,1-1.78-4.67,6.59,6.59,0,0,1,1.68-4.58,5.4,5.4,0,0,1,4.18-1.87,5.11,5.11,0,0,1,4.11,1.84,6.92,6.92,0,0,1,1.56,4.63c0,.19,0,.36,0,.49H499.88a5.23,5.23,0,0,0,1.56,3.55,4.63,4.63,0,0,0,3.28,1.32,5.68,5.68,0,0,0,4.25-1.94Zm-9.91-4.72h9a5.9,5.9,0,0,0-1.29-3.42,3.86,3.86,0,0,0-3.15-1.38,4.11,4.11,0,0,0-3.1,1.37,5.53,5.53,0,0,0-1.45,3.43m13.74,6.76V670.72h1.19v5.5H523v-5.5h1.19v12.36H523v-5.79h-8.21v5.79Zm15.1,0V670.72h1.18v5.5h8.22v-5.5h1.19v12.36h-1.19v-5.79H529.9v5.79Zm26.95-6.18a6.38,6.38,0,0,1-1.83,4.56,6.06,6.06,0,0,1-4.55,1.91,6,6,0,0,1-4.52-1.9,6.65,6.65,0,0,1,0-9.13,6,6,0,0,1,4.54-1.91,6,6,0,0,1,4.52,1.9,6.42,6.42,0,0,1,1.81,4.57m-6.33,5.36a4.73,4.73,0,0,0,3.55-1.58,5.55,5.55,0,0,0,0-7.57,4.8,4.8,0,0,0-3.6-1.57,4.74,4.74,0,0,0-3.56,1.57,5.59,5.59,0,0,0,0,7.58,4.77,4.77,0,0,0,3.61,1.57m10,.82V670.72h1.06l5,7.1,5-7.1h1.07v12.36h-1.19v-10.3l-5,6.83-4.92-6.83v10.3Z"></path> <path class="cls-6" d="M183.44,716.14V703.78h5.65a4.72,4.72,0,0,1,2.91.83,2.68,2.68,0,0,1,1.09,2.24,3,3,0,0,1-2.08,2.84,4.27,4.27,0,0,1,2,1.09,2.72,2.72,0,0,1,.77,2,2.92,2.92,0,0,1-1.21,2.45,5.21,5.21,0,0,1-3.22.92Zm1.19-6.84h4.29a3.43,3.43,0,0,0,2.15-.62,2.06,2.06,0,0,0,.81-1.75,1.82,1.82,0,0,0-.75-1.52,3.49,3.49,0,0,0-2.14-.57h-4.36Zm0,5.77h4.58a4,4,0,0,0,2.45-.67,2.11,2.11,0,0,0,.9-1.8,1.93,1.93,0,0,0-.94-1.7,5,5,0,0,0-2.7-.6h-4.29ZM212.28,720v-5a5,5,0,0,1-3.27,1.41,4.43,4.43,0,0,1-3.66-1.76,7.51,7.51,0,0,1-1.38-4.76,7.29,7.29,0,0,1,1.38-4.7,4.45,4.45,0,0,1,3.66-1.72,4.79,4.79,0,0,1,3.27,1.45v-5.77h1.19v5.77a6.57,6.57,0,0,1,1.49-1.08,3.9,3.9,0,0,1,1.78-.37,4.43,4.43,0,0,1,3.66,1.73,8.77,8.77,0,0,1,0,9.46,4.44,4.44,0,0,1-3.65,1.75,4.11,4.11,0,0,1-1.79-.34,6.76,6.76,0,0,1-1.48-1.07v5Zm-7-10q0,5.28,3.87,5.28a4.13,4.13,0,0,0,3.15-1.48V706.1a4.16,4.16,0,0,0-3.15-1.47,3.26,3.26,0,0,0-2.89,1.43,6.83,6.83,0,0,0-1,4m8.21,3.8a4.16,4.16,0,0,0,3.15,1.48q3.88,0,3.88-5.33a6.84,6.84,0,0,0-1-3.92,3.31,3.31,0,0,0-2.9-1.41,4.19,4.19,0,0,0-3.15,1.47Zm12,2.33V703.78h1.19v10.78l8.38-10.78h1.19v12.36h-1.19V705.35l-8.38,10.79ZM240.76,720V703.78H242v2.76a5.92,5.92,0,0,1,5.09-3,5.8,5.8,0,0,1,4.19,1.78,6.93,6.93,0,0,1,0,9.36,5.78,5.78,0,0,1-4.19,1.8,5.87,5.87,0,0,1-5.09-3V720Zm6.15-4.72a4.61,4.61,0,0,0,3.47-1.44,5.39,5.39,0,0,0,1.38-3.89,5.33,5.33,0,0,0-1.42-3.86,4.57,4.57,0,0,0-3.43-1.47,4.82,4.82,0,0,0-3.52,1.51,5.21,5.21,0,0,0-1.52,3.84,5.15,5.15,0,0,0,1.52,3.81,4.85,4.85,0,0,0,3.52,1.5m9.84.85V703.78h1.07l5,7.1,5-7.1H269v12.36h-1.19v-10.3l-5,6.83-4.92-6.83v10.3Zm27.05-2a6.75,6.75,0,0,1-5.11,2.33,5.78,5.78,0,0,1-4.28-1.82,6.39,6.39,0,0,1-1.78-4.68,6.61,6.61,0,0,1,1.68-4.58,5.41,5.41,0,0,1,4.18-1.86,5.11,5.11,0,0,1,4.11,1.84,6.92,6.92,0,0,1,1.56,4.63,3.4,3.4,0,0,1,0,.48H273.89a5.21,5.21,0,0,0,1.56,3.55,4.61,4.61,0,0,0,3.28,1.32,5.64,5.64,0,0,0,4.25-1.94Zm-9.91-4.72h9A6,6,0,0,0,281.6,706a3.87,3.87,0,0,0-3.16-1.38,4.08,4.08,0,0,0-3.1,1.37,5.5,5.5,0,0,0-1.45,3.43m13.74,6.76V703.78h1.19v5.5H297v-5.5h1.19v12.36H297v-5.8h-8.21v5.8Zm15.1,0V703.78h1.19v5.5h8.21v-5.5h1.19v12.36h-1.19v-5.8h-8.21v5.8ZM329.68,710a6.34,6.34,0,0,1-1.83,4.55,6.33,6.33,0,0,1-9.07,0,6.64,6.64,0,0,1,0-9.12,6.34,6.34,0,0,1,9.06,0,6.42,6.42,0,0,1,1.81,4.57m-6.33,5.35a4.72,4.72,0,0,0,3.55-1.57,5.57,5.57,0,0,0,0-7.58,4.79,4.79,0,0,0-3.6-1.56,4.73,4.73,0,0,0-3.56,1.56,5.61,5.61,0,0,0,0,7.59,4.79,4.79,0,0,0,3.61,1.56m10,.83V703.78h1.06l5,7.1,5-7.1h1.07v12.36h-1.19v-10.3l-5,6.83-4.92-6.83v10.3ZM367.82,714a6.55,6.55,0,0,1-5,2.45,6,6,0,0,1-4.48-1.89,6.65,6.65,0,0,1,0-9.15,6,6,0,0,1,4.47-1.9,6.33,6.33,0,0,1,4.92,2.3l-.82.85a5.8,5.8,0,0,0-4.12-2,4.65,4.65,0,0,0-3.53,1.58,5.59,5.59,0,0,0,0,7.57,4.79,4.79,0,0,0,3.61,1.56,5.48,5.48,0,0,0,4.1-2.11Zm6.45,2.16v-11.3h-4.63v-1.06h10.45v1.06h-4.63v11.3Zm8.8,0V703.78h1.18v10.78l8.39-10.78h1.19v12.36h-1.19V705.35l-8.39,10.79Zm14.46.19a4.84,4.84,0,0,1-1.35-.19l.21-1.09a4,4,0,0,0,.95.17,2.46,2.46,0,0,0,.79-.11,2.09,2.09,0,0,0,.66-.45,2.35,2.35,0,0,0,.59-1.07,19,19,0,0,0,.42-1.89,23.92,23.92,0,0,0,.3-3c.07-1.21.1-2.64.1-4.29v-.65h8.41v12.36h-1.19v-11.3h-6.08v.34c0,2-.07,3.7-.2,5.09a22.5,22.5,0,0,1-.48,3.26,4.6,4.6,0,0,1-.82,1.82,2.46,2.46,0,0,1-1,.81,4.17,4.17,0,0,1-1.28.17m25.91-2.23a6.75,6.75,0,0,1-5.11,2.33,5.78,5.78,0,0,1-4.28-1.82,6.39,6.39,0,0,1-1.78-4.68,6.61,6.61,0,0,1,1.68-4.58,5.43,5.43,0,0,1,4.18-1.86,5.11,5.11,0,0,1,4.11,1.84A6.92,6.92,0,0,1,423.8,710a3.4,3.4,0,0,1,0,.48H413.53a5.21,5.21,0,0,0,1.56,3.55,4.63,4.63,0,0,0,3.29,1.32,5.62,5.62,0,0,0,4.24-1.94Zm-9.91-4.72h9a5.89,5.89,0,0,0-1.28-3.42,3.86,3.86,0,0,0-3.15-1.38A4.08,4.08,0,0,0,415,706a5.5,5.5,0,0,0-1.45,3.43m13.06,9.35-.29-.61a2,2,0,0,0,1.36-1.77v-.21H427v-2.06h1.6v1.79a3,3,0,0,1-.46,1.79,3.18,3.18,0,0,1-1.55,1.07m13.52-2.59V703.78h8.17v1.06h-7v11.3Zm10.35.19a4.84,4.84,0,0,1-1.35-.19l.21-1.09a4,4,0,0,0,.95.17,2.5,2.5,0,0,0,.79-.11,2.09,2.09,0,0,0,.66-.45,2.25,2.25,0,0,0,.58-1.07,16.22,16.22,0,0,0,.43-1.89,23.92,23.92,0,0,0,.3-3c.07-1.21.1-2.64.1-4.29v-.65h8.41v12.36h-1.19v-11.3h-6.08v.34c0,2-.07,3.7-.2,5.09a24,24,0,0,1-.48,3.26,4.6,4.6,0,0,1-.82,1.82,2.46,2.46,0,0,1-1,.81,4.17,4.17,0,0,1-1.28.17m24.07-2.25a6,6,0,0,1-8.13,1.32,3.4,3.4,0,0,1-1.37-2.9,3.45,3.45,0,0,1,1.48-3,6.55,6.55,0,0,1,3.92-1.06,16.18,16.18,0,0,1,4.1.53v-.53a3.6,3.6,0,0,0-1.07-2.81,4.28,4.28,0,0,0-3-1,8.44,8.44,0,0,0-3.88,1l-.44-1a10.5,10.5,0,0,1,4.39-1.07,5.28,5.28,0,0,1,3.9,1.36,4.71,4.71,0,0,1,1.26,3.49v7.71h-1.16Zm-4.65,1.23a5.15,5.15,0,0,0,3.3-1.08,3.29,3.29,0,0,0,1.37-2.72V710.1a17,17,0,0,0-4.19-.56,5,5,0,0,0-3,.79,2.53,2.53,0,0,0-1.06,2.15,2.5,2.5,0,0,0,1,2.08,4.14,4.14,0,0,0,2.6.75m10.08.83V703.78h5.64a4.68,4.68,0,0,1,2.91.83,2.68,2.68,0,0,1,1.09,2.24,3,3,0,0,1-2.08,2.84,4.27,4.27,0,0,1,2,1.09,2.68,2.68,0,0,1,.77,2,2.92,2.92,0,0,1-1.21,2.45,5.19,5.19,0,0,1-3.22.92Zm1.18-6.84h4.29a3.41,3.41,0,0,0,2.15-.62,2.06,2.06,0,0,0,.81-1.75,1.82,1.82,0,0,0-.75-1.52,3.46,3.46,0,0,0-2.13-.57h-4.37Zm0,5.77h4.58a4,4,0,0,0,2.45-.67,2.11,2.11,0,0,0,.9-1.8,1.93,1.93,0,0,0-.93-1.7,5.06,5.06,0,0,0-2.71-.6h-4.29ZM494,716.14V703.78h1.19v5.5h8.22v-5.5h1.18v12.36h-1.18v-5.8H495.2v5.8ZM521,710a6.34,6.34,0,0,1-1.83,4.55,6.32,6.32,0,0,1-9.06,0,6.62,6.62,0,0,1,0-9.12,6.35,6.35,0,0,1,9.07,0A6.41,6.41,0,0,1,521,710m-6.32,5.35a4.73,4.73,0,0,0,3.55-1.57,5.57,5.57,0,0,0,0-7.58,4.82,4.82,0,0,0-3.6-1.56,4.72,4.72,0,0,0-3.56,1.56,5.61,5.61,0,0,0,0,7.59,4.78,4.78,0,0,0,3.61,1.56M535,714.1a6.77,6.77,0,0,1-5.12,2.33,5.8,5.8,0,0,1-4.28-1.82,6.43,6.43,0,0,1-1.78-4.68,6.61,6.61,0,0,1,1.69-4.58,5.4,5.4,0,0,1,4.18-1.86,5.13,5.13,0,0,1,4.11,1.84,6.92,6.92,0,0,1,1.56,4.63c0,.19,0,.35,0,.48H525A5.26,5.26,0,0,0,526.6,714a4.61,4.61,0,0,0,3.28,1.32,5.61,5.61,0,0,0,4.24-1.94ZM525,709.38h9a5.83,5.83,0,0,0-1.28-3.42,3.86,3.86,0,0,0-3.15-1.38,4.06,4.06,0,0,0-3.1,1.37,5.51,5.51,0,0,0-1.46,3.43"></path> <path class="cls-6" d="M193.94,747a6.54,6.54,0,0,1-5,2.44,6,6,0,0,1-4.49-1.89,6.65,6.65,0,0,1,0-9.15,6,6,0,0,1,4.48-1.9,6.36,6.36,0,0,1,4.92,2.3l-.83.85a5.8,5.8,0,0,0-4.12-2,4.62,4.62,0,0,0-3.52,1.57,5.61,5.61,0,0,0,0,7.58,4.78,4.78,0,0,0,3.61,1.56,5.46,5.46,0,0,0,4.09-2.11Zm15.19-4a6.38,6.38,0,0,1-1.83,4.56,6.34,6.34,0,0,1-9.06,0,6.62,6.62,0,0,1,0-9.12,6.34,6.34,0,0,1,9.07,0,6.43,6.43,0,0,1,1.8,4.57m-6.32,5.36a4.74,4.74,0,0,0,3.55-1.58,5.55,5.55,0,0,0,0-7.57,4.82,4.82,0,0,0-3.6-1.56,4.72,4.72,0,0,0-3.56,1.56,5.61,5.61,0,0,0,0,7.59,4.76,4.76,0,0,0,3.61,1.56m8.82.82,5.06-6.3-4.87-6.06h1.48l4.17,5.24,4.17-5.24h1.43l-4.87,6,5.06,6.32h-1.48l-4.36-5.5-4.36,5.5Zm15,3.88V736.83h1.18v2.77a5.94,5.94,0,0,1,5.09-3.06,5.83,5.83,0,0,1,4.19,1.78,6.94,6.94,0,0,1,0,9.37,5.76,5.76,0,0,1-4.19,1.79,5.87,5.87,0,0,1-5.09-3v6.54Zm6.15-4.73a4.61,4.61,0,0,0,3.47-1.44,5.39,5.39,0,0,0,1.38-3.89,5.31,5.31,0,0,0-1.42-3.85,4.57,4.57,0,0,0-3.43-1.48,4.85,4.85,0,0,0-3.53,1.52,5.24,5.24,0,0,0-1.51,3.84,5.16,5.16,0,0,0,1.51,3.8,4.87,4.87,0,0,0,3.53,1.5m18.32-1.21a6,6,0,0,1-8.13,1.32,3.72,3.72,0,0,1,.11-5.85,6.6,6.6,0,0,1,3.93-1.07,15.68,15.68,0,0,1,4.09.54v-.54a3.62,3.62,0,0,0-1.06-2.81,4.36,4.36,0,0,0-3-1,8.52,8.52,0,0,0-3.88,1l-.43-1a10.27,10.27,0,0,1,4.38-1.07A5.28,5.28,0,0,1,251,738a4.71,4.71,0,0,1,1.26,3.49v7.7h-1.17Zm-4.65,1.24a5.2,5.2,0,0,0,3.31-1.08,3.34,3.34,0,0,0,1.37-2.73v-1.4a17.11,17.11,0,0,0-4.2-.56,4.88,4.88,0,0,0-3,.79,2.53,2.53,0,0,0-1,2.14,2.49,2.49,0,0,0,1,2.09,4.11,4.11,0,0,0,2.59.75m10.08.82V736.83h1.19v5.5h8.21v-5.5h1.19v12.36h-1.19V743.4H257.7v5.79Zm14.11,0,3.9-4.92A4.77,4.77,0,0,1,272,743a3.53,3.53,0,0,1,.21-5.14,5,5,0,0,1,3.32-1H281v12.36h-1.19v-4.75h-4.07l-3.68,4.75Zm5.08-5.81h4.12V737.9h-4.16a3.87,3.87,0,0,0-2.51.73,2.36,2.36,0,0,0-.91,2,2.43,2.43,0,0,0,1,2,3.91,3.91,0,0,0,2.49.77m12.92,5.81V737.9H284v-1.07h10.45v1.07h-4.63v11.29Zm8.8,0V736.83h1.19v4.75h3.68a5.94,5.94,0,0,1,3.39.91,3.1,3.1,0,0,1,1.34,2.73,3.63,3.63,0,0,1-1.24,2.88,4.73,4.73,0,0,1-3.27,1.09Zm1.19-1.06h3.71a3.83,3.83,0,0,0,2.49-.75,2.57,2.57,0,0,0,.92-2.11,2.24,2.24,0,0,0-.94-1.93,4.28,4.28,0,0,0-2.57-.69h-3.61Zm29.22-1a6.73,6.73,0,0,1-5.11,2.32,5.79,5.79,0,0,1-4.28-1.81,6.46,6.46,0,0,1-1.78-4.68,6.55,6.55,0,0,1,1.69-4.58,5.37,5.37,0,0,1,4.18-1.87,5.17,5.17,0,0,1,4.11,1.84A6.94,6.94,0,0,1,328.2,743a3.28,3.28,0,0,1,0,.49H317.92a5.28,5.28,0,0,0,1.57,3.55,4.59,4.59,0,0,0,3.28,1.32,5.66,5.66,0,0,0,4.24-1.94Zm-9.91-4.73h9a5.83,5.83,0,0,0-1.28-3.42,3.86,3.86,0,0,0-3.15-1.38,4.1,4.1,0,0,0-3.1,1.37,5.56,5.56,0,0,0-1.46,3.43m11.83,10.25v-4.55h1.62q1.81-3,1.82-8.68v-2.62h8.29v11.3h2l-.25,4.55h-1v-3.49H331l-.24,3.49Zm2.93-4.55h7.61V737.9h-6v2.23a22.45,22.45,0,0,1-.45,4.58,11.26,11.26,0,0,1-1.2,3.42m13.77,1.06V736.83h1.18v10.79L356,736.83h1.19v12.36H356V738.41l-8.39,10.78Zm15.26,0V736.83h1.19v5.5h8.22v-5.5h1.19v12.36h-1.19V743.4H362.9v5.79Zm15.1,0V736.83H378v4.75h3.68a6,6,0,0,1,3.4.91,3.09,3.09,0,0,1,1.33,2.73,3.63,3.63,0,0,1-1.24,2.88,4.73,4.73,0,0,1-3.27,1.09Zm1.19-1.06h3.71a3.81,3.81,0,0,0,2.49-.75,2.58,2.58,0,0,0,.93-2.11,2.25,2.25,0,0,0-.95-1.93,4.28,4.28,0,0,0-2.57-.69H378Zm10.88-11.3h1.19v12.36h-1.19Zm5.7,12.36V736.83h1.19v10.79l8.38-10.79h1.19v12.36h-1.19V738.41l-8.38,10.78ZM403.23,732a3.38,3.38,0,0,1-1.12,2,3.1,3.1,0,0,1-2.15.79,3.15,3.15,0,0,1-2.16-.79,3.31,3.31,0,0,1-1.11-2l1-.21a2.35,2.35,0,0,0,4.56,0Zm24.94,20.65v-3.49H417.12V736.83h1.18v11.3h7.9v-11.3h1.19v11.3h2l-.24,4.55Zm4.19-3.49V736.83H438a4.61,4.61,0,0,1,2.9.84,2.68,2.68,0,0,1,1.1,2.24,3,3,0,0,1-2.09,2.84,4.27,4.27,0,0,1,2,1.09,2.67,2.67,0,0,1,.78,2,2.94,2.94,0,0,1-1.21,2.45,5.18,5.18,0,0,1-3.23.92Zm1.19-6.83h4.29a3.44,3.44,0,0,0,2.14-.62,2.08,2.08,0,0,0,.81-1.76,1.8,1.8,0,0,0-.75-1.51,3.46,3.46,0,0,0-2.13-.57h-4.36Zm0,5.77h4.58a4,4,0,0,0,2.44-.67,2.13,2.13,0,0,0,.9-1.81,1.91,1.91,0,0,0-.93-1.69,4.91,4.91,0,0,0-2.7-.61h-4.29Zm23.19-1a6.74,6.74,0,0,1-5.11,2.32,5.77,5.77,0,0,1-4.28-1.81,6.42,6.42,0,0,1-1.78-4.68,6.59,6.59,0,0,1,1.68-4.58,5.39,5.39,0,0,1,4.18-1.87,5.14,5.14,0,0,1,4.11,1.84A6.94,6.94,0,0,1,457.1,743a3.48,3.48,0,0,1,0,.49H446.83a5.23,5.23,0,0,0,1.56,3.55,4.61,4.61,0,0,0,3.28,1.32,5.68,5.68,0,0,0,4.25-1.94Zm-9.91-4.73h9a5.9,5.9,0,0,0-1.29-3.42,3.85,3.85,0,0,0-3.15-1.38,4.11,4.11,0,0,0-3.1,1.37,5.55,5.55,0,0,0-1.45,3.43m16.84,6.76V737.9H459v-1.07h10.45v1.07h-4.63v11.29Z"></path> <path class="cls-6" d="M181.53,785.74v-4.56h1.62c1.21-2,1.82-4.88,1.82-8.67v-2.62h8.29v11.29h2l-.25,4.56h-1v-3.49H182.76l-.24,3.49Zm2.93-4.56h7.61V771h-6v2.23a22.47,22.47,0,0,1-.45,4.59,11.29,11.29,0,0,1-1.2,3.41m13,1.26a4.85,4.85,0,0,1-1.36-.19l.22-1.09a3.91,3.91,0,0,0,.94.17,2.42,2.42,0,0,0,.79-.11,2.06,2.06,0,0,0,.67-.45,2.44,2.44,0,0,0,.58-1.07,16.5,16.5,0,0,0,.42-1.89,25.71,25.71,0,0,0,.31-3q.09-1.82.09-4.29v-.65h8.41v12.36h-1.19V771h-6.08v.34c0,2-.06,3.7-.19,5.09a22.28,22.28,0,0,1-.49,3.26,4.53,4.53,0,0,1-.82,1.82,2.46,2.46,0,0,1-1,.81,3.82,3.82,0,0,1-1.27.17m14.59-.19,3.9-4.92a4.78,4.78,0,0,1-2.56-1.29,3.54,3.54,0,0,1,.21-5.13,5,5,0,0,1,3.32-1h5.52v12.36h-1.18V777.5h-4.08l-3.68,4.75Zm5.09-5.82h4.12V771h-4.17a3.93,3.93,0,0,0-2.51.73,2.38,2.38,0,0,0-.91,2,2.43,2.43,0,0,0,1,2,3.9,3.9,0,0,0,2.5.76m17.08,5.82V769.89h1.19v7.92l7.66-7.92h1.57l-5.4,5.48,5.57,6.88h-1.5l-4.9-6-3,3v3Zm22-2.06a6,6,0,0,1-8.13,1.32,3.72,3.72,0,0,1,.11-5.85,6.55,6.55,0,0,1,3.92-1.07,16.18,16.18,0,0,1,4.1.53v-.53a3.61,3.61,0,0,0-1.07-2.81,4.28,4.28,0,0,0-3-1,8.44,8.44,0,0,0-3.88,1l-.44-1a10.48,10.48,0,0,1,4.39-1.06,5.28,5.28,0,0,1,3.9,1.35,4.73,4.73,0,0,1,1.26,3.49v7.71h-1.16Zm-4.65,1.23a5.15,5.15,0,0,0,3.3-1.07,3.32,3.32,0,0,0,1.37-2.73v-1.41a16.94,16.94,0,0,0-4.19-.55,5,5,0,0,0-3,.78,2.53,2.53,0,0,0-1.06,2.15,2.47,2.47,0,0,0,1,2.08,4.14,4.14,0,0,0,2.6.75m8.45.83,5.24-7-4.92-5.35h1.5l7.08,7.88v-7.88H270v7.88l7.08-7.88h1.5l-4.94,5.35,5.26,7h-1.46l-4.55-6.16L270,779.22v3h-1.18v-3L266,776.07l-4.55,6.18Zm19.95,3.49v-4.56h1.62c1.21-2,1.82-4.88,1.82-8.67v-2.62h8.29v11.29h2l-.25,4.56h-1v-3.49H281.13l-.24,3.49Zm2.93-4.56h7.61V771h-6v2.23a22.47,22.47,0,0,1-.45,4.59,11.29,11.29,0,0,1-1.2,3.41m25.62-5.11a6.34,6.34,0,0,1-1.83,4.55,6.34,6.34,0,0,1-9.07,0,6.65,6.65,0,0,1,0-9.13,6,6,0,0,1,4.54-1.91,6,6,0,0,1,4.52,1.9,6.42,6.42,0,0,1,1.81,4.57m-6.33,5.35a4.7,4.7,0,0,0,3.55-1.57,5.55,5.55,0,0,0,0-7.57,4.76,4.76,0,0,0-3.6-1.57,4.71,4.71,0,0,0-3.56,1.57,5.59,5.59,0,0,0,0,7.58,4.79,4.79,0,0,0,3.61,1.56m10,.83V769.89h8.16V771h-7v11.3Zm23-6.18a6.34,6.34,0,0,1-1.83,4.55,6.34,6.34,0,0,1-9.07,0,6.65,6.65,0,0,1,0-9.13,6,6,0,0,1,4.54-1.91,6,6,0,0,1,4.52,1.9,6.42,6.42,0,0,1,1.81,4.57m-6.33,5.35a4.72,4.72,0,0,0,3.55-1.57,5.55,5.55,0,0,0,0-7.57,4.76,4.76,0,0,0-3.6-1.57,4.69,4.69,0,0,0-3.56,1.57,5.59,5.59,0,0,0,0,7.58,4.78,4.78,0,0,0,3.61,1.56m22.9,1.12a5.83,5.83,0,0,1-4.46-1.87,6.91,6.91,0,0,1-1.74-4.92q0-1.23,0-2c0-.55.08-1.16.17-1.86a7,7,0,0,1,.43-1.76,8.11,8.11,0,0,1,.76-1.41,4.12,4.12,0,0,1,1.24-1.18,6.71,6.71,0,0,1,1.78-.74l7-1.77.34,1.07-6.79,1.79a5,5,0,0,0-2.8,1.61,6.36,6.36,0,0,0-1,3.29,5.82,5.82,0,0,1,5.36-2.91,5.51,5.51,0,0,1,4.19,1.87,6.54,6.54,0,0,1-.05,8.94,5.89,5.89,0,0,1-4.46,1.89m.05-1.12a4.54,4.54,0,0,0,3.51-1.52,5.28,5.28,0,0,0,1.41-3.71,5.22,5.22,0,0,0-1.44-3.71,4.67,4.67,0,0,0-3.53-1.53,4.56,4.56,0,0,0-3.51,1.53,5.28,5.28,0,0,0-1.41,3.71,5.22,5.22,0,0,0,1.44,3.71,4.67,4.67,0,0,0,3.53,1.52m9.06,1a4.84,4.84,0,0,1-1.35-.19l.22-1.09a3.83,3.83,0,0,0,.94.17,2.46,2.46,0,0,0,.79-.11,1.93,1.93,0,0,0,.66-.45,2.35,2.35,0,0,0,.59-1.07,19,19,0,0,0,.42-1.89,23.92,23.92,0,0,0,.3-3c.07-1.21.1-2.64.1-4.29v-.65h8.41v12.36h-1.19V771H364.6v.34c0,2-.07,3.7-.19,5.09a23.74,23.74,0,0,1-.49,3.26,4.53,4.53,0,0,1-.82,1.82,2.46,2.46,0,0,1-1,.81,3.85,3.85,0,0,1-1.28.17m27.44-6.37a6.34,6.34,0,0,1-1.83,4.55,6.33,6.33,0,0,1-9.06,0,6.64,6.64,0,0,1,0-9.13,6,6,0,0,1,4.54-1.91,6,6,0,0,1,4.52,1.9,6.38,6.38,0,0,1,1.81,4.57m-6.33,5.35a4.7,4.7,0,0,0,3.55-1.57,5.55,5.55,0,0,0,0-7.57,4.76,4.76,0,0,0-3.6-1.57,4.71,4.71,0,0,0-3.56,1.57,5.59,5.59,0,0,0,0,7.58,4.79,4.79,0,0,0,3.61,1.56m10,.83V769.89h1.19v7.92l7.65-7.92h1.58l-5.41,5.48,5.58,6.88H401l-4.9-6-3,3v3Zm21.95-2.06a5.44,5.44,0,0,1-4.72,2.35,5.51,5.51,0,0,1-3.41-1,3.72,3.72,0,0,1,.11-5.85,6.6,6.6,0,0,1,3.93-1.07,16.1,16.1,0,0,1,4.09.53v-.53a3.61,3.61,0,0,0-1.06-2.81,4.29,4.29,0,0,0-3-1,8.43,8.43,0,0,0-3.87,1l-.44-1a10.44,10.44,0,0,1,4.39-1.06,5.31,5.31,0,0,1,3.9,1.35,4.73,4.73,0,0,1,1.26,3.49v7.71h-1.17Zm-4.65,1.23a5.18,5.18,0,0,0,3.31-1.07,3.34,3.34,0,0,0,1.37-2.73v-1.41a17,17,0,0,0-4.19-.55,5,5,0,0,0-3,.78,2.55,2.55,0,0,0-1.05,2.15,2.47,2.47,0,0,0,1,2.08,4.11,4.11,0,0,0,2.59.75"></path> <path class="cls-6" d="M189.45,815.55a10,10,0,0,1-6.83-2.72l.82-.94a9.76,9.76,0,0,0,2.84,1.92,8.23,8.23,0,0,0,3.25.6,4.79,4.79,0,0,0,3.09-1,3,3,0,0,0,1.2-2.46,2.73,2.73,0,0,0-1-2.23,9.22,9.22,0,0,0-3.79-1.38,10.21,10.21,0,0,1-4.39-1.74,3.8,3.8,0,0,1-1.33-3.08,4,4,0,0,1,1.55-3.18,5.93,5.93,0,0,1,3.9-1.28,9.08,9.08,0,0,1,3.14.49,10,10,0,0,1,2.68,1.57l-.8,1a7.53,7.53,0,0,0-5.07-1.91,4.61,4.61,0,0,0-3,.93,2.85,2.85,0,0,0-1.15,2.31,2.78,2.78,0,0,0,1,2.28,9.45,9.45,0,0,0,3.91,1.43,9.79,9.79,0,0,1,4.25,1.72,3.73,3.73,0,0,1,1.33,3,4.11,4.11,0,0,1-1.58,3.33,6.13,6.13,0,0,1-4.05,1.3m8.32-.25,7.9-17.08h1.21l7.9,17.08H213.4l-2.16-4.75h-10l-2.15,4.75Zm4-5.88h9l-4.46-9.82Zm16.61,5.88v-17h1.26v15.8h10v1.16Zm15,0v-17h12.07v1.16H234.63v6.67h9.72v1.16h-9.72v6.81h10.93v1.16Zm22,.25a10,10,0,0,1-6.84-2.72l.83-.94a9.72,9.72,0,0,0,2.83,1.92,8.23,8.23,0,0,0,3.25.6,4.79,4.79,0,0,0,3.09-1,3,3,0,0,0,1.2-2.46,2.73,2.73,0,0,0-1-2.23,9.16,9.16,0,0,0-3.79-1.38,10.16,10.16,0,0,1-4.38-1.74,3.81,3.81,0,0,1-1.34-3.08,4,4,0,0,1,1.55-3.18,6,6,0,0,1,3.9-1.28,9,9,0,0,1,3.14.49,10,10,0,0,1,2.68,1.57l-.8,1a7.53,7.53,0,0,0-5.06-1.91,4.64,4.64,0,0,0-3,.93,2.88,2.88,0,0,0-1.15,2.31,2.81,2.81,0,0,0,1,2.28,9.51,9.51,0,0,0,3.92,1.43,9.84,9.84,0,0,1,4.25,1.72,3.75,3.75,0,0,1,1.32,3,4.08,4.08,0,0,1-1.58,3.33,6.11,6.11,0,0,1-4,1.3m16.77-.25V803h1.19v10.78L281.69,803h1.19V815.3h-1.19V804.52l-8.38,10.78Zm12.58,3.11L296.13,796h1.19l-11.44,22.44Zm14.8-3.11V803h1.19v10.78L309.08,803h1.18V815.3h-1.18V804.52l-8.39,10.78Zm14.47.2a4.85,4.85,0,0,1-1.35-.2l.21-1.09a3.52,3.52,0,0,0,.95.17,2.53,2.53,0,0,0,.79-.1,2.28,2.28,0,0,0,.66-.45,2.34,2.34,0,0,0,.58-1.07,16.22,16.22,0,0,0,.43-1.89,26.25,26.25,0,0,0,.3-3c.07-1.21.1-2.64.1-4.29V803h8.41V815.3h-1.19V804h-6.08v.34c0,2-.07,3.7-.2,5.09a24,24,0,0,1-.48,3.26,4.6,4.6,0,0,1-.83,1.82,2.35,2.35,0,0,1-1,.81,4.06,4.06,0,0,1-1.27.17m15.58-.2V803h1.19v10.78L339.13,803h1.19V815.3h-1.19V804.52l-8.39,10.78Zm22.81,0v-17H358a9,9,0,0,1,6.49,2.41,8.55,8.55,0,0,1,0,12.13A9,9,0,0,1,358,815.3Zm1.26-1.16H358a7.6,7.6,0,0,0,5.58-2.08,7.5,7.5,0,0,0,0-10.45A7.58,7.58,0,0,0,358,799.5h-4.39Zm17.69,1.16v-17h12.07v1.16H372.57v6.67h9.72v1.16h-9.72v6.81H383.5v1.16Zm16.24,0v-17h6.16a7.11,7.11,0,0,1,4.56,1.39,5.12,5.12,0,0,1-.17,7.83,7.64,7.64,0,0,1-4.71,1.42h-4.58v6.32Zm1.26-7.48h4.65a6,6,0,0,0,3.83-1.15,3.72,3.72,0,0,0,1.46-3.07,3.59,3.59,0,0,0-1.4-3,6,6,0,0,0-3.74-1.07h-4.8Z"></path> <path class="cls-6" d="M1032.36,546.59a8.6,8.6,0,1,1-2.49-6.23,8.53,8.53,0,0,1,2.49,6.23m-14.61,0a6.06,6.06,0,0,0,1.64,4.28,5.74,5.74,0,0,0,8.24,0,6.46,6.46,0,0,0,0-8.57,5.71,5.71,0,0,0-8.24,0,6.09,6.09,0,0,0-1.61,4.29m24.09,8.77a6.16,6.16,0,0,1-4.85-2,8,8,0,0,1-1.74-5.5c0-.76,0-1.43.06-2s.12-1.2.23-1.87a6.81,6.81,0,0,1,.52-1.75,7,7,0,0,1,.9-1.45,4.6,4.6,0,0,1,1.4-1.16,7.47,7.47,0,0,1,2-.71l7-1.46.49,2.35-7,1.53a4.12,4.12,0,0,0-2.5,1.3,4.19,4.19,0,0,0-.87,2.33,5,5,0,0,1,1.83-1.68,6.09,6.09,0,0,1,3.09-.71,5.88,5.88,0,0,1,4.3,1.8,6,6,0,0,1,1.81,4.42,6.31,6.31,0,0,1-1.91,4.61,6.45,6.45,0,0,1-4.76,1.91m.05-2.54a3.42,3.42,0,0,0,2.65-1.13,4.24,4.24,0,0,0,0-5.6,3.51,3.51,0,0,0-2.65-1.15,3.39,3.39,0,0,0-2.63,1.14,4,4,0,0,0-1,2.81,3.94,3.94,0,0,0,1.07,2.79,3.47,3.47,0,0,0,2.64,1.14m9.5,2.4a11.13,11.13,0,0,1-1.72-.17l.22-2.4a3.65,3.65,0,0,0,.84.1,2,2,0,0,0,.84-.15,1.77,1.77,0,0,0,.68-.74,5,5,0,0,0,.54-1.68,28.09,28.09,0,0,0,.32-3.07q.12-2,.12-4.83h9.67v12.79H1060V544.8h-4a40.93,40.93,0,0,1-.22,4.65,15.78,15.78,0,0,1-.57,3,4.16,4.16,0,0,1-1,1.73,3.11,3.11,0,0,1-1.25.81,5.35,5.35,0,0,1-1.57.2m25.93-.15h-2.91V553.5a5.15,5.15,0,0,1-4.14,1.84,5,5,0,0,1-3.24-1.06,3.54,3.54,0,0,1-1.32-2.94,3.69,3.69,0,0,1,1.43-3.13,6.14,6.14,0,0,1,3.76-1.06,11.8,11.8,0,0,1,3.54.53v-.24a2.53,2.53,0,0,0-.82-2,3.45,3.45,0,0,0-2.33-.7,9.5,9.5,0,0,0-3.66.8l-.8-2.35a11.76,11.76,0,0,1,4.87-1.07,5.7,5.7,0,0,1,4.2,1.41,5.37,5.37,0,0,1,1.42,4Zm-2.84-4.63v-.72a8,8,0,0,0-2.93-.51,3.77,3.77,0,0,0-2.15.53,1.72,1.72,0,0,0-.78,1.5,1.6,1.6,0,0,0,.7,1.38,2.94,2.94,0,0,0,1.77.51,3.84,3.84,0,0,0,2.44-.75,2.35,2.35,0,0,0,1-1.94m12.24,4.92a6.35,6.35,0,0,1-4.72-1.92,6.46,6.46,0,0,1-1.89-4.69v0A6.55,6.55,0,0,1,1082,544a6.33,6.33,0,0,1,4.74-2,6.58,6.58,0,0,1,5.11,2.21l-1.82,2a4.51,4.51,0,0,0-3.32-1.6,3.36,3.36,0,0,0-2.63,1.19,4.19,4.19,0,0,0-1,2.88v.05a4.19,4.19,0,0,0,1.08,2.93,3.55,3.55,0,0,0,2.75,1.19,4.59,4.59,0,0,0,3.32-1.6L1092,553a7.65,7.65,0,0,1-2.27,1.78,6.39,6.39,0,0,1-3,.62m10.55-.29V544.8h-4.12v-2.52h11.19v2.52h-4.12v10.27Zm9.4,0V542.28h2.93v4.48h2.93a6.15,6.15,0,0,1,3.69,1,3.52,3.52,0,0,1,1.4,3,3.9,3.9,0,0,1-1.31,3.12,5.23,5.23,0,0,1-3.56,1.14Zm2.93-2.37h2.76a2.63,2.63,0,0,0,1.72-.49,1.67,1.67,0,0,0,.61-1.4,1.53,1.53,0,0,0-.62-1.31,2.87,2.87,0,0,0-1.75-.46h-2.72Zm24.07,2.66a6.14,6.14,0,0,1-4.85-2,8,8,0,0,1-1.75-5.5c0-.76,0-1.43.06-2a17.76,17.76,0,0,1,.24-1.87,6.44,6.44,0,0,1,.52-1.75,7.35,7.35,0,0,1,.89-1.45,4.77,4.77,0,0,1,1.41-1.16,7.35,7.35,0,0,1,2-.71l7-1.46.48,2.35-7,1.53a4.12,4.12,0,0,0-2.49,1.3,4.2,4.2,0,0,0-.88,2.33,5,5,0,0,1,1.83-1.68,6.14,6.14,0,0,1,3.09-.71,5.9,5.9,0,0,1,4.31,1.8,6,6,0,0,1,1.8,4.42,6.3,6.3,0,0,1-1.9,4.61,6.47,6.47,0,0,1-4.76,1.91m0-2.54a3.45,3.45,0,0,0,2.66-1.13,4,4,0,0,0,1-2.8,4,4,0,0,0-1.08-2.8,3.51,3.51,0,0,0-2.65-1.15,3.37,3.37,0,0,0-2.63,1.14,4,4,0,0,0-1,2.81,3.93,3.93,0,0,0,1.06,2.79,3.47,3.47,0,0,0,2.64,1.14m20.7.14a6.45,6.45,0,0,1-5.23,2.4,6.38,6.38,0,0,1-4.69-1.86,6.53,6.53,0,0,1-1.88-4.83,6.75,6.75,0,0,1,1.77-4.72,5.81,5.81,0,0,1,4.48-1.94,5.52,5.52,0,0,1,4.52,2,7.5,7.5,0,0,1,1.61,4.91,4.57,4.57,0,0,1,0,.83h-9.4a3.83,3.83,0,0,0,1.24,2.38,3.57,3.57,0,0,0,2.44.86,4.9,4.9,0,0,0,3.47-1.52Zm-8.89-5.18h6.57a4.13,4.13,0,0,0-1-2.43,2.87,2.87,0,0,0-2.25-.94,3,3,0,0,0-2.23.93,4.18,4.18,0,0,0-1.09,2.44m16.79,7.58a8.34,8.34,0,0,1-5.6-2l1.38-1.94a6.06,6.06,0,0,0,4,1.53,2.91,2.91,0,0,0,1.72-.5,1.49,1.49,0,0,0,.7-1.27,1.33,1.33,0,0,0-.68-1.17,3.53,3.53,0,0,0-1.91-.43h-1.58v-2.11H1162a2.63,2.63,0,0,0,1.63-.47,1.44,1.44,0,0,0,.62-1.2,1.24,1.24,0,0,0-.59-1.06,2.72,2.72,0,0,0-1.52-.4,5.34,5.34,0,0,0-3.63,1.31l-1.31-1.84a7.63,7.63,0,0,1,5.21-1.84,5.67,5.67,0,0,1,3.44,1,2.94,2.94,0,0,1,1.33,2.47,3,3,0,0,1-2,2.91,3.09,3.09,0,0,1,2.33,3.1,3.44,3.44,0,0,1-1.43,2.78,5.82,5.82,0,0,1-3.71,1.12m14.28,0a6.55,6.55,0,0,1-4.85-1.94,6.71,6.71,0,0,1,0-9.46,7.06,7.06,0,0,1,9.73,0,6.68,6.68,0,0,1,0,9.46,6.66,6.66,0,0,1-4.89,2m0-2.54a3.61,3.61,0,0,0,2.82-1.19,4.22,4.22,0,0,0,1.06-2.93,4.14,4.14,0,0,0-1.11-2.92,3.68,3.68,0,0,0-2.81-1.2,3.54,3.54,0,0,0-2.79,1.19,4.23,4.23,0,0,0-1.07,2.93,4.13,4.13,0,0,0,1.12,2.91,3.64,3.64,0,0,0,2.78,1.21m9.8,2.25V542.28h11.41v12.79h-2.93V544.8h-5.55v10.27Zm25.83,0h-2.91V553.5a5.15,5.15,0,0,1-4.14,1.84,5,5,0,0,1-3.24-1.06,3.54,3.54,0,0,1-1.32-2.94,3.69,3.69,0,0,1,1.43-3.13,6.14,6.14,0,0,1,3.76-1.06,11.8,11.8,0,0,1,3.54.53v-.24a2.53,2.53,0,0,0-.82-2,3.45,3.45,0,0,0-2.33-.7,9.5,9.5,0,0,0-3.66.8l-.8-2.35a11.76,11.76,0,0,1,4.87-1.07,5.7,5.7,0,0,1,4.2,1.41,5.37,5.37,0,0,1,1.42,4Zm-2.84-4.63v-.72a8,8,0,0,0-2.93-.51,3.77,3.77,0,0,0-2.15.53,1.72,1.72,0,0,0-.78,1.5,1.6,1.6,0,0,0,.7,1.38,2.94,2.94,0,0,0,1.77.51,3.84,3.84,0,0,0,2.44-.75,2.35,2.35,0,0,0,1-1.94m12.24,4.92a6.35,6.35,0,0,1-4.72-1.92,6.46,6.46,0,0,1-1.89-4.69v0A6.55,6.55,0,0,1,1217,544a6.33,6.33,0,0,1,4.74-2,6.58,6.58,0,0,1,5.11,2.21l-1.82,2a4.51,4.51,0,0,0-3.32-1.6,3.36,3.36,0,0,0-2.63,1.19,4.19,4.19,0,0,0-1,2.88v.05a4.19,4.19,0,0,0,1.08,2.93,3.55,3.55,0,0,0,2.75,1.19,4.59,4.59,0,0,0,3.32-1.6l1.77,1.74a7.65,7.65,0,0,1-2.27,1.78,6.39,6.39,0,0,1-3,.62m7.81-.29V542.28h2.93v5.18h5.65v-5.18H1241v12.79h-2.93v-5.16h-5.65v5.16Zm21.28.29a6.55,6.55,0,0,1-4.85-1.94,6.71,6.71,0,0,1,0-9.46,7.06,7.06,0,0,1,9.73,0,6.7,6.7,0,0,1,0,9.46,6.66,6.66,0,0,1-4.89,2m0-2.54a3.59,3.59,0,0,0,2.81-1.19,4.19,4.19,0,0,0,1.07-2.93,4.14,4.14,0,0,0-1.11-2.92,3.68,3.68,0,0,0-2.81-1.2,3.54,3.54,0,0,0-2.79,1.19,4.23,4.23,0,0,0-1.07,2.93,4.13,4.13,0,0,0,1.12,2.91,3.64,3.64,0,0,0,2.78,1.21m15.71,2.54a6.37,6.37,0,0,1-4.73-1.92,6.46,6.46,0,0,1-1.89-4.69v0a6.59,6.59,0,0,1,1.9-4.73,6.33,6.33,0,0,1,4.74-2,6.58,6.58,0,0,1,5.11,2.21l-1.81,2a4.54,4.54,0,0,0-3.32-1.6,3.34,3.34,0,0,0-2.63,1.19,4.2,4.2,0,0,0-1.06,2.88v.05a4.19,4.19,0,0,0,1.08,2.93,3.57,3.57,0,0,0,2.75,1.19,4.57,4.57,0,0,0,3.32-1.6l1.77,1.74a7.62,7.62,0,0,1-2.26,1.78,6.45,6.45,0,0,1-3,.62m10.54-.29V544.8h-4.12v-2.52h11.2v2.52H1280v10.27Zm9.4,0V542.28h2.86v8.57q4-5.72,6.06-8.57h2.76v12.79h-2.83v-8.53l-6.08,8.53Z"></path> <path class="cls-6" d="M1015.38,773.09v-17h2.93v12.39l8.58-12.39h2.78v17h-2.93V760.73l-8.55,12.36Zm24.26.29a6.33,6.33,0,0,1-4.73-1.93,6.44,6.44,0,0,1-1.89-4.69v0a6.53,6.53,0,0,1,1.9-4.72,6.34,6.34,0,0,1,4.74-2,6.61,6.61,0,0,1,5.11,2.21l-1.82,2a4.53,4.53,0,0,0-3.31-1.59,3.35,3.35,0,0,0-2.63,1.18,4.18,4.18,0,0,0-1.06,2.89v0a4.2,4.2,0,0,0,1.08,2.94,3.56,3.56,0,0,0,2.75,1.18,4.57,4.57,0,0,0,3.32-1.6l1.77,1.75a7.53,7.53,0,0,1-2.27,1.78,6.51,6.51,0,0,1-3,.62m7.8-.29v-12.8h2.91v6.13l5.57-6.13h3.44l-5,5.38,5.38,7.42h-3.46l-3.88-5.29-2.08,2.21v3.08Zm25.11,0h-2.91v-1.58a5.15,5.15,0,0,1-4.15,1.84,5,5,0,0,1-3.23-1.05,3.54,3.54,0,0,1-1.32-2.94,3.64,3.64,0,0,1,1.43-3.13,6.11,6.11,0,0,1,3.75-1.07,11.41,11.41,0,0,1,3.54.54v-.25a2.55,2.55,0,0,0-.81-2,3.46,3.46,0,0,0-2.34-.7,9.4,9.4,0,0,0-3.66.8l-.8-2.36a11.82,11.82,0,0,1,4.87-1.06,5.78,5.78,0,0,1,4.21,1.4,5.41,5.41,0,0,1,1.42,4Zm-2.84-4.63v-.73a8,8,0,0,0-2.93-.51,3.75,3.75,0,0,0-2.16.54,1.7,1.7,0,0,0-.78,1.5,1.62,1.62,0,0,0,.71,1.38,2.92,2.92,0,0,0,1.77.51,3.83,3.83,0,0,0,2.43-.75,2.36,2.36,0,0,0,1-1.94m4.7,4.63,5-7.42-4.83-5.38H1078l5.31,6.28v-6.28h2.93v6.28l5.33-6.28H1095l-4.82,5.38,5,7.42h-3.29l-3.66-5.45-2,2.22v3.23h-2.93v-3.23l-2-2.22-3.66,5.45Zm33.93-2.11a6.46,6.46,0,0,1-5.24,2.4,6.35,6.35,0,0,1-4.68-1.87,6.46,6.46,0,0,1-1.88-4.82,6.78,6.78,0,0,1,1.77-4.73,5.81,5.81,0,0,1,4.48-1.94,5.51,5.51,0,0,1,4.52,2,7.48,7.48,0,0,1,1.61,4.91,4.45,4.45,0,0,1-.05.82h-9.4a3.78,3.78,0,0,0,1.24,2.39,3.62,3.62,0,0,0,2.44.86,4.89,4.89,0,0,0,3.47-1.53Zm-8.89-5.19H1106a4.12,4.12,0,0,0-1-2.42,2.89,2.89,0,0,0-2.25-1,3,3,0,0,0-2.23.94,4.09,4.09,0,0,0-1.09,2.43m12.43,7.3v-12.8h2.93v5.19h5.65v-5.19h2.93v12.8h-2.93v-5.16h-5.65v5.16Zm15.19,0v-12.8h2.86v8.58c2.68-3.81,4.71-6.67,6.06-8.58h2.77v12.8h-2.84v-8.53l-6.08,8.53Zm14.21,0,3.53-4.8a4.37,4.37,0,0,1-2.16-1.39,3.67,3.67,0,0,1-.82-2.44,3.79,3.79,0,0,1,1.34-3,5.5,5.5,0,0,1,3.7-1.14h6.43v12.8h-2.94v-4.32h-2.61l-3,4.32Zm6-6.52h3.07v-3.9h-3.1a2.91,2.91,0,0,0-1.83.52,1.71,1.71,0,0,0-.66,1.42,1.69,1.69,0,0,0,.69,1.44,2.94,2.94,0,0,0,1.83.52m16.86,6.66a10.1,10.1,0,0,1-1.72-.17l.22-2.4a3.25,3.25,0,0,0,.85.1,2.14,2.14,0,0,0,.83-.14,1.77,1.77,0,0,0,.68-.74,5.06,5.06,0,0,0,.55-1.69,28.31,28.31,0,0,0,.31-3.06c.08-1.32.12-2.93.12-4.84h9.68v12.8h-2.94V762.81h-4a43.76,43.76,0,0,1-.21,4.66,17.56,17.56,0,0,1-.57,3,4.24,4.24,0,0,1-1,1.74,3.17,3.17,0,0,1-1.25.81,5.46,5.46,0,0,1-1.58.19m21.28.15a6.6,6.6,0,0,1-4.85-1.94,6.72,6.72,0,0,1,0-9.46,7,7,0,0,1,9.73,0,6.46,6.46,0,0,1,2,4.75,6.39,6.39,0,0,1-2,4.72,6.67,6.67,0,0,1-4.9,2m0-2.55a3.6,3.6,0,0,0,2.81-1.18,4.24,4.24,0,0,0,1.07-2.94,4.16,4.16,0,0,0-1.12-2.92,3.66,3.66,0,0,0-2.81-1.19,3.53,3.53,0,0,0-2.78,1.18,4.46,4.46,0,0,0,0,5.84,3.63,3.63,0,0,0,2.79,1.21m9.79,2.26v-12.8h9.06v2.52h-6.13v10.28Zm17.47.29a6.58,6.58,0,0,1-4.84-1.94,6.71,6.71,0,0,1,0-9.46,7,7,0,0,1,9.73,0,6.46,6.46,0,0,1,1.95,4.75,6.39,6.39,0,0,1-2,4.72,6.67,6.67,0,0,1-4.9,2m0-2.55a3.58,3.58,0,0,0,2.81-1.18,4.24,4.24,0,0,0,1.07-2.94,4.16,4.16,0,0,0-1.11-2.92,3.68,3.68,0,0,0-2.82-1.19,3.56,3.56,0,0,0-2.78,1.18,4.23,4.23,0,0,0-1.07,2.93,4.11,4.11,0,0,0,1.12,2.91,3.61,3.61,0,0,0,2.78,1.21m12.53,2.26V762.81h-4.12v-2.52h11.2v2.52h-4.12v10.28Zm9.4,0v-12.8h2.86v8.58l6.06-8.58h2.77v12.8h-2.84v-8.53l-6.08,8.53Zm15.37,0v-12.8h11.42v12.8h-2.94V762.81H1253v10.28Zm25.84,0H1273v-1.58a5.15,5.15,0,0,1-4.15,1.84,5,5,0,0,1-3.23-1.05,3.54,3.54,0,0,1-1.32-2.94,3.64,3.64,0,0,1,1.43-3.13,6.11,6.11,0,0,1,3.75-1.07,11.41,11.41,0,0,1,3.54.54v-.25a2.55,2.55,0,0,0-.81-2,3.46,3.46,0,0,0-2.34-.7,9.4,9.4,0,0,0-3.66.8l-.8-2.36a11.78,11.78,0,0,1,4.87-1.06,5.78,5.78,0,0,1,4.21,1.4,5.41,5.41,0,0,1,1.42,4Zm-2.84-4.63v-.73a8,8,0,0,0-2.93-.51,3.73,3.73,0,0,0-2.16.54,1.7,1.7,0,0,0-.78,1.5,1.62,1.62,0,0,0,.71,1.38,2.92,2.92,0,0,0,1.77.51,3.83,3.83,0,0,0,2.43-.75,2.36,2.36,0,0,0,1-1.94m13.6,4.63v-12.8h2.93v5.19h5.64v-5.19h2.94v12.8h-2.94v-5.16h-5.64v5.16ZM1313,771a6.47,6.47,0,0,1-5.24,2.4,6.35,6.35,0,0,1-4.68-1.87,6.46,6.46,0,0,1-1.88-4.82A6.78,6.78,0,0,1,1303,762a5.81,5.81,0,0,1,4.48-1.94,5.49,5.49,0,0,1,4.52,2,7.54,7.54,0,0,1,1.61,4.91,4.45,4.45,0,0,1,0,.82h-9.4a3.78,3.78,0,0,0,1.24,2.39,3.6,3.6,0,0,0,2.44.86,4.89,4.89,0,0,0,3.47-1.53Zm-8.89-5.19h6.56a4.12,4.12,0,0,0-1-2.42,2.89,2.89,0,0,0-2.25-1,3,3,0,0,0-2.23.94,4.09,4.09,0,0,0-1.09,2.43m11,10.38v-5.6h1.38q1.42-2.87,1.43-8.7v-1.58h9.91v10.28h1.82l-.39,5.6h-2.45v-3.08h-9l-.29,3.08Zm5.57-11.66a14.09,14.09,0,0,1-1.18,6.06h5.4v-7.76h-4.22Zm17.5,8.87a6.6,6.6,0,0,1-4.85-1.94,6.7,6.7,0,0,1,0-9.46,7,7,0,0,1,9.73,0,6.71,6.71,0,0,1,0,9.47,6.67,6.67,0,0,1-4.9,2m.05-2.55a3.6,3.6,0,0,0,2.81-1.18,4.24,4.24,0,0,0,1.07-2.94,4.12,4.12,0,0,0-1.12-2.92,3.66,3.66,0,0,0-2.81-1.19,3.58,3.58,0,0,0-2.79,1.18,4.22,4.22,0,0,0-1.06,2.93,4.15,4.15,0,0,0,1.11,2.91,3.63,3.63,0,0,0,2.79,1.21m9.79,2.26v-12.8h11.41v12.8h-2.93V762.81h-5.55v10.28Zm17.72,3.95a6.22,6.22,0,0,1-3-.78l1-2.18a3.67,3.67,0,0,0,1.72.49,1.6,1.6,0,0,0,1-.33,2.94,2.94,0,0,0,.78-1.15l-5.33-12.8H1365l3.64,9.5,3.32-9.5h3l-5.09,13.16a7.18,7.18,0,0,1-1.72,2.78,3.69,3.69,0,0,1-2.49.81m17.74-3.66a6.34,6.34,0,0,1-4.73-1.93,6.44,6.44,0,0,1-1.89-4.69v0a6.53,6.53,0,0,1,1.9-4.72,6.34,6.34,0,0,1,4.74-2,6.61,6.61,0,0,1,5.11,2.21l-1.81,2a4.57,4.57,0,0,0-3.32-1.59,3.35,3.35,0,0,0-2.63,1.18,4.18,4.18,0,0,0-1.06,2.89v0a4.2,4.2,0,0,0,1.08,2.94,3.56,3.56,0,0,0,2.75,1.18,4.57,4.57,0,0,0,3.32-1.6l1.77,1.75a7.75,7.75,0,0,1-2.26,1.78,6.58,6.58,0,0,1-3,.62m10.54-.29V762.81h-4.12v-2.52H1401v2.52h-4.12v10.28Zm9.4,0v-12.8h2.86v8.58q4-5.72,6.06-8.58H1415v12.8h-2.83v-8.53l-6.09,8.53Zm15.37,0v-12.8h2.9l4,5.94,4-5.94h2.9v12.8h-3v-8.53l-4,5.74-4-5.69v8.48Zm17.52,0v-12.8h2.93v4.48h2.69a6.1,6.1,0,0,1,3.68,1,3.5,3.5,0,0,1,1.41,3,3.94,3.94,0,0,1-1.31,3.13,5.23,5.23,0,0,1-3.56,1.14Zm2.93-2.38h2.52a2.71,2.71,0,0,0,1.72-.48,1.72,1.72,0,0,0,.61-1.41,1.55,1.55,0,0,0-.62-1.31,3,3,0,0,0-1.76-.46h-2.47Zm9.72-10.42h2.93v12.8h-2.93Z"></path> </g> <path class="cls-7" d="M669.09,561.21c0,9.42-6.28,11.79-17.38,11.79C633,573,633,562.64,633,559h8.47c0,5.73,5,6.63,10,6.63,6.24,0,8.84-1.45,8.84-4.39,0-2.58-2.59-3-10-4.12-11.34-1.68-16.44-4-16.44-11,0-5.36,4-11.55,16.35-11.55,14.74,0,17.67,8.25,17.67,14h-8.66c0-2.63-1.16-6.54-9-6.54-6.4,0-7.85,2.3-7.85,4.13,0,2,2.24,2.77,8.59,3.8,8.5,1.38,18.18,2.63,18.18,11.22"></path> <path class="cls-7" d="M709.24,573h-8.56l-2.24-6.26H679.05L676.81,573h-8.55l13.58-37.92h13.82Zm-13.49-13.78-6-16.65h-2.08l-6,16.65Z"></path> <polygon class="cls-7" points="719.41 565.54 742.35 565.54 742.35 573 711.15 573 711.15 535.04 719.41 535.04 719.41 565.54"></polygon> <polygon class="cls-7" points="776.18 535.04 776.18 542.5 753.25 542.5 753.25 550.29 776.18 550.29 776.18 557.75 753.25 557.75 753.25 565.45 776.18 565.45 776.18 573 753.25 573 753.25 573 744.99 573 744.99 535.04 776.18 535.04"></polygon> <path class="cls-7" d="M814.14,561.21c0,9.42-6.28,11.79-17.37,11.79-18.71,0-18.7-10.36-18.7-14h8.47c0,5.73,5,6.63,10,6.63,6.24,0,8.83-1.45,8.83-4.39,0-2.58-2.59-3-10-4.12-11.34-1.68-16.44-4-16.44-11,0-5.36,4-11.55,16.35-11.55,14.74,0,17.68,8.25,17.68,14h-8.66c0-2.63-1.17-6.54-9-6.54-6.39,0-7.84,2.3-7.84,4.13,0,2,2.23,2.77,8.58,3.8,8.5,1.38,18.18,2.63,18.18,11.22"></path> <path class="cls-7" d="M851.89,554c0,7.3-2.87,19-18.72,19H816.84V535h16.33c16.08,0,18.72,11.7,18.72,19m-8.55,0c0-4.27-1.64-11.47-10.17-11.47h-8.08v22.91h8.08c8.47,0,10.17-7.36,10.17-11.44"></path> <polygon class="cls-7" points="885.56 535.04 885.56 542.5 862.62 542.5 862.62 550.29 885.56 550.29 885.56 557.75 862.62 557.75 862.62 565.45 885.56 565.45 885.56 573 862.62 573 862.62 573 854.36 573 854.36 535.04 885.56 535.04"></polygon> <path class="cls-7" d="M921.78,548.72c0,14.16-12.6,13.65-16.21,13.65h-8.74V573h-8.25V535h8.25v0c2,0,6.51,0,8.76,0,4.57,0,16.19,0,16.19,13.68m-7.72,0c0-6.55-5.3-6.53-8.06-6.53h-9.17v13.07h9c2.2,0,8.19.32,8.19-6.54"></path> <path class="cls-7" d="M669.09,650.21c0,9.42-6.28,11.79-17.38,11.79C633,662,633,651.64,633,648h8.47c0,5.73,5,6.63,10,6.63,6.24,0,8.84-1.45,8.84-4.39,0-2.58-2.59-3-10-4.12-11.34-1.68-16.44-4-16.44-11,0-5.36,4-11.55,16.35-11.55,14.74,0,17.67,8.25,17.67,14h-8.66c0-2.63-1.16-6.54-9-6.54-6.4,0-7.85,2.3-7.85,4.13,0,2,2.24,2.77,8.59,3.8,8.5,1.38,18.18,2.63,18.18,11.22"></path> <path class="cls-7" d="M709.24,662h-8.56l-2.24-6.26H679.05L676.81,662h-8.55l13.58-37.92h13.82Zm-13.49-13.78-6-16.65h-2.08l-6,16.65Z"></path> <polygon class="cls-7" points="719.41 654.54 742.35 654.54 742.35 662 711.15 662 711.15 624.04 719.41 624.04 719.41 654.54"></polygon> <polygon class="cls-7" points="776.18 624.04 776.18 631.5 753.25 631.5 753.25 639.29 776.18 639.29 776.18 646.75 753.25 646.75 753.25 654.45 776.18 654.45 776.18 662 753.25 662 753.25 662 744.99 662 744.99 624.04 776.18 624.04"></polygon> <path class="cls-7" d="M814.14,650.21c0,9.42-6.28,11.79-17.37,11.79-18.71,0-18.7-10.36-18.7-14h8.47c0,5.73,5,6.63,10,6.63,6.24,0,8.83-1.45,8.83-4.39,0-2.58-2.59-3-10-4.12-11.34-1.68-16.44-4-16.44-11,0-5.36,4-11.55,16.35-11.55,14.74,0,17.68,8.25,17.68,14h-8.66c0-2.63-1.17-6.54-9-6.54-6.39,0-7.84,2.3-7.84,4.13,0,2,2.23,2.77,8.58,3.8,8.5,1.38,18.18,2.63,18.18,11.22"></path> <path class="cls-5" d="M851.89,643c0,7.3-2.87,19-18.72,19H816.84V624h16.33c16.08,0,18.72,11.7,18.72,19m-8.55,0c0-4.27-1.64-11.47-10.17-11.47h-8.08v22.91h8.08c8.47,0,10.17-7.36,10.17-11.44"></path> <polygon class="cls-5" points="885.56 624.04 885.56 631.5 862.62 631.5 862.62 639.29 885.56 639.29 885.56 646.75 862.62 646.75 862.62 654.45 885.56 654.45 885.56 662 862.62 662 862.62 662 854.36 662 854.36 624.04 885.56 624.04"></polygon> <path class="cls-5" d="M921.78,637.72c0,14.16-12.6,13.65-16.21,13.65h-8.74V662h-8.25V624h8.25v0c2,0,6.51,0,8.76,0,4.57,0,16.19,0,16.19,13.68m-7.72,0c0-6.55-5.3-6.53-8.06-6.53h-9.17v13.07h9c2.2,0,8.19.32,8.19-6.54"></path> <path class="cls-5" d="M672.52,821.21c0,9.42-6.28,11.79-17.38,11.79-18.7,0-18.7-10.36-18.7-14h8.47c0,5.73,5.05,6.63,10,6.63,6.24,0,8.84-1.45,8.84-4.39,0-2.58-2.59-3-10-4.12-11.34-1.68-16.44-4-16.44-11,0-5.36,4-11.55,16.35-11.55,14.73,0,17.67,8.25,17.67,14h-8.66c0-2.63-1.16-6.54-9-6.54-6.4,0-7.85,2.3-7.85,4.13,0,2,2.24,2.77,8.58,3.8,8.51,1.38,18.19,2.63,18.19,11.22"></path> <path class="cls-5" d="M712.67,833h-8.56l-2.24-6.26H682.48L680.24,833h-8.55l13.58-37.92h13.82Zm-13.49-13.78-6-16.65h-2.08l-6,16.65Z"></path> <polygon class="cls-5" points="722.84 825.54 745.78 825.54 745.78 833 714.58 833 714.58 795.04 722.84 795.04 722.84 825.54"></polygon> <polygon class="cls-5" points="779.61 795.04 779.61 802.5 756.67 802.5 756.67 810.29 779.61 810.29 779.61 817.75 756.67 817.75 756.67 825.45 779.61 825.45 779.61 833 756.67 833 756.67 833 748.42 833 748.42 795.04 779.61 795.04"></polygon> <path class="cls-5" d="M817.57,821.21c0,9.42-6.28,11.79-17.37,11.79-18.71,0-18.7-10.36-18.7-14H790c0,5.73,5,6.63,10,6.63,6.24,0,8.83-1.45,8.83-4.39,0-2.58-2.59-3-10-4.12-11.34-1.68-16.44-4-16.44-11,0-5.36,4-11.55,16.35-11.55,14.74,0,17.68,8.25,17.68,14h-8.66c0-2.63-1.17-6.54-9-6.54-6.39,0-7.84,2.3-7.84,4.13,0,2,2.23,2.77,8.58,3.8,8.5,1.38,18.18,2.63,18.18,11.22"></path> <path class="cls-5" d="M855.32,814c0,7.3-2.87,19-18.72,19H820.27V795H836.6c16.08,0,18.72,11.7,18.72,19m-8.55,0c0-4.27-1.64-11.47-10.17-11.47h-8.08v22.91h8.08c8.47,0,10.17-7.36,10.17-11.44"></path> <polygon class="cls-5" points="888.99 795.04 888.99 802.5 866.04 802.5 866.04 810.29 888.99 810.29 888.99 817.75 866.04 817.75 866.04 825.45 888.99 825.45 888.99 833 866.04 833 866.04 833 857.79 833 857.79 795.04 888.99 795.04"></polygon> <path class="cls-5" d="M925.21,808.72c0,14.16-12.6,13.65-16.21,13.65h-8.74V833H892V795h8.25v0c2,0,6.51,0,8.76,0,4.57,0,16.19,0,16.19,13.68m-7.72,0c0-6.55-5.31-6.53-8.06-6.53h-9.17v13.07h9c2.2,0,8.19.32,8.19-6.54"></path> <path class="cls-5" d="M669.09,736.21c0,9.42-6.28,11.79-17.38,11.79C633,748,633,737.64,633,734h8.47c0,5.73,5,6.63,10,6.63,6.24,0,8.84-1.45,8.84-4.39,0-2.58-2.59-3-10-4.12-11.34-1.68-16.44-4-16.44-11,0-5.36,4-11.55,16.35-11.55,14.74,0,17.67,8.25,17.67,14h-8.66c0-2.63-1.16-6.54-9-6.54-6.4,0-7.85,2.3-7.85,4.13,0,2,2.24,2.77,8.59,3.8,8.5,1.38,18.18,2.63,18.18,11.22"></path> <path class="cls-5" d="M709.24,748h-8.56l-2.24-6.26H679.05L676.81,748h-8.55l13.58-37.92h13.82Zm-13.49-13.78-6-16.65h-2.08l-6,16.65Z"></path> <polygon class="cls-5" points="719.41 740.54 742.35 740.54 742.35 748 711.15 748 711.15 710.04 719.41 710.04 719.41 740.54"></polygon> <polygon class="cls-5" points="776.18 710.04 776.18 717.5 753.25 717.5 753.25 725.29 776.18 725.29 776.18 732.75 753.25 732.75 753.25 740.45 776.18 740.45 776.18 748 753.25 748 753.25 748 744.99 748 744.99 710.04 776.18 710.04"></polygon> <path class="cls-5" d="M814.14,736.21c0,9.42-6.28,11.79-17.37,11.79-18.71,0-18.7-10.36-18.7-14h8.47c0,5.73,5,6.63,10,6.63,6.24,0,8.83-1.45,8.83-4.39,0-2.58-2.59-3-10-4.12-11.34-1.68-16.44-4-16.44-11,0-5.36,4-11.55,16.35-11.55,14.74,0,17.68,8.25,17.68,14h-8.66c0-2.63-1.17-6.54-9-6.54-6.39,0-7.84,2.3-7.84,4.13,0,2,2.23,2.77,8.58,3.8,8.5,1.38,18.18,2.63,18.18,11.22"></path> <path class="cls-4" d="M851.89,729c0,7.3-2.87,19-18.72,19H816.84V710h16.33c16.08,0,18.72,11.7,18.72,19m-8.55,0c0-4.27-1.64-11.47-10.17-11.47h-8.08v22.91h8.08c8.47,0,10.17-7.36,10.17-11.44"></path> <polygon class="cls-4" points="885.56 710.04 885.56 717.5 862.62 717.5 862.62 725.29 885.56 725.29 885.56 732.75 862.62 732.75 862.62 740.45 885.56 740.45 885.56 748 862.62 748 862.62 748 854.36 748 854.36 710.04 885.56 710.04"></polygon> <path class="cls-4" d="M921.78,723.72c0,14.16-12.6,13.65-16.21,13.65h-8.74V748h-8.25V710h8.25v0c2,0,6.51,0,8.76,0,4.57,0,16.19,0,16.19,13.68m-7.72,0c0-6.55-5.3-6.53-8.06-6.53h-9.17v13.07h9c2.2,0,8.19.32,8.19-6.54"></path> <line class="cls-8" x1="1393.86" y1="560" x2="1438.15" y2="560"></line> <polygon class="cls-9" points="1395.36 561.27 1394.08 560 1395.36 558.73 1394.28 558.73 1393 560 1394.28 561.27 1395.36 561.27"></polygon> <polygon class="cls-9" points="1436.65 561.27 1437.92 560 1436.65 558.73 1437.73 558.73 1439 560 1437.73 561.27 1436.65 561.27"></polygon> <line class="cls-10" x1="1347.86" y1="598.5" x2="1392.15" y2="598.5"></line> <polygon class="cls-6" points="1349.36 599.77 1348.08 598.5 1349.36 597.23 1348.28 597.23 1347 598.5 1348.28 599.77 1349.36 599.77"></polygon> <polygon class="cls-6" points="1390.65 599.77 1391.92 598.5 1390.65 597.23 1391.73 597.23 1393 598.5 1391.73 599.77 1390.65 599.77"></polygon> <line class="cls-10" x1="1766.86" y1="588.5" x2="1811.15" y2="588.5"></line> <polygon class="cls-6" points="1768.36 589.77 1767.08 588.5 1768.36 587.23 1767.28 587.23 1766 588.5 1767.28 589.77 1768.36 589.77"></polygon> <polygon class="cls-6" points="1809.65 589.77 1810.92 588.5 1809.65 587.23 1810.73 587.23 1812 588.5 1810.73 589.77 1809.65 589.77"></polygon> <line class="cls-10" x1="1470.5" y1="570.14" x2="1470.5" y2="525.86"></line> <polygon class="cls-6" points="1471.78 568.65 1470.5 569.92 1469.23 568.65 1469.23 569.73 1470.5 571 1471.78 569.73 1471.78 568.65"></polygon> <polygon class="cls-6" points="1471.78 527.35 1470.5 526.08 1469.23 527.35 1469.23 526.27 1470.5 525 1471.78 526.27 1471.78 527.35"></polygon> <line class="cls-10" x1="1470.5" y1="667.14" x2="1470.5" y2="622.86"></line> <polygon class="cls-6" points="1471.78 665.65 1470.5 666.92 1469.23 665.65 1469.23 666.73 1470.5 668 1471.78 666.73 1471.78 665.65"></polygon> <polygon class="cls-6" points="1471.78 624.35 1470.5 623.08 1469.23 624.35 1469.23 623.27 1470.5 622 1471.78 623.27 1471.78 624.35"></polygon> <rect class="cls-11" x="1346.5" y="524.5" width="465" height="143"></rect> <rect class="cls-1" width="1920" height="1080"></rect> <text class="cls-12" transform="translate(1410.78 554.17)">x</text> <text class="cls-12" transform="translate(1477.79 554.17)">x</text> <text class="cls-12" transform="translate(1477.79 652.17)">x</text> <text class="cls-12" transform="translate(1362.8 617.18)">x</text> <g class="cls-3"> <path class="cls-4" d="M1550.05,775.81c0,12.14-5,15.19-13.7,15.19-14.74,0-14.74-13.35-14.74-18.08h6.68c0,7.38,4,8.54,7.86,8.54,4.92,0,7-1.85,7-5.64,0-3.33-2-3.91-7.91-5.32-8.94-2.16-13-5.19-13-14.13,0-6.91,3.12-14.88,12.88-14.88,11.62,0,13.94,10.63,13.94,18.07h-6.83c0-3.39-.92-8.43-7.11-8.43-5,0-6.18,3-6.18,5.34,0,2.59,1.76,3.56,6.76,4.89,6.71,1.78,14.34,3.39,14.34,14.45"></path> <path class="cls-4" d="M1581.69,791H1575l-1.77-8.06H1557.9l-1.76,8.06h-6.75l10.7-48.85H1571Zm-10.63-17.75-4.7-21.46h-1.64L1560,773.25Z"></path> <polygon class="cls-4" points="1589.71 781.39 1607.79 781.39 1607.79 791 1583.2 791 1583.2 742.1 1589.71 742.1 1589.71 781.39"></polygon> <polygon class="cls-4" points="1634.46 742.1 1634.46 751.71 1616.38 751.71 1616.38 761.74 1634.46 761.74 1634.46 771.35 1616.38 771.35 1616.38 781.27 1634.46 781.27 1634.46 791 1616.38 791 1616.38 791 1609.87 791 1609.87 742.1 1634.46 742.1"></polygon> <path class="cls-4" d="M1664.37,775.81c0,12.14-4.94,15.19-13.69,15.19-14.74,0-14.74-13.35-14.74-18.08h6.67c0,7.38,4,8.54,7.86,8.54,4.92,0,7-1.85,7-5.64,0-3.33-2-3.91-7.91-5.32-8.94-2.16-13-5.19-13-14.13,0-6.91,3.13-14.88,12.89-14.88,11.62,0,13.93,10.63,13.93,18.07h-6.82c0-3.39-.92-8.43-7.11-8.43-5,0-6.18,3-6.18,5.34,0,2.59,1.76,3.56,6.76,4.89,6.71,1.78,14.33,3.39,14.33,14.45"></path> <path class="cls-5" d="M1694.12,766.58c0,9.4-2.25,24.42-14.75,24.42H1666.5V742.1h12.88c12.67,0,14.74,15.07,14.74,24.48m-6.73,0c0-5.51-1.3-14.79-8-14.79H1673v29.52h6.37c6.68,0,8-9.48,8-14.73"></path> <polygon class="cls-5" points="1720.66 742.1 1720.66 751.71 1702.58 751.71 1702.58 761.74 1720.66 761.74 1720.66 771.35 1702.58 771.35 1702.58 781.27 1720.66 781.27 1720.66 791 1702.58 791 1702.58 791 1696.07 791 1696.07 742.1 1720.66 742.1"></polygon> <path class="cls-5" d="M1749.22,759.72c0,18.24-9.94,17.59-12.79,17.59h-6.88V791H1723V742.1h6.51v0c1.59,0,5.13,0,6.9,0,3.6,0,12.77,0,12.77,17.62m-6.1,0c0-8.43-4.18-8.41-6.35-8.41h-7.22v16.84h7.13c1.72,0,6.44.41,6.44-8.43"></path> <line class="cls-13" x1="1512.22" y1="719" x2="1765.22" y2="812"></line> </g> <text class="cls-14" transform="translate(1067.67 429.81)">S</text> <text class="cls-15" transform="translate(1168.9 429.81)">DEP</text> <g class="cls-3"> <g class="cls-16"> <g class="cls-16"> <g class="cls-16"> <g class="cls-17"> <g class="cls-18"> <g class="cls-19"> <path class="cls-20" d="M1944.81,1023.29h-11.37l-3-8.32h-25.79l-3,8.32h-11.37l18-50.42h18.39ZM1926.88,1005,1919,982.82h-2.76l-7.93,22.15Z"></path> </g> </g> </g> </g> </g> </g> <g class="cls-21"> <g class="cls-21"> <g class="cls-21"> <g class="cls-22"> <path class="cls-23" d="M1965.21,1074.21c10.31,17.86,1,29.22-20,41.36-35.45,20.47-46.79.83-50.8-6.14l16-9.27c6.27,10.87,16.81,7,26.16,1.66,11.82-6.83,15.17-12.4,12-18-2.82-4.89-8.23-2.9-23.53,3.16-23.33,9.24-35.58,10.36-43.17-2.8-5.87-10.15-5.12-26.23,18.35-39.78,27.94-16.13,42.54-3.72,48.86,7.24l-16.41,9.48c-2.88-5-9.38-11.12-24.25-2.53-12.12,7-12.35,13-10.34,16.43,2.2,3.81,7.26,2.79,20.42-2.2,17.64-6.69,37.35-14.91,46.74,1.37"></path> </g> </g> </g> </g> </g> <rect class="cls-1" width="1920" height="1080"></rect> <rect class="cls-1" width="1920" height="1080"></rect> </svg> 