<?xml version="1.0" encoding="UTF-8"?> <svg xmlns="http://www.w3.org/2000/svg" id="Layer_1" data-name="Layer 1" viewBox="0 0 272.57 104.38"> <polygon points="13.23 104.25 13.22 96.02 9.14 102.88 8.39 102.88 4.31 96.07 4.31 104.25 2.76 104.25 2.76 92.96 4.09 92.96 8.8 100.89 13.44 92.96 14.77 92.96 14.78 104.25 13.23 104.25"></polygon> <path d="M26.86,101.43h-6l-1.24,2.82H18L23.07,93h1.6l5.13,11.29H28.1Zm-.56-1.29L23.86,94.6l-2.44,5.54Z"></path> <polygon points="32.98 92.96 34.59 92.96 34.59 102.85 40.71 102.85 40.71 104.25 32.98 104.25 32.98 92.96"></polygon> <polygon points="43.98 92.96 45.59 92.96 45.59 102.85 51.7 102.85 51.7 104.25 43.98 104.25 43.98 92.96"></polygon> <polygon points="71.59 104.25 71.58 96.02 67.5 102.88 66.75 102.88 62.67 96.07 62.67 104.25 61.12 104.25 61.12 92.96 62.45 92.96 67.16 100.89 71.81 92.96 73.13 92.96 73.14 104.25 71.59 104.25"></polygon> <path d="M85.22,101.43h-6L78,104.25H76.32L81.43,93H83l5.13,11.29H86.47Zm-.56-1.29L82.22,94.6l-2.43,5.54Z"></path> <polygon points="101.05 92.96 101.05 104.25 99.73 104.25 92.95 95.83 92.95 104.25 91.34 104.25 91.34 92.96 92.66 92.96 99.44 101.38 99.44 92.96 101.05 92.96"></polygon> <path d="M113.13,101.43h-6l-1.24,2.82h-1.66L109.34,93h1.6l5.13,11.29h-1.7Zm-.56-1.29-2.44-5.54-2.44,5.54Z"></path> <path d="M126.61,98.54h1.55v4.4a6,6,0,0,1-2,1.07,7.18,7.18,0,0,1-2.32.37,6.3,6.3,0,0,1-3.08-.75,5.58,5.58,0,0,1-2.16-2.07,6,6,0,0,1,0-5.92,5.54,5.54,0,0,1,2.17-2.07,6.48,6.48,0,0,1,3.1-.74,6.65,6.65,0,0,1,2.46.44,5.08,5.08,0,0,1,1.88,1.3l-1,1A4.54,4.54,0,0,0,124,94.26a4.8,4.8,0,0,0-2.32.56,4,4,0,0,0-1.6,1.55,4.49,4.49,0,0,0,0,4.45,4.14,4.14,0,0,0,1.6,1.56,4.64,4.64,0,0,0,2.3.56,4.79,4.79,0,0,0,2.64-.72Z"></path> <polygon points="140.78 102.85 140.78 104.25 132.59 104.25 132.59 92.96 140.56 92.96 140.56 94.36 134.2 94.36 134.2 97.83 139.87 97.83 139.87 99.2 134.2 99.2 134.2 102.85 140.78 102.85"></polygon> <polygon points="155.03 104.25 155.02 96.02 150.94 102.88 150.19 102.88 146.11 96.07 146.11 104.25 144.56 104.25 144.56 92.96 145.89 92.96 150.6 100.89 155.24 92.96 156.57 92.96 156.58 104.25 155.03 104.25"></polygon> <polygon points="169.48 102.85 169.48 104.25 161.29 104.25 161.29 92.96 169.26 92.96 169.26 94.36 162.9 94.36 162.9 97.83 168.56 97.83 168.56 99.2 162.9 99.2 162.9 102.85 169.48 102.85"></polygon> <polygon points="182.97 92.96 182.97 104.25 181.65 104.25 174.87 95.83 174.87 104.25 173.26 104.25 173.26 92.96 174.58 92.96 181.36 101.38 181.36 92.96 182.97 92.96"></polygon> <polygon points="190.06 94.36 186.19 94.36 186.19 92.96 195.53 92.96 195.53 94.36 191.65 94.36 191.65 104.25 190.06 104.25 190.06 94.36"></polygon> <path d="M212.68,98.54h1.54v4.4a5.85,5.85,0,0,1-1.95,1.07,7.18,7.18,0,0,1-2.32.37,6.3,6.3,0,0,1-3.08-.75,5.58,5.58,0,0,1-2.16-2.07,6,6,0,0,1,0-5.92,5.54,5.54,0,0,1,2.17-2.07,6.48,6.48,0,0,1,3.1-.74,6.69,6.69,0,0,1,2.46.44,5.08,5.08,0,0,1,1.88,1.3l-1,1a4.55,4.55,0,0,0-3.27-1.31,4.8,4.8,0,0,0-2.32.56,4,4,0,0,0-1.6,1.55,4.49,4.49,0,0,0,0,4.45,4.14,4.14,0,0,0,1.6,1.56,4.64,4.64,0,0,0,2.3.56,4.85,4.85,0,0,0,2.65-.72Z"></path> <path d="M226.2,104.25l-2.44-3.47-.71,0h-2.79v3.44h-1.61V93h4.4A5.24,5.24,0,0,1,226.51,94a3.57,3.57,0,0,1,1.25,2.88,3.78,3.78,0,0,1-.64,2.23,3.65,3.65,0,0,1-1.84,1.34l2.68,3.79Zm-.86-5.47a2.6,2.6,0,0,0,0-3.77,3.63,3.63,0,0,0-2.33-.65h-2.75v5.08H223a3.58,3.58,0,0,0,2.33-.66"></path> <path d="M233.85,103.63a5.58,5.58,0,0,1-2.16-2.07,6,6,0,0,1,0-5.91,5.58,5.58,0,0,1,2.16-2.07,6.66,6.66,0,0,1,6.14,0,5.54,5.54,0,0,1,2.15,2.06,6.07,6.07,0,0,1,0,5.92,5.49,5.49,0,0,1-2.15,2.07,6.66,6.66,0,0,1-6.14,0m5.31-1.25a4.13,4.13,0,0,0,1.57-1.56,4.59,4.59,0,0,0,0-4.43,4.06,4.06,0,0,0-1.57-1.56,4.38,4.38,0,0,0-2.23-.57,4.48,4.48,0,0,0-2.25.57,4.08,4.08,0,0,0-1.58,1.56,4.52,4.52,0,0,0,0,4.43,4.15,4.15,0,0,0,1.58,1.56,4.47,4.47,0,0,0,2.25.56,4.37,4.37,0,0,0,2.23-.56"></path> <path d="M248,103.09a5.1,5.1,0,0,1-1.26-3.71V93h1.62v6.35q0,3.63,3.17,3.63a3.06,3.06,0,0,0,2.38-.89,4,4,0,0,0,.82-2.74V93h1.56v6.42A5.15,5.15,0,0,1,255,103.1a4.74,4.74,0,0,1-3.52,1.28,4.69,4.69,0,0,1-3.52-1.29"></path> <path d="M268.73,94a3.93,3.93,0,0,1,0,5.77,5.23,5.23,0,0,1-3.45,1h-2.79v3.42h-1.61V93h4.4A5.23,5.23,0,0,1,268.73,94m-1.16,4.76a2.26,2.26,0,0,0,.81-1.88,2.29,2.29,0,0,0-.81-1.88,3.68,3.68,0,0,0-2.34-.65h-2.74v5.07h2.74a3.62,3.62,0,0,0,2.34-.66"></path> <polygon points="173.21 1.73 167.57 8.45 138.27 43.37 108.51 7.9 103.33 1.73 99.58 1.73 99.58 10.96 99.58 74.14 109.51 74.14 109.51 22.8 132.52 50.22 138.27 57.07 144.02 50.22 166.62 23.29 166.62 74.14 166.72 74.14 176.55 74.14 176.55 11.46 176.55 1.73 173.21 1.73"></polygon> <path d="M269.74,33.33H231.2v9.22h28.11a28.08,28.08,0,0,1-3.39,10,26.8,26.8,0,0,1-10.29,10.22,30,30,0,0,1-28.87,0,26.8,26.8,0,0,1-10.29-10.22,28.88,28.88,0,0,1-3.72-14.57,29.07,29.07,0,0,1,3.72-14.68,26.4,26.4,0,0,1,10.29-10.17,30.37,30.37,0,0,1,28.87,0,26.43,26.43,0,0,1,7.69,6.41h12.22c-.19-.36-.37-.71-.57-1.06A35.46,35.46,0,0,0,251.11,4.87a43.15,43.15,0,0,0-39.83,0,35.52,35.52,0,0,0-13.86,13.57,38.22,38.22,0,0,0-5,19.5,38,38,0,0,0,5,19.44,36,36,0,0,0,13.81,13.56A39.67,39.67,0,0,0,231,75.87h.41a39.67,39.67,0,0,0,19.76-4.93A35.91,35.91,0,0,0,265,57.38a38,38,0,0,0,5-19.44,43.32,43.32,0,0,0-.25-4.61"></path> <polygon points="76.39 1.73 70.75 8.45 41.45 43.37 11.69 7.9 6.51 1.73 2.76 1.73 2.76 10.96 2.76 74.14 12.69 74.14 12.69 22.8 35.7 50.22 41.45 57.07 47.2 50.22 69.8 23.29 69.8 74.14 69.9 74.14 79.73 74.14 79.73 11.46 79.73 1.73 76.39 1.73"></polygon> </svg> 