<?xml version="1.0" encoding="UTF-8"?> <svg xmlns="http://www.w3.org/2000/svg" id="Слой_1" data-name="Слой 1" viewBox="0 0 122.67 104.89"> <defs> <style>.cls-1{fill:#ba2a18;}.cls-2{fill:#df5112;}.cls-3{fill:#f59a00;}</style> </defs> <polygon class="cls-1" points="60 75.04 60 57.62 46.67 62.94 46.67 81.93 60 75.04"></polygon> <polygon class="cls-2" points="33.34 57.63 46.67 62.94 46.67 81.93 33.34 75.04 33.34 57.63"></polygon> <polygon class="cls-3" points="60 57.64 46.67 53.47 33.34 57.64 46.67 62.96 60 57.64"></polygon> <polygon class="cls-1" points="89.39 66.56 89.39 32.5 61.34 42.89 61.34 80.03 89.39 66.56"></polygon> <polygon class="cls-2" points="33.28 32.51 61.33 42.9 61.33 80.04 33.28 66.57 33.28 32.51"></polygon> <polygon class="cls-3" points="89.39 32.53 61.34 24.37 33.28 32.54 61.34 42.92 89.39 32.53"></polygon> <polygon class="cls-1" points="89.39 33.01 89.39 25.7 77.57 29.19 77.57 37.15 89.39 33.01"></polygon> <polygon class="cls-2" points="65.75 25.7 77.57 29.2 77.57 37.15 65.75 33.14 65.75 25.7"></polygon> <polygon class="cls-3" points="89.39 25.7 77.57 22.96 65.75 25.71 77.57 29.2 89.39 25.7"></polygon> </svg> 