<?xml version="1.0" encoding="UTF-8"?> <svg xmlns="http://www.w3.org/2000/svg" id="Слой_1" data-name="Слой 1" viewBox="0 0 122.67 104.89"> <defs> <style>.cls-1{fill:#1eaee1;}.cls-2{fill:#65c3dd;}.cls-3{fill:#9ad6ee;}</style> </defs> <polygon class="cls-1" points="83.45 66.17 83.45 55.73 61.33 63.93 61.33 75.34 83.45 66.17"></polygon> <polygon class="cls-2" points="39.21 55.73 61.34 63.93 61.34 75.35 39.21 66.18 39.21 55.73"></polygon> <polygon class="cls-3" points="61.33 59.3 46.25 53.71 39.21 55.76 61.33 63.95 83.46 55.75 76.42 53.7 61.33 59.3"></polygon> <polygon class="cls-1" points="83.45 41.35 83.45 31.16 61.33 37.73 61.33 48.7 83.45 41.35"></polygon> <polygon class="cls-2" points="39.21 31.16 61.34 37.73 61.34 48.7 39.21 41.35 39.21 31.16"></polygon> <polygon class="cls-2" points="53.66 42.64 61.33 44.56 61.33 68.03 53.66 65.23 53.66 42.64"></polygon> <polygon class="cls-3" points="61.33 34.02 46.25 29.54 39.21 31.18 61.33 37.74 83.46 31.18 76.42 29.54 61.33 34.02"></polygon> <polygon class="cls-1" points="69.01 65.23 61.34 68.03 61.34 44.56 69.01 42.64 69.01 65.23"></polygon> </svg> 