<?xml version="1.0" encoding="UTF-8"?> <svg xmlns="http://www.w3.org/2000/svg" id="Layer_1" data-name="Layer 1" viewBox="0 0 325.16 104.38"> <defs> <style>.cls-1{fill:#0072bb;}.cls-2{fill:#1d1d1b;}</style> </defs> <path class="cls-1" d="M37.51,65.75,43.1,47.32H22.37V41.74H44.8l5.33-17.67H22.37V18.72H51.68L57.33,0H0V65.75ZM221.37,41.33,209.26,0h-31V65.75h19.35V24.54h.14l12,41.21H241V0H221.49V41.33Zm-62.55,7.58A12.89,12.89,0,0,0,171.5,35.69c0-7.33-5.29-14-12.43-14s-12.79,6.65-12.79,14,5.29,13.22,12.54,13.22M148.47,0H88.84V18.72h18.81v47h30.28c-1.87-1.15-14.72-11.35-14.72-30.38,0-15.83,9.6-31.31,25.26-35.37M67.39,48.32,62.07,65.75H93.14l-5-17.43ZM78,12.6l5.84,21H71.75Z"></path> <path class="cls-2" d="M56.53,89.68h3c1.68,0,2.93-.81,3.54-3.65.65-3.09-.62-3.34-2.08-3.34H58Zm.16-8.35h5c1.51,0,4,.2,3.06,4.4C64,89.38,62.42,91,59.3,91H56.24l-1.8,8.44h-1.6Z"></path> <path class="cls-2" d="M70.91,96.84A19.39,19.39,0,0,0,72,93.12c.8-3.74.77-5.38-1.72-5.38s-3.21,1.64-4,5.38a17.76,17.76,0,0,0-.5,3.72c.07.3.12,1.68,2.21,1.68a3.06,3.06,0,0,0,2.92-1.68M64.47,94.5l.64-3c.34-1.61,1.08-4.95,5.43-4.95s3.66,3.34,3.32,4.95l-.64,3c-.7,3.29-2.24,5.23-5.49,5.23s-4-1.94-3.26-5.23"></path> <polygon class="cls-2" points="76.17 86.79 77.78 86.79 78.25 97.89 78.31 97.89 83.36 86.79 85.22 86.79 85.67 97.89 85.72 97.89 90.92 86.79 92.43 86.79 86.24 99.48 84.35 99.48 83.87 88.62 83.82 88.62 78.85 99.48 76.96 99.48 76.17 86.79"></polygon> <path class="cls-2" d="M99.86,92.24c.6-2.81.51-4.5-1.91-4.5s-3.22,1.69-3.82,4.5Zm-6,1.21-.21,1c-.37,1.76-.4,4.09,2,4.09a3.33,3.33,0,0,0,3.41-2.91h1.59c-.83,3.06-2.71,4.12-5.25,4.12-2.19,0-4.19-.88-3.37-4.73l.66-3.11c.78-3.67,2.67-5.36,5.51-5.36,4.37,0,3.71,3.15,2.9,6.92Z"></path> <path class="cls-2" d="M106.57,88.49h.05a4.92,4.92,0,0,1,3.91-2l-.33,1.54A3.86,3.86,0,0,0,106,91.31l-1.74,8.17h-1.5l2.69-12.69h1.51Z"></path> <path class="cls-2" d="M112.77,83.24l.4-1.91H115l-.4,1.91Zm-3.28,16.24,2.7-12.69h1.51L111,99.48Z"></path> <path class="cls-2" d="M116,99.48h-1.51l2.7-12.69h1.51l-.34,1.55h0a4.76,4.76,0,0,1,3.45-1.81c3.15,0,3,2.34,2.62,4l-1.9,9H121l1.89-8.87c.31-1.49,0-2.87-1.73-2.87-1.36,0-2.94.93-3.54,3.77Z"></path> <path class="cls-2" d="M128.46,92.84c-.56,2.64-1.13,5.28,1.61,5.28a3.16,3.16,0,0,0,2.59-1.43c.59-1,.81-1.56,1.61-5.28.56-2.66-.66-3.67-2.07-3.67-2.61,0-3.34,3.22-3.74,5.1m6.89-6.08h1.49c-.31,1.21-.47,1.84-.61,2.49L134,99.93c-.59,2.79-1.8,4.45-5.42,4.45-3.16,0-3.32-2.24-2.94-3.52h1.5c-.41,1.46.49,2.31,1.9,2.31,2.94,0,3.1-1.58,3.91-5.38h0a4.36,4.36,0,0,1-3.39,1.54c-3.65,0-3.23-3.14-2.63-6a13.57,13.57,0,0,1,1.29-4.32,4.66,4.66,0,0,1,4.1-2.52A2.68,2.68,0,0,1,135,88.32l0,.05Z"></path> <path class="cls-2" d="M149.57,89.4c2.31,0,3.37-1.58,3.81-3.64.64-3-1-3.07-2.29-3.07H147.9l-1.42,6.71Zm-4.95,8.72h2.57c2.66,0,4.13-.91,4.7-3.57.34-1.61.33-3.79-2.43-3.79h-3.27Zm-1.89,1.36,3.85-18.15h5c2.85,0,4.06,1.16,3.38,4.35-.47,2.19-1.14,3.7-3.56,4.32v0c2.28.51,2.57,2.09,2.09,4.38-.7,3.26-2.64,5-5.68,5Z"></path> <path class="cls-2" d="M165.78,86.79l-2.7,12.69h-1.3l.3-1.41H162a4.83,4.83,0,0,1-3.55,1.66c-2.61,0-2.93-1.91-2.5-4l1.91-9h1.51l-1.85,8.72c-.08.35-.72,3,1.47,3a3.71,3.71,0,0,0,3.35-2.79l1.91-8.94Z"></path> <path class="cls-2" d="M169.39,99.73c-2.74,0-3.54-1.33-2.94-4H168c-.37,1.73-.21,2.89,1.72,2.89a2.53,2.53,0,0,0,2.64-2.24c.71-3.32-5.18-2.46-4.29-6.66.5-2.34,2.28-3.17,4.49-3.17,2.52,0,3,1.74,2.54,3.67H173.6c.26-1.6,0-2.46-1.69-2.46a2.36,2.36,0,0,0-2.33,1.84c-.67,3.16,5.22,2.31,4.32,6.55a4.24,4.24,0,0,1-4.51,3.6"></path> <path class="cls-2" d="M179.22,83.24l.41-1.91h1.86l-.41,1.91ZM176,99.48l2.69-12.69h1.51l-2.7,12.69Z"></path> <path class="cls-2" d="M182.43,99.48h-1.51l2.7-12.69h1.51l-.33,1.55h0a4.72,4.72,0,0,1,3.45-1.81c3.14,0,3,2.34,2.62,4l-1.91,9h-1.5l1.88-8.87c.32-1.49,0-2.87-1.73-2.87-1.35,0-2.93.93-3.54,3.77Z"></path> <path class="cls-2" d="M200.81,92.24c.6-2.81.51-4.5-1.91-4.5s-3.22,1.69-3.82,4.5Zm-6,1.21-.2,1c-.38,1.76-.4,4.09,2,4.09A3.34,3.34,0,0,0,200,95.61h1.58c-.82,3.06-2.71,4.12-5.25,4.12-2.18,0-4.18-.88-3.36-4.73l.66-3.11c.78-3.67,2.67-5.36,5.51-5.36,4.37,0,3.7,3.15,2.9,6.92Z"></path> <path class="cls-2" d="M206.73,99.73c-2.74,0-3.54-1.33-2.94-4h1.53c-.36,1.73-.21,2.89,1.73,2.89a2.52,2.52,0,0,0,2.63-2.24c.71-3.32-5.18-2.46-4.29-6.66.5-2.34,2.29-3.17,4.5-3.17,2.51,0,3,1.74,2.54,3.67h-1.49c.27-1.6,0-2.46-1.69-2.46a2.34,2.34,0,0,0-2.32,1.84c-.67,3.16,5.21,2.31,4.31,6.55a4.24,4.24,0,0,1-4.51,3.6"></path> <path class="cls-2" d="M216.33,99.73c-2.74,0-3.54-1.33-2.94-4h1.53c-.37,1.73-.21,2.89,1.73,2.89a2.53,2.53,0,0,0,2.63-2.24C220,93,214.1,93.9,215,89.7c.5-2.34,2.29-3.17,4.5-3.17,2.51,0,2.95,1.74,2.54,3.67h-1.49c.27-1.6,0-2.46-1.69-2.46a2.34,2.34,0,0,0-2.32,1.84c-.67,3.16,5.21,2.31,4.31,6.55a4.24,4.24,0,0,1-4.51,3.6"></path> <polygon class="cls-2" points="238.54 81.33 240.7 81.33 240.97 97.24 241.02 97.24 248.27 81.33 249.85 81.33 241.5 99.48 239.38 99.48 239.17 83.34 239.12 83.34 231.95 99.48 229.94 99.48 229.42 81.33 231.13 81.33 231.39 97.37 231.44 97.37 238.54 81.33"></polygon> <path class="cls-2" d="M254.32,96.84a20.13,20.13,0,0,0,1.09-3.72c.8-3.74.77-5.38-1.72-5.38s-3.21,1.64-4,5.38a17.71,17.71,0,0,0-.49,3.72c.06.3.12,1.68,2.21,1.68a3.08,3.08,0,0,0,2.92-1.68m-6.44-2.34.64-3c.34-1.61,1.08-4.95,5.43-4.95s3.66,3.34,3.32,4.95l-.65,3c-.7,3.29-2.24,5.23-5.48,5.23s-4-1.94-3.26-5.23"></path> <path class="cls-2" d="M262.52,88.49h.05a4.92,4.92,0,0,1,3.91-2l-.33,1.54a3.86,3.86,0,0,0-4.23,3.24l-1.74,8.17h-1.51l2.7-12.69h1.51Z"></path> <polygon class="cls-2" points="265.57 99.48 269.43 81.33 270.93 81.33 267.08 99.48 265.57 99.48"></polygon> <path class="cls-2" d="M278.31,94.27l.48-2.26c.16-.75.91-4.27-1.93-4.27s-3.24,2.46-3.87,5.43c-1,4.72,0,5.35,1.63,5.35,1.43,0,3-1.15,3.69-4.25m-.69,3.6-.05,0A4.52,4.52,0,0,1,274,99.73c-3.67,0-3.1-3.64-2.46-6.61.52-2.44,1.4-6.58,5.29-6.58a3.09,3.09,0,0,1,2.75,1.5l0,0L281,81.34h1.51L279.2,97a16.92,16.92,0,0,0-.39,2.52h-1.45Z"></path> <polygon class="cls-2" points="283.17 86.79 284.78 86.79 285.26 97.89 285.31 97.89 290.36 86.79 292.22 86.79 292.67 97.89 292.72 97.89 297.92 86.79 299.43 86.79 293.24 99.48 291.36 99.48 290.87 88.62 290.82 88.62 285.85 99.48 283.97 99.48 283.17 86.79"></polygon> <path class="cls-2" d="M301.89,83.24l.4-1.91h1.87l-.41,1.91Zm-3.28,16.24,2.7-12.69h1.51l-2.7,12.69Z"></path> <path class="cls-2" d="M311.28,94.27l.48-2.26c.16-.75.91-4.27-1.93-4.27s-3.24,2.46-3.87,5.43c-1,4.72,0,5.35,1.63,5.35,1.43,0,3-1.15,3.69-4.25m-.69,3.6,0,0a4.52,4.52,0,0,1-3.61,1.84c-3.67,0-3.1-3.64-2.47-6.61.52-2.44,1.4-6.58,5.3-6.58A3.06,3.06,0,0,1,312.5,88l.05,0L314,81.34h1.51L312.16,97a17.88,17.88,0,0,0-.38,2.52h-1.46Z"></path> <path class="cls-2" d="M323.33,92.24c.59-2.81.5-4.5-1.91-4.5s-3.22,1.69-3.83,4.5Zm-6,1.21-.21,1c-.37,1.76-.39,4.09,2,4.09a3.33,3.33,0,0,0,3.41-2.91h1.59c-.83,3.06-2.71,4.12-5.25,4.12-2.19,0-4.19-.88-3.37-4.73l.66-3.11c.78-3.67,2.67-5.36,5.51-5.36,4.37,0,3.71,3.15,2.91,6.92Z"></path> </svg> 