<?xml version="1.0" encoding="UTF-8"?> <svg xmlns="http://www.w3.org/2000/svg" id="Слой_1" data-name="Слой 1" viewBox="0 0 122.67 104.89"> <defs> <style>.cls-1{fill:#e2780b;}.cls-2{fill:#b85018;}.cls-3{fill:#fbb800;}</style> </defs> <polyline class="cls-1" points="38.27 30.25 38.27 37.76 37.7 37.95 37.7 43.22 37.55 43.17 26.39 47.37 26.36 47.35 26.36 61.06 37.7 66 37.7 80.04 49.03 85.57 60.36 79.78 60.4 79.78 71.74 85.57 83.08 80.04 83.08 66 94.42 61.06 94.42 47.35 93.9 47.57 94.35 47.36 83.08 43.25 83.08 37.95 81.99 38.38 81.99 38.38 83.05 37.95 81.99 37.6 81.99 30.09 81.98 30.46 70.86 27.26 60.16 30.83 49.48 27.33 38.25 30.6"></polyline> <polygon class="cls-1" points="71.74 85.57 60.41 79.78 60.41 65.95 71.74 71.19 71.74 85.57"></polygon> <polygon class="cls-2" points="49.03 85.57 60.36 79.78 60.36 65.95 49.03 71.19 49.03 85.57"></polygon> <polygon class="cls-3" points="37.72 52.5 49.06 47.36 37.55 43.17 26.35 47.38 37.72 52.5"></polygon> <polygon class="cls-1" points="83.01 52.5 94.35 47.36 82.84 43.17 71.64 47.38 83.01 52.5"></polygon> <polygon class="cls-1" points="38.27 30.25 49.78 34.47 49.78 48.82 38.27 44.63 38.27 30.25"></polygon> <polygon class="cls-2" points="81.99 30.09 70.48 34.31 70.48 48.66 81.99 44.47 81.99 30.09"></polygon> <polygon class="cls-1" points="60.37 62 49.03 56.86 49.03 42.51 37.7 37.95 37.7 51.98 26.35 47.36 26.35 61.05 37.7 66.01 37.7 80.04 49.03 85.57 49.03 71.21 60.37 76.67 60.37 62"></polygon> <polygon class="cls-2" points="60.4 62 71.74 56.86 71.74 42.51 83.07 37.95 83.07 51.98 94.41 47.36 94.41 61.05 83.07 66.01 83.07 80.04 71.74 85.57 71.74 71.21 60.4 76.67 60.4 62"></polygon> <polygon class="cls-3" points="83.05 37.95 71.32 34.11 81.98 30.1 70.86 26.9 60.16 30.46 49.48 26.97 38.25 30.23 49.01 34.18 37.69 37.95 49.03 42.5 60.23 38.29 71.74 42.5 83.05 37.95"></polygon> <polygon class="cls-2" points="49.03 56.88 60.23 52.12 60.23 38.29 49.03 42.5 49.03 56.88"></polygon> <polygon class="cls-3" points="60.4 62 71.74 56.86 60.23 52.12 49.03 56.88 60.4 62"></polygon> <polygon class="cls-1" points="60.23 38.29 71.74 42.5 71.74 56.86 60.23 52.12 60.23 38.29"></polygon> </svg> 