<?xml version="1.0" encoding="UTF-8"?> <svg xmlns="http://www.w3.org/2000/svg" xmlns:xlink="http://www.w3.org/1999/xlink" id="Слой_1" data-name="Слой 1" viewBox="0 0 1920 777.09"> <defs> <style>.cls-1{fill:none;}.cls-2{clip-path:url(#clip-path);}.cls-3{clip-path:url(#clip-path-2);}.cls-10,.cls-11,.cls-12,.cls-13,.cls-14,.cls-15,.cls-16,.cls-17,.cls-18,.cls-19,.cls-20,.cls-21,.cls-22,.cls-23,.cls-24,.cls-25,.cls-26,.cls-27,.cls-28,.cls-29,.cls-30,.cls-31,.cls-32,.cls-33,.cls-34,.cls-35,.cls-36,.cls-37,.cls-38,.cls-39,.cls-4,.cls-40,.cls-41,.cls-42,.cls-43,.cls-44,.cls-45,.cls-46,.cls-47,.cls-48,.cls-49,.cls-5,.cls-50,.cls-51,.cls-52,.cls-53,.cls-54,.cls-55,.cls-56,.cls-57,.cls-58,.cls-59,.cls-6,.cls-60,.cls-61,.cls-62,.cls-63,.cls-64,.cls-65,.cls-66,.cls-67,.cls-68,.cls-69,.cls-7,.cls-70,.cls-71,.cls-72,.cls-73,.cls-74,.cls-75,.cls-76,.cls-77,.cls-78,.cls-79,.cls-8,.cls-80,.cls-81,.cls-82,.cls-83,.cls-84,.cls-85,.cls-86,.cls-87,.cls-88,.cls-89,.cls-9,.cls-90,.cls-91,.cls-92,.cls-93{fill:#f2f2f2;stroke-miterlimit:10;stroke-width:3px;}.cls-4{stroke:url(#Безымянный_градиент_14);}.cls-5{stroke:url(#Безымянный_градиент_14-2);}.cls-6{stroke:url(#Безымянный_градиент_14-3);}.cls-7{stroke:url(#Безымянный_градиент_14-4);}.cls-8{stroke:url(#Безымянный_градиент_14-5);}.cls-9{stroke:url(#Безымянный_градиент_14-6);}.cls-10{stroke:url(#Безымянный_градиент_14-7);}.cls-11{stroke:url(#Безымянный_градиент_14-8);}.cls-12{stroke:url(#Безымянный_градиент_14-9);}.cls-13{stroke:url(#Безымянный_градиент_14-10);}.cls-14{stroke:url(#Безымянный_градиент_14-11);}.cls-15{stroke:url(#Безымянный_градиент_14-12);}.cls-16{stroke:url(#Безымянный_градиент_14-13);}.cls-17{stroke:url(#Безымянный_градиент_14-14);}.cls-18{stroke:url(#Безымянный_градиент_14-15);}.cls-19{stroke:url(#Безымянный_градиент_14-16);}.cls-20{stroke:url(#Безымянный_градиент_14-17);}.cls-21{stroke:url(#Безымянный_градиент_14-18);}.cls-22{stroke:url(#Безымянный_градиент_14-19);}.cls-23{stroke:url(#Безымянный_градиент_14-20);}.cls-24{stroke:url(#Безымянный_градиент_14-21);}.cls-25{stroke:url(#Безымянный_градиент_14-22);}.cls-26{stroke:url(#Безымянный_градиент_14-23);}.cls-27{stroke:url(#Безымянный_градиент_14-24);}.cls-28{stroke:url(#Безымянный_градиент_14-25);}.cls-29{stroke:url(#Безымянный_градиент_14-26);}.cls-30{stroke:url(#Безымянный_градиент_14-27);}.cls-31{stroke:url(#Безымянный_градиент_14-28);}.cls-32{stroke:url(#Безымянный_градиент_14-29);}.cls-33{stroke:url(#Безымянный_градиент_14-30);}.cls-34{stroke:url(#Безымянный_градиент_14-31);}.cls-35{stroke:url(#Безымянный_градиент_14-32);}.cls-36{stroke:url(#Безымянный_градиент_14-33);}.cls-37{stroke:url(#Безымянный_градиент_14-34);}.cls-38{stroke:url(#Безымянный_градиент_14-35);}.cls-39{stroke:url(#Безымянный_градиент_14-36);}.cls-40{stroke:url(#Безымянный_градиент_14-37);}.cls-41{stroke:url(#Безымянный_градиент_14-38);}.cls-42{stroke:url(#Безымянный_градиент_14-39);}.cls-43{stroke:url(#Безымянный_градиент_14-40);}.cls-44{stroke:url(#Безымянный_градиент_14-41);}.cls-45{stroke:url(#Безымянный_градиент_14-42);}.cls-46{stroke:url(#Безымянный_градиент_14-43);}.cls-47{stroke:url(#Безымянный_градиент_14-44);}.cls-48{stroke:url(#Безымянный_градиент_14-45);}.cls-49{stroke:url(#Безымянный_градиент_14-46);}.cls-50{stroke:url(#Безымянный_градиент_14-47);}.cls-51{stroke:url(#Безымянный_градиент_14-48);}.cls-52{stroke:url(#Безымянный_градиент_14-49);}.cls-53{stroke:url(#Безымянный_градиент_14-50);}.cls-54{stroke:url(#Безымянный_градиент_14-51);}.cls-55{stroke:url(#Безымянный_градиент_14-52);}.cls-56{stroke:url(#Безымянный_градиент_14-53);}.cls-57{stroke:url(#Безымянный_градиент_14-54);}.cls-58{stroke:url(#Безымянный_градиент_14-55);}.cls-59{stroke:url(#Безымянный_градиент_14-56);}.cls-60{stroke:url(#Безымянный_градиент_14-57);}.cls-61{stroke:url(#Безымянный_градиент_14-58);}.cls-62{stroke:url(#Безымянный_градиент_14-59);}.cls-63{stroke:url(#Безымянный_градиент_14-60);}.cls-64{stroke:url(#Безымянный_градиент_14-61);}.cls-65{stroke:url(#Безымянный_градиент_14-62);}.cls-66{stroke:url(#Безымянный_градиент_14-63);}.cls-67{stroke:url(#Безымянный_градиент_14-64);}.cls-68{stroke:url(#Безымянный_градиент_14-65);}.cls-69{stroke:url(#Безымянный_градиент_14-66);}.cls-70{stroke:url(#Безымянный_градиент_14-67);}.cls-71{stroke:url(#Безымянный_градиент_14-68);}.cls-72{stroke:url(#Безымянный_градиент_14-69);}.cls-73{stroke:url(#Безымянный_градиент_14-70);}.cls-74{stroke:url(#Безымянный_градиент_14-71);}.cls-75{stroke:url(#Безымянный_градиент_14-72);}.cls-76{stroke:url(#Безымянный_градиент_14-73);}.cls-77{stroke:url(#Безымянный_градиент_14-74);}.cls-78{stroke:url(#Безымянный_градиент_14-75);}.cls-79{stroke:url(#Безымянный_градиент_14-76);}.cls-80{stroke:url(#Безымянный_градиент_14-77);}.cls-81{stroke:url(#Безымянный_градиент_14-78);}.cls-82{stroke:url(#Безымянный_градиент_14-79);}.cls-83{stroke:url(#Безымянный_градиент_14-80);}.cls-84{stroke:url(#Безымянный_градиент_14-81);}.cls-85{stroke:url(#Безымянный_градиент_14-82);}.cls-86{stroke:url(#Безымянный_градиент_14-83);}.cls-87{stroke:url(#Безымянный_градиент_14-84);}.cls-88{stroke:url(#Безымянный_градиент_14-85);}.cls-89{stroke:url(#Безымянный_градиент_14-86);}.cls-90{stroke:url(#Безымянный_градиент_14-87);}.cls-91{stroke:url(#Безымянный_градиент_14-88);}.cls-92{stroke:url(#Безымянный_градиент_14-89);}.cls-93{stroke:url(#Безымянный_градиент_14-90);}.cls-94{fill:#ccc;}.cls-95{fill:#fff;}</style> <clipPath id="clip-path"> <rect class="cls-1" x="-1.97" width="1923.94" height="777.09"></rect> </clipPath> <clipPath id="clip-path-2"> <polygon class="cls-1" points="5.73 461.71 1925.92 37.94 1925.92 1320 5.92 1320 5.73 461.71"></polygon> </clipPath> <linearGradient id="Безымянный_градиент_14" x1="-593.15" y1="603.86" x2="434.85" y2="603.86" gradientUnits="userSpaceOnUse"> <stop offset="0" stop-color="#fff"></stop> <stop offset="1" stop-color="#999"></stop> </linearGradient> <linearGradient id="Безымянный_градиент_14-2" x1="-570.72" y1="603.86" x2="457.28" y2="603.86" xlink:href="#Безымянный_градиент_14"></linearGradient> <linearGradient id="Безымянный_градиент_14-3" x1="-548.29" y1="603.86" x2="479.71" y2="603.86" xlink:href="#Безымянный_градиент_14"></linearGradient> <linearGradient id="Безымянный_градиент_14-4" x1="-525.86" y1="603.86" x2="502.14" y2="603.86" xlink:href="#Безымянный_градиент_14"></linearGradient> <linearGradient id="Безымянный_градиент_14-5" x1="-503.43" y1="603.86" x2="524.57" y2="603.86" xlink:href="#Безымянный_градиент_14"></linearGradient> <linearGradient id="Безымянный_градиент_14-6" x1="-481" y1="603.86" x2="547" y2="603.86" xlink:href="#Безымянный_градиент_14"></linearGradient> <linearGradient id="Безымянный_градиент_14-7" x1="-458.57" y1="603.86" x2="569.43" y2="603.86" xlink:href="#Безымянный_градиент_14"></linearGradient> <linearGradient id="Безымянный_градиент_14-8" x1="-436.14" y1="603.86" x2="591.86" y2="603.86" xlink:href="#Безымянный_градиент_14"></linearGradient> <linearGradient id="Безымянный_градиент_14-9" x1="-413.71" y1="603.86" x2="614.29" y2="603.86" xlink:href="#Безымянный_градиент_14"></linearGradient> <linearGradient id="Безымянный_градиент_14-10" x1="-391.28" y1="603.86" x2="636.72" y2="603.86" xlink:href="#Безымянный_градиент_14"></linearGradient> <linearGradient id="Безымянный_градиент_14-11" x1="-368.85" y1="603.86" x2="659.15" y2="603.86" xlink:href="#Безымянный_градиент_14"></linearGradient> <linearGradient id="Безымянный_градиент_14-12" x1="-346.42" y1="603.86" x2="681.58" y2="603.86" xlink:href="#Безымянный_градиент_14"></linearGradient> <linearGradient id="Безымянный_градиент_14-13" x1="-323.99" y1="603.86" x2="704.01" y2="603.86" xlink:href="#Безымянный_градиент_14"></linearGradient> <linearGradient id="Безымянный_градиент_14-14" x1="-301.56" y1="603.86" x2="726.44" y2="603.86" xlink:href="#Безымянный_градиент_14"></linearGradient> <linearGradient id="Безымянный_градиент_14-15" x1="-279.13" y1="603.86" x2="748.87" y2="603.86" xlink:href="#Безымянный_градиент_14"></linearGradient> <linearGradient id="Безымянный_градиент_14-16" x1="-256.7" y1="603.86" x2="771.3" y2="603.86" xlink:href="#Безымянный_градиент_14"></linearGradient> <linearGradient id="Безымянный_градиент_14-17" x1="-234.27" y1="603.86" x2="793.73" y2="603.86" xlink:href="#Безымянный_градиент_14"></linearGradient> <linearGradient id="Безымянный_градиент_14-18" x1="-211.84" y1="603.86" x2="816.16" y2="603.86" xlink:href="#Безымянный_градиент_14"></linearGradient> <linearGradient id="Безымянный_градиент_14-19" x1="-189.41" y1="603.86" x2="838.59" y2="603.86" xlink:href="#Безымянный_градиент_14"></linearGradient> <linearGradient id="Безымянный_градиент_14-20" x1="-166.98" y1="603.86" x2="861.02" y2="603.86" xlink:href="#Безымянный_градиент_14"></linearGradient> <linearGradient id="Безымянный_градиент_14-21" x1="-144.55" y1="603.86" x2="883.45" y2="603.86" xlink:href="#Безымянный_градиент_14"></linearGradient> <linearGradient id="Безымянный_градиент_14-22" x1="-122.12" y1="603.86" x2="905.88" y2="603.86" xlink:href="#Безымянный_градиент_14"></linearGradient> <linearGradient id="Безымянный_градиент_14-23" x1="-99.69" y1="603.86" x2="928.31" y2="603.86" xlink:href="#Безымянный_градиент_14"></linearGradient> <linearGradient id="Безымянный_градиент_14-24" x1="-77.26" y1="603.86" x2="950.74" y2="603.86" xlink:href="#Безымянный_градиент_14"></linearGradient> <linearGradient id="Безымянный_градиент_14-25" x1="-54.83" y1="603.86" x2="973.17" y2="603.86" xlink:href="#Безымянный_градиент_14"></linearGradient> <linearGradient id="Безымянный_градиент_14-26" x1="-32.4" y1="603.86" x2="995.6" y2="603.86" xlink:href="#Безымянный_градиент_14"></linearGradient> <linearGradient id="Безымянный_градиент_14-27" x1="-9.97" y1="603.86" x2="1018.03" y2="603.86" xlink:href="#Безымянный_градиент_14"></linearGradient> <linearGradient id="Безымянный_градиент_14-28" x1="12.46" y1="603.86" x2="1040.46" y2="603.86" xlink:href="#Безымянный_градиент_14"></linearGradient> <linearGradient id="Безымянный_градиент_14-29" x1="34.89" y1="603.86" x2="1062.89" y2="603.86" xlink:href="#Безымянный_градиент_14"></linearGradient> <linearGradient id="Безымянный_градиент_14-30" x1="57.32" y1="603.86" x2="1085.32" y2="603.86" xlink:href="#Безымянный_градиент_14"></linearGradient> <linearGradient id="Безымянный_градиент_14-31" x1="79.75" y1="603.86" x2="1107.75" y2="603.86" xlink:href="#Безымянный_градиент_14"></linearGradient> <linearGradient id="Безымянный_градиент_14-32" x1="102.18" y1="603.86" x2="1130.18" y2="603.86" xlink:href="#Безымянный_градиент_14"></linearGradient> <linearGradient id="Безымянный_градиент_14-33" x1="124.61" y1="603.86" x2="1152.61" y2="603.86" xlink:href="#Безымянный_градиент_14"></linearGradient> <linearGradient id="Безымянный_градиент_14-34" x1="147.04" y1="603.86" x2="1175.04" y2="603.86" xlink:href="#Безымянный_градиент_14"></linearGradient> <linearGradient id="Безымянный_градиент_14-35" x1="169.47" y1="603.86" x2="1197.47" y2="603.86" xlink:href="#Безымянный_градиент_14"></linearGradient> <linearGradient id="Безымянный_градиент_14-36" x1="191.9" y1="603.86" x2="1219.91" y2="603.86" xlink:href="#Безымянный_градиент_14"></linearGradient> <linearGradient id="Безымянный_градиент_14-37" x1="214.33" y1="603.86" x2="1242.34" y2="603.86" xlink:href="#Безымянный_градиент_14"></linearGradient> <linearGradient id="Безымянный_градиент_14-38" x1="236.76" y1="603.86" x2="1264.77" y2="603.86" xlink:href="#Безымянный_градиент_14"></linearGradient> <linearGradient id="Безымянный_градиент_14-39" x1="259.2" y1="603.86" x2="1287.2" y2="603.86" xlink:href="#Безымянный_градиент_14"></linearGradient> <linearGradient id="Безымянный_градиент_14-40" x1="281.63" y1="603.86" x2="1309.63" y2="603.86" xlink:href="#Безымянный_градиент_14"></linearGradient> <linearGradient id="Безымянный_градиент_14-41" x1="304.06" y1="603.86" x2="1332.06" y2="603.86" xlink:href="#Безымянный_градиент_14"></linearGradient> <linearGradient id="Безымянный_градиент_14-42" x1="326.49" y1="603.86" x2="1354.49" y2="603.86" xlink:href="#Безымянный_градиент_14"></linearGradient> <linearGradient id="Безымянный_градиент_14-43" x1="348.92" y1="603.86" x2="1376.92" y2="603.86" xlink:href="#Безымянный_градиент_14"></linearGradient> <linearGradient id="Безымянный_градиент_14-44" x1="371.35" y1="603.86" x2="1399.35" y2="603.86" xlink:href="#Безымянный_градиент_14"></linearGradient> <linearGradient id="Безымянный_градиент_14-45" x1="393.78" y1="603.86" x2="1421.78" y2="603.86" xlink:href="#Безымянный_градиент_14"></linearGradient> <linearGradient id="Безымянный_градиент_14-46" x1="416.21" y1="603.86" x2="1444.21" y2="603.86" xlink:href="#Безымянный_градиент_14"></linearGradient> <linearGradient id="Безымянный_градиент_14-47" x1="438.64" y1="603.86" x2="1466.64" y2="603.86" xlink:href="#Безымянный_градиент_14"></linearGradient> <linearGradient id="Безымянный_градиент_14-48" x1="461.07" y1="603.86" x2="1489.07" y2="603.86" xlink:href="#Безымянный_градиент_14"></linearGradient> <linearGradient id="Безымянный_градиент_14-49" x1="483.5" y1="603.86" x2="1511.5" y2="603.86" xlink:href="#Безымянный_градиент_14"></linearGradient> <linearGradient id="Безымянный_градиент_14-50" x1="505.93" y1="603.86" x2="1533.93" y2="603.86" xlink:href="#Безымянный_градиент_14"></linearGradient> <linearGradient id="Безымянный_градиент_14-51" x1="528.36" y1="603.86" x2="1556.36" y2="603.86" xlink:href="#Безымянный_градиент_14"></linearGradient> <linearGradient id="Безымянный_градиент_14-52" x1="550.79" y1="603.86" x2="1578.79" y2="603.86" xlink:href="#Безымянный_градиент_14"></linearGradient> <linearGradient id="Безымянный_градиент_14-53" x1="573.22" y1="603.86" x2="1601.22" y2="603.86" xlink:href="#Безымянный_градиент_14"></linearGradient> <linearGradient id="Безымянный_градиент_14-54" x1="595.65" y1="603.86" x2="1623.65" y2="603.86" xlink:href="#Безымянный_градиент_14"></linearGradient> <linearGradient id="Безымянный_градиент_14-55" x1="618.08" y1="603.86" x2="1646.08" y2="603.86" xlink:href="#Безымянный_градиент_14"></linearGradient> <linearGradient id="Безымянный_градиент_14-56" x1="640.51" y1="603.86" x2="1668.51" y2="603.86" xlink:href="#Безымянный_градиент_14"></linearGradient> <linearGradient id="Безымянный_градиент_14-57" x1="662.94" y1="603.86" x2="1690.94" y2="603.86" xlink:href="#Безымянный_градиент_14"></linearGradient> <linearGradient id="Безымянный_градиент_14-58" x1="685.37" y1="603.86" x2="1713.37" y2="603.86" xlink:href="#Безымянный_градиент_14"></linearGradient> <linearGradient id="Безымянный_градиент_14-59" x1="707.8" y1="603.86" x2="1735.8" y2="603.86" xlink:href="#Безымянный_градиент_14"></linearGradient> <linearGradient id="Безымянный_градиент_14-60" x1="730.23" y1="603.86" x2="1758.23" y2="603.86" xlink:href="#Безымянный_градиент_14"></linearGradient> <linearGradient id="Безымянный_градиент_14-61" x1="752.66" y1="603.86" x2="1780.66" y2="603.86" xlink:href="#Безымянный_градиент_14"></linearGradient> <linearGradient id="Безымянный_градиент_14-62" x1="775.09" y1="603.86" x2="1803.09" y2="603.86" xlink:href="#Безымянный_градиент_14"></linearGradient> <linearGradient id="Безымянный_градиент_14-63" x1="797.52" y1="603.86" x2="1825.52" y2="603.86" xlink:href="#Безымянный_градиент_14"></linearGradient> <linearGradient id="Безымянный_градиент_14-64" x1="819.95" y1="603.86" x2="1847.95" y2="603.86" xlink:href="#Безымянный_градиент_14"></linearGradient> <linearGradient id="Безымянный_градиент_14-65" x1="842.38" y1="603.86" x2="1870.38" y2="603.86" xlink:href="#Безымянный_градиент_14"></linearGradient> <linearGradient id="Безымянный_градиент_14-66" x1="864.81" y1="603.86" x2="1892.81" y2="603.86" xlink:href="#Безымянный_градиент_14"></linearGradient> <linearGradient id="Безымянный_градиент_14-67" x1="887.24" y1="603.86" x2="1915.24" y2="603.86" xlink:href="#Безымянный_градиент_14"></linearGradient> <linearGradient id="Безымянный_градиент_14-68" x1="909.67" y1="603.86" x2="1937.67" y2="603.86" xlink:href="#Безымянный_градиент_14"></linearGradient> <linearGradient id="Безымянный_градиент_14-69" x1="932.1" y1="603.86" x2="1960.1" y2="603.86" xlink:href="#Безымянный_градиент_14"></linearGradient> <linearGradient id="Безымянный_градиент_14-70" x1="954.53" y1="603.86" x2="1982.53" y2="603.86" xlink:href="#Безымянный_градиент_14"></linearGradient> <linearGradient id="Безымянный_градиент_14-71" x1="976.96" y1="603.86" x2="2004.96" y2="603.86" xlink:href="#Безымянный_градиент_14"></linearGradient> <linearGradient id="Безымянный_градиент_14-72" x1="999.39" y1="603.86" x2="2027.39" y2="603.86" xlink:href="#Безымянный_градиент_14"></linearGradient> <linearGradient id="Безымянный_градиент_14-73" x1="1021.82" y1="603.86" x2="2049.82" y2="603.86" xlink:href="#Безымянный_градиент_14"></linearGradient> <linearGradient id="Безымянный_градиент_14-74" x1="1044.25" y1="603.86" x2="2072.26" y2="603.86" xlink:href="#Безымянный_градиент_14"></linearGradient> <linearGradient id="Безымянный_градиент_14-75" x1="1066.68" y1="603.86" x2="2094.69" y2="603.86" xlink:href="#Безымянный_градиент_14"></linearGradient> <linearGradient id="Безымянный_градиент_14-76" x1="1089.11" y1="603.86" x2="2117.12" y2="603.86" xlink:href="#Безымянный_градиент_14"></linearGradient> <linearGradient id="Безымянный_градиент_14-77" x1="1111.55" y1="603.86" x2="2139.55" y2="603.86" xlink:href="#Безымянный_градиент_14"></linearGradient> <linearGradient id="Безымянный_градиент_14-78" x1="1133.98" y1="603.86" x2="2161.98" y2="603.86" xlink:href="#Безымянный_градиент_14"></linearGradient> <linearGradient id="Безымянный_градиент_14-79" x1="1156.41" y1="603.86" x2="2184.41" y2="603.86" xlink:href="#Безымянный_градиент_14"></linearGradient> <linearGradient id="Безымянный_градиент_14-80" x1="1178.84" y1="603.86" x2="2206.84" y2="603.86" xlink:href="#Безымянный_градиент_14"></linearGradient> <linearGradient id="Безымянный_градиент_14-81" x1="1201.27" y1="603.86" x2="2229.27" y2="603.86" xlink:href="#Безымянный_градиент_14"></linearGradient> <linearGradient id="Безымянный_градиент_14-82" x1="1223.7" y1="603.86" x2="2251.7" y2="603.86" xlink:href="#Безымянный_градиент_14"></linearGradient> <linearGradient id="Безымянный_градиент_14-83" x1="1246.13" y1="603.86" x2="2274.13" y2="603.86" xlink:href="#Безымянный_градиент_14"></linearGradient> <linearGradient id="Безымянный_градиент_14-84" x1="1268.56" y1="603.86" x2="2296.56" y2="603.86" xlink:href="#Безымянный_градиент_14"></linearGradient> <linearGradient id="Безымянный_градиент_14-85" x1="1290.99" y1="603.86" x2="2318.99" y2="603.86" xlink:href="#Безымянный_градиент_14"></linearGradient> <linearGradient id="Безымянный_градиент_14-86" x1="1313.42" y1="603.86" x2="2341.42" y2="603.86" xlink:href="#Безымянный_градиент_14"></linearGradient> <linearGradient id="Безымянный_градиент_14-87" x1="1335.85" y1="603.86" x2="2363.85" y2="603.86" xlink:href="#Безымянный_градиент_14"></linearGradient> <linearGradient id="Безымянный_градиент_14-88" x1="1358.28" y1="603.86" x2="2386.28" y2="603.86" xlink:href="#Безымянный_градиент_14"></linearGradient> <linearGradient id="Безымянный_градиент_14-89" x1="1380.71" y1="603.86" x2="2408.71" y2="603.86" xlink:href="#Безымянный_градиент_14"></linearGradient> <linearGradient id="Безымянный_градиент_14-90" x1="1403.14" y1="603.86" x2="2431.14" y2="603.86" xlink:href="#Безымянный_градиент_14"></linearGradient> </defs> <g class="cls-2"> <g class="cls-3"> <line class="cls-4" x1="433.73" y1="37.94" x2="-592.04" y2="1169.78"></line> <line class="cls-5" x1="456.16" y1="37.94" x2="-569.61" y2="1169.78"></line> <line class="cls-6" x1="478.6" y1="37.94" x2="-547.18" y2="1169.78"></line> <line class="cls-7" x1="501.03" y1="37.94" x2="-524.75" y2="1169.78"></line> <line class="cls-8" x1="523.46" y1="37.94" x2="-502.32" y2="1169.78"></line> <line class="cls-9" x1="545.89" y1="37.94" x2="-479.89" y2="1169.78"></line> <line class="cls-10" x1="568.32" y1="37.94" x2="-457.46" y2="1169.78"></line> <line class="cls-11" x1="590.75" y1="37.94" x2="-435.03" y2="1169.78"></line> <line class="cls-12" x1="613.18" y1="37.94" x2="-412.6" y2="1169.78"></line> <line class="cls-13" x1="635.61" y1="37.94" x2="-390.17" y2="1169.78"></line> <line class="cls-14" x1="658.04" y1="37.94" x2="-367.74" y2="1169.78"></line> <line class="cls-15" x1="680.47" y1="37.94" x2="-345.31" y2="1169.78"></line> <line class="cls-16" x1="702.9" y1="37.94" x2="-322.88" y2="1169.78"></line> <line class="cls-17" x1="725.33" y1="37.94" x2="-300.45" y2="1169.78"></line> <line class="cls-18" x1="747.76" y1="37.94" x2="-278.02" y2="1169.78"></line> <line class="cls-19" x1="770.19" y1="37.94" x2="-255.59" y2="1169.78"></line> <line class="cls-20" x1="792.62" y1="37.94" x2="-233.16" y2="1169.78"></line> <line class="cls-21" x1="815.05" y1="37.94" x2="-210.73" y2="1169.78"></line> <line class="cls-22" x1="837.48" y1="37.94" x2="-188.3" y2="1169.78"></line> <line class="cls-23" x1="859.91" y1="37.94" x2="-165.87" y2="1169.78"></line> <line class="cls-24" x1="882.34" y1="37.94" x2="-143.44" y2="1169.78"></line> <line class="cls-25" x1="904.77" y1="37.94" x2="-121.01" y2="1169.78"></line> <line class="cls-26" x1="927.2" y1="37.94" x2="-98.58" y2="1169.78"></line> <line class="cls-27" x1="949.63" y1="37.94" x2="-76.15" y2="1169.78"></line> <line class="cls-28" x1="972.06" y1="37.94" x2="-53.72" y2="1169.78"></line> <line class="cls-29" x1="994.49" y1="37.94" x2="-31.29" y2="1169.78"></line> <line class="cls-30" x1="1016.92" y1="37.94" x2="-8.86" y2="1169.78"></line> <line class="cls-31" x1="1039.35" y1="37.94" x2="13.57" y2="1169.78"></line> <line class="cls-32" x1="1061.78" y1="37.94" x2="36" y2="1169.78"></line> <line class="cls-33" x1="1084.21" y1="37.94" x2="58.43" y2="1169.78"></line> <line class="cls-34" x1="1106.64" y1="37.94" x2="80.86" y2="1169.78"></line> <line class="cls-35" x1="1129.07" y1="37.94" x2="103.29" y2="1169.78"></line> <line class="cls-36" x1="1151.5" y1="37.94" x2="125.73" y2="1169.78"></line> <line class="cls-37" x1="1173.93" y1="37.94" x2="148.16" y2="1169.78"></line> <line class="cls-38" x1="1196.36" y1="37.94" x2="170.59" y2="1169.78"></line> <line class="cls-39" x1="1218.79" y1="37.94" x2="193.02" y2="1169.78"></line> <line class="cls-40" x1="1241.22" y1="37.94" x2="215.45" y2="1169.78"></line> <line class="cls-41" x1="1263.65" y1="37.94" x2="237.88" y2="1169.78"></line> <line class="cls-42" x1="1286.08" y1="37.94" x2="260.31" y2="1169.78"></line> <line class="cls-43" x1="1308.51" y1="37.94" x2="282.74" y2="1169.78"></line> <line class="cls-44" x1="1330.94" y1="37.94" x2="305.17" y2="1169.78"></line> <line class="cls-45" x1="1353.38" y1="37.94" x2="327.6" y2="1169.78"></line> <line class="cls-46" x1="1375.81" y1="37.94" x2="350.03" y2="1169.78"></line> <line class="cls-47" x1="1398.24" y1="37.94" x2="372.46" y2="1169.78"></line> <line class="cls-48" x1="1420.67" y1="37.94" x2="394.89" y2="1169.78"></line> <line class="cls-49" x1="1443.1" y1="37.94" x2="417.32" y2="1169.78"></line> <line class="cls-50" x1="1465.53" y1="37.94" x2="439.75" y2="1169.78"></line> <line class="cls-51" x1="1487.96" y1="37.94" x2="462.18" y2="1169.78"></line> <line class="cls-52" x1="1510.39" y1="37.94" x2="484.61" y2="1169.78"></line> <line class="cls-53" x1="1532.82" y1="37.94" x2="507.04" y2="1169.78"></line> <line class="cls-54" x1="1555.25" y1="37.94" x2="529.47" y2="1169.78"></line> <line class="cls-55" x1="1577.68" y1="37.94" x2="551.9" y2="1169.78"></line> <line class="cls-56" x1="1600.11" y1="37.94" x2="574.33" y2="1169.78"></line> <line class="cls-57" x1="1622.54" y1="37.94" x2="596.76" y2="1169.78"></line> <line class="cls-58" x1="1644.97" y1="37.94" x2="619.19" y2="1169.78"></line> <line class="cls-59" x1="1667.4" y1="37.94" x2="641.62" y2="1169.78"></line> <line class="cls-60" x1="1689.83" y1="37.94" x2="664.05" y2="1169.78"></line> <line class="cls-61" x1="1712.26" y1="37.94" x2="686.48" y2="1169.78"></line> <line class="cls-62" x1="1734.69" y1="37.94" x2="708.91" y2="1169.78"></line> <line class="cls-63" x1="1757.12" y1="37.94" x2="731.34" y2="1169.78"></line> <line class="cls-64" x1="1779.55" y1="37.94" x2="753.77" y2="1169.78"></line> <line class="cls-65" x1="1801.98" y1="37.94" x2="776.2" y2="1169.78"></line> <line class="cls-66" x1="1824.41" y1="37.94" x2="798.63" y2="1169.78"></line> <line class="cls-67" x1="1846.84" y1="37.94" x2="821.06" y2="1169.78"></line> <line class="cls-68" x1="1869.27" y1="37.94" x2="843.49" y2="1169.78"></line> <line class="cls-69" x1="1891.7" y1="37.94" x2="865.92" y2="1169.78"></line> <line class="cls-70" x1="1914.13" y1="37.94" x2="888.35" y2="1169.78"></line> <line class="cls-71" x1="1936.56" y1="37.94" x2="910.78" y2="1169.78"></line> <line class="cls-72" x1="1958.99" y1="37.94" x2="933.21" y2="1169.78"></line> <line class="cls-73" x1="1981.42" y1="37.94" x2="955.64" y2="1169.78"></line> <line class="cls-74" x1="2003.85" y1="37.94" x2="978.08" y2="1169.78"></line> <line class="cls-75" x1="2026.28" y1="37.94" x2="1000.51" y2="1169.78"></line> <line class="cls-76" x1="2048.71" y1="37.94" x2="1022.94" y2="1169.78"></line> <line class="cls-77" x1="2071.14" y1="37.94" x2="1045.37" y2="1169.78"></line> <line class="cls-78" x1="2093.57" y1="37.94" x2="1067.8" y2="1169.78"></line> <line class="cls-79" x1="2116" y1="37.94" x2="1090.23" y2="1169.78"></line> <line class="cls-80" x1="2138.43" y1="37.94" x2="1112.66" y2="1169.78"></line> <line class="cls-81" x1="2160.86" y1="37.94" x2="1135.09" y2="1169.78"></line> <line class="cls-82" x1="2183.29" y1="37.94" x2="1157.52" y2="1169.78"></line> <line class="cls-83" x1="2205.73" y1="37.94" x2="1179.95" y2="1169.78"></line> <line class="cls-84" x1="2228.16" y1="37.94" x2="1202.38" y2="1169.78"></line> <line class="cls-85" x1="2250.59" y1="37.94" x2="1224.81" y2="1169.78"></line> <line class="cls-86" x1="2273.02" y1="37.94" x2="1247.24" y2="1169.78"></line> <line class="cls-87" x1="2295.45" y1="37.94" x2="1269.67" y2="1169.78"></line> <line class="cls-88" x1="2317.88" y1="37.94" x2="1292.1" y2="1169.78"></line> <line class="cls-89" x1="2340.31" y1="37.94" x2="1314.53" y2="1169.78"></line> <line class="cls-90" x1="2362.74" y1="37.94" x2="1336.96" y2="1169.78"></line> <line class="cls-91" x1="2385.17" y1="37.94" x2="1359.39" y2="1169.78"></line> <line class="cls-92" x1="2407.6" y1="37.94" x2="1381.82" y2="1169.78"></line> <line class="cls-93" x1="2430.03" y1="37.94" x2="1404.25" y2="1169.78"></line> </g> <polygon class="cls-94" points="5.92 461.71 1925.92 28.5 1925.92 50.63 5.92 461.71 5.92 461.71"></polygon> <polygon class="cls-95" points="1925.92 777.09 1925.92 74.44 5.73 757.69 5.47 777.09 1925.92 777.09"></polygon> </g> </svg> 